<?xml version="1.0" encoding="UTF-8"?>
<svg id="Layer_1" xmlns="http://www.w3.org/2000/svg" xmlns:xlink="http://www.w3.org/1999/xlink" version="1.1" viewBox="0 0 710.2 848.5">
  <!-- Generator: Adobe Illustrator 29.5.1, SVG Export Plug-In . SVG Version: 2.1.0 Build 141)  -->
  <defs>
    <style>
      .st0, .st1 {
        fill: none;
      }

      .st2 {
        fill: #d5f4f9;
      }

      .st2, .st3, .st1, .st4, .st5, .st6, .st7, .st8, .st9 {
        stroke-miterlimit: 10;
      }

      .st2, .st3, .st1, .st4, .st6, .st7, .st8, .st9 {
        stroke-width: .8px;
      }

      .st2, .st3, .st4, .st5, .st6, .st7, .st8, .st9 {
        stroke: #73daeb;
      }

      .st3 {
        fill-rule: evenodd;
      }

      .st3, .st10, .st5, .st6 {
        fill: #fff;
      }

      .st1 {
        stroke: #fff;
      }

      .st4 {
        fill: #f1fbfd;
      }

      .st5 {
        stroke-width: .7px;
      }

      .st7 {
        fill: #e3f8fb;
      }

      .st8 {
        fill: #8fe1ef;
      }

      .st11 {
        fill: #73daeb;
      }

      .st12 {
        clip-path: url(#clippath);
      }

      .st9 {
        fill: #81deed;
      }

      .st13 {
        fill: #60d1e5;
      }
    </style>
    <clipPath id="clippath">
      <path class="st0" d="M560.3,303.2c65.5,0,118.5-53.1,118.5-118.5s-53.1-118.5-118.5-118.5-118.5,53.1-118.5,118.5,53.1,118.5,118.5,118.5Z"/>
    </clipPath>
  </defs>
  <g id="circulo">
    <g>
      <path class="st11" d="M560.3,303.2c65.5,0,118.5-53.1,118.5-118.5s-53.1-118.5-118.5-118.5-118.5,53.1-118.5,118.5,53.1,118.5,118.5,118.5"/>
      <g class="st12">
        <g>
          <circle class="st13" cx="555.5" cy="185.1" r="136.4"/>
          <g>
            <path id="argelia" class="st2" d="M540.8,254.7h.4l1.9-.8h.3l2.4.5c.2,0,.3,0,.4-.1l2.2-1.9,3.8-3.1s0,0,.2-.1l3.6-.6c.2,0,.3-.1.4-.3l.7-2c0-.2,0-.5-.2-.6l-1.3-.7c-.2-.1-.3-.3-.2-.5l.4-1.8c0-.2.2-.3.4-.4l3.7-.9c.2,0,.4-.2.4-.5v-1c0-.3.2-.5.5-.5h6c0,0,.2,0,.3-.1l2.4-2c.2-.2.2-.5,0-.7l-2.4-2.6s0-.2,0-.3v-3.7c0-.2,0-.3-.2-.4-.4-.3-1.1-.9-1.1-1.1s.4-2.1.5-2.7v-.3l-1.7-3.1c.2,0,.4-.1.6-.3l4.6-4c.3-.3.7-.3,1-.2l2.1.8c.4.1.8,0,1.1-.3,1-1.1,3-3.4,3.3-3.7.3-.4,5.5-.5,6.8-.5s.4,0,.5-.2l3.7-2.4c0,0,.3-.1.4-.2l6.8-1.1c.2,0,.5,0,.7.1l3.3,1.9c.4.2.8.2,1.2-.1l.7-.5c.2-.2.4-.2.7-.2h1.9c.2,0,.4,0,.6-.2l1.4-1c.4-.3.8-.3,1.2,0l1.2.8c.3.2.7.2,1,0l1.1-.5c.3-.1.6-.1.8,0l2.3.9h.6l2.7-.7v1.2l-2.6,1.3s1.5.6,1.3,1c-.2.3-1.3,2.9-1.3,2.9l1.3,2.2-1.3,1.3,1.3,1.9-1.3,2.8-1.5,2.3h-1.6v3.8l2.3,2.3,1.4,1.1.4,2.8,3,2.3s3.1,1.2,3.8,2.1c.6,1,0,5.5,0,5.5l1.8,8.6,1.8,4.2-4.8,4.6,3,5,5.6,2.9,4,5-7.9,11.9-7.3,7.6-7.6,4.5-7.8,7.8-7.3,1.5-4.5.9-1.4-1.4.9-1.6v-1.7l-2.4-1.2h-1.5l-.6-.9h-2.5s-1.1-1.9-1.2-2.5c0-.5-2.5,0-2.5,0v-2.4l-30.3-20.7-17.8-12.2v-7.4c0-.2,0-.3.2-.4l7.4-5.4c.2-.1.4-.1.5,0l1.1.6v-.2Z"/>
            <path id="túnez" class="st2" d="M630.4,231.8l-5-2.1-.9-4.5,3.1-1.8.5-2.2s-1.7-3.6-2.1-4.7c-.3-1.2,3.2-2.1,3.2-2.1l-1.7-2.6s-3.1,1.2-4,1.8c-.9.5-2-2.8-2-2.8l-2.1,1.1-1.6-.6c-.2-.4-.7-.6-1.1-.4h0v1.2l-.4.2-2.2,1.1s1.4.6,1.3,1h0c-.3.5-1.3,2.8-1.3,2.8l1.3,2.2-.2.2-1.1,1.1,1.3,1.9-.3.7-1,2-1,1.5-.5.8h-1.6v3.8l.7.7,1.5,1.5.8.6.6.5.2,1.2.2,1.6h0l.4.3,2.6,1.9s3.1,1.2,3.8,2.1c.6,1,0,5.5,0,5.5l3.3-3-.7-4.6,2.8-1.5.3-1.7,3.4-.6-.6-4.1h0Z"/>
            <path id="mauritania" class="st2" d="M549.4,279.5h-7.8l4,38.1h-49.9c-.5,0-.9-.3-1-.8l-1.5-5.5v-.6l.8-2.4v-.7l-1.5-4.3h0l-1.7-3.6h0l18.7-.5c.3,0,.5-.3.5-.5l-.5-5.9v-.3c.3-.5,1.5-2.6,1.8-2.8.3-.3,2.7-1.3,3.5-1.6.2,0,.3-.3.3-.4v-13c0-.3.2-.5.5-.5h15.5c.3,0,.5-.2.5-.5v-6.3l17.8,12.2h0Z"/>
            <path id="malí" class="st2" d="M595.3,311v6.5h-49.7l-4-38.1h7.8l30.3,20.7v2.4s2.4-.5,2.5,0,1.2,2.5,1.2,2.5h2.5l.6.9h1.5l2.4,1.2v1.8l-.9,1.6,1.4,1.4,4.5-.9h0Z"/>
            <path id="marruecos" class="st2" d="M490.8,299.6h0v-.2c0-.2-.1-.4,0-.6l.5-2.9c0-.2.2-.5.4-.6l2-1.6c.1-.1.3-.3.3-.4l2.3-6.3s0-.2.2-.3l4.1-5.3c0-.1.2-.3.2-.4l1-3.9,1-4.1c0-.3.2-.5.5-.6l4.6-2.9c.2-.1.3-.3.4-.4l2.3-4.9c.1-.2.3-.4.6-.5l5.4-2.1c.2,0,.3-.2.4-.3l1.5-1.8c0-.1.3-.3.5-.3l3.8-1.1c.3,0,.5-.3.6-.5l3.5-6.9c0-.2,0-.5,0-.7l-.9-4.1v-.7l1.9-3.7v-.2l.7-3.1c0-.1,0-.2,0-.3l2.4-3.8c0-.2.3-.3.5-.4l6.6-2.9c0,0,.2-.1.3-.2l2.9-3h0l2.2-2.7c0-.2.2-.4.2-.6l.3-4.8c0-.4.3-.8.7-.9l1.9-.6c.5-.2,1,0,1.3.5l.4.8s0,.1,0,.2l1.9,2.3c.3.4.8.5,1.3.3l1.9-.9c0,0,.3-.1.5-.1h4.1c.2,0,.4,0,.6.2.6.4,2,1.4,2.4,1.7.4.2,2.3,0,3.1,0l1.7,3.1v.3c0,.6-.5,2.4-.5,2.7s.8.8,1.1,1.1c0,0,.2.2.2.4v3.7c0,.1,0,.2,0,.3l2.4,2.6c.2.2.2.5,0,.7l-2.4,2s-.2.1-.3.1h-6c-.3,0-.5.2-.5.5v1c0,.2-.2.4-.4.5l-3.7.9c-.2,0-.3.2-.4.3l-.5,1.8c0,.2,0,.4.2.5l1.3.7c.2.1.3.4.2.6l-.7,2c0,.2-.2.3-.4.3l-3.6.6h-.2l-3.8,3.1-2.2,1.9c0,.1-.3.1-.4.1l-2.4-.6h-.3l-1.9.8h-.4l-1.1-.6c-.2-.1-.4,0-.5,0l-7.4,5.4c0,0-.2.2-.2.4v13.7c0,.3-.2.5-.5.5h-15.5c-.3,0-.5.2-.5.5v13c0,.2,0,.4-.3.4-.8.4-3.2,1.4-3.5,1.6-.3.3-1.5,2.3-1.8,2.8v.3l.5,5.9c0,.3-.2.5-.5.5l-18.7.5.3-.3Z"/>
            <path id="portugal" class="st2" d="M538.6,202.4h1s-.2,0-.2.2l-.3.9s0,.2-.2.2h-1s-.2,0-.2.1l-.5,1.2h0l-1,1.4v.2l1.5,2.3-3,1.4h-.4l-1.3-1.2c0,0-.2-.1-.4,0-.7.2-3.3.8-3.4.9,0,0-.3-.4-.4-.7v-.3l1.2-2.8h0c0-.1.2-5,.2-5,0-.2-.2-.4-.4-.4h-.8c-.2,0-.4-.2-.4-.4v-.7c0-.1,0-.3.2-.4l.9-.6c.2-.1.2-.4,0-.5h0c0-.3-.5-.4-.7-.2l-.7.7c0,.1-.3.2-.4,0l-.8-.3c-.2,0-.3-.3-.3-.5l.7-3.3c0-.1,0-.2.2-.3l1.5-.9s.2-.1.2-.2l3-9.4v-.2l-.9-4.9s1.1-.7,1.1-.8v-.5l2.3-.5-.3.6h.7v.3l-.7.7.4.7,1.5-.8,1.3.2-.2.6h1.8v-1h.5c0-.1.6,0,.6,0l2.1.5-.5,1.3.5.5.8-.5.8.6-1.2,1.7-1,.2-.7.9-1,.9.9,1-.6,1.8v1.8h-.6l-.6.9.8.9-.8,2.1-2.5-.2,1,1.3.3,1.9h1.1l.5.9-1.7,2.1-.4,1.4,1,1.8-.2.4Z"/>
            <path id="españa" class="st2" d="M539.5,202.4h-1l-1-1.8.4-1.4,1.7-2.1-.5-.9h-1.1l-.3-1.9-1-1.3,2.5.2.8-2.1-.8-.9.6-.9h.6v-1.7l.6-1.8-.9-1,1-.9.7-.9,1-.2,1.2-1.7-.8-.6-.8.5-.5-.5.5-1.3-2.1-.5h-1.1v1h-1.8l.2-.6-1.3-.2-1.5.8-.4-.7.7-.7v-.3h-.7l.3-.6-2.3.5v.5c0,.1-1.1.8-1.1.8l-.3-1.4c0-.1,0-.3,0-.4l.8-.6c0-.1.2-.3,0-.4l-.7-2.5c0-.1,0-.2-.3-.3l-1-.3c-.2,0-.3-.2-.3-.4v-1.3l1.1-1.6c0-.1.2-.2.3-.2h2c0,0,.3-.1.3-.2l1.3-2c0-.1.2-.2.3-.2h2.7l1.7,1.3h.2l4.4.4h.3l1.5-.9c.2-.1.4,0,.5,0l.9,1.1s.2.1.3.1l5.4.9h.2l3.3-.7h.3l1.5.7h.3l1-.4h.3l2.7,1.2h.3l1.5-.7,1.6,1.1h.2l1.5.2c0,0,.2,0,.3.2l.9,1.2s0,.1.2.1l1.2.5h2.1l1.1.8h2.2c.2,0,.4-.2.4-.4v-.6c0-.3.2-.4.5-.4.9.1,2.6.4,2.8.5s.4,1.3.5,1.9c0,.2.2.3.4.3h.9l.6-.3c.2,0,.4,0,.5.1l.2.3c0,.2.4.2.6.1l.7-.5h.4l1.1.4h.4l1-.7h.4l1.8.8c0,.2-.2.3-.3.3-.3,0-.4.4-.3.6l.5.7v.3l-.2,1.2c0,.1,0,.2-.2.3l-3.7,1.7c0,0-.2.1-.2.2l-.5,1.3c0,.1-.2.2-.3.3l-4.8,1s-.2,0-.2.1l-1.1,1.2c0,.1-.2.4,0,.5l.4.6c0,.2,0,.5,0,.6l-1.3.7s0,0-.2.1l-4,6.5v.3l.7,2.5s0,.2,0,.2l1.9,1.6c.2.2.2.5,0,.6l-2.5,1.8h0c0,.1-1.7,3-1.7,3v.3l.5,1.6c0,.3,0,.6-.4.5h-1.9c0-.1,0-.1-.2-.1l-2.4.9c0,0-.2.1-.2.2l-1.1,3.1s0,.1,0,.2l-1.3,1c-.2.2-.5.1-.6,0l-.2-.4c0-.1-.2-.2-.3-.2h-.2c0,0-.3,0-.4.2l-.7,1.1c0,.1-.2.2-.4.2h-.6c0,0-.2,0-.3-.2l-.4-.5c0-.1-.2-.2-.4-.2h-1.5c0,.1-4.6.1-4.6.1-.2,0-.3,0-.4.2l-.5.9c0,.1,0,.2-.3.2l-.6.2h-.3l-1-.5h-.3l-1.2.4c0,0-.2.1-.3.3l-.5,1.7c0,.1,0,.2-.3.3l-1.8.5h-.4l-2.8-2.5s0-.2,0-.3v-2.5c0-.2,0-.3-.3-.4l-4-1.8h-.5l-1.5-2.2v-.2l1-1.4h0l.5-1.2s0-.1.2-.1h1s.2,0,.2-.2l.3-.9s0-.2.2-.2h.2Z"/>
            <path id="bulgaria" class="st2" d="M671,164.3c0-.3,0-.6,0-.9h.2l5.3,3.9c.6.4,1.3.6,2,.4,2.1-.5,6.5-1.6,6.7-1.4.2.1,2.5-1.3,3.8-2.2.6-.4,1.3-.5,2-.3l6.2,1.9v.5c0,.4-.2.8-.6,1l-1.6.8c-.4.2-.6.6-.6,1l.2,5.7c0,.6-.5,1.2-1.1,1.2h-4.1c-.5,0-.9.3-1,.7l-.9,2.3c-.2.4-.6.7-1,.7h-11.1c-.4,0-.7-.2-1-.5l-2.4-3.9c-.2-.3-.6-.5-1-.5l.5-.3,1.2-3.1c.3-.8.2-1.6-.3-2.3l-1.3-1.8c-.5-.6-.6-1.4-.3-2.1l.2-.7h-.1Z"/>
            <path id="serbia" class="st2" d="M672.4,168.9c.5.7.6,1.5.3,2.3l-1.2,3.1-.5.3h-.4l-5.2,2c-.4.1-.8,0-1.1-.2l-7.4-6.2c-.2-.2-.4-.4-.4-.7l-1.8-13.3c0-.5-.5-.9-1-1h.9l3.7-3h3.5l4.9,7.5c.3.4.7.8,1.2.9l1.6.5c.9.3,1.5,1.1,1.6,2.1,0,.3,0,.6,0,.9l-.2.7c-.2.7,0,1.5.3,2.1l1.3,1.8v.2Z"/>
            <path id="rumania" class="st2" d="M670.8,141.5l7.2.4h.3l7.2-1.6c.4,0,.8,0,1.1.3l6.8,7.6c.2.2.3.5.3.8v4c0,.5.3.9.7,1l5.9,2.3c.3.1.6.4.7.7l.5,1.5c.2.7-.3,1.5-1.1,1.5h-2.1c-.6,0-1.1.5-1.1,1.2v4.3c0,0-6.1-1.9-6.1-1.9-.7-.2-1.4-.1-2,.3-1.3.9-3.7,2.4-3.8,2.2-.2-.2-4.6.9-6.7,1.4-.7.2-1.4,0-2-.4l-5.3-3.9h-.2c0-.9-.7-1.7-1.6-2l-1.6-.5c-.5-.2-.9-.5-1.2-.9l-4.9-7.5s3.9-2.6,3.9-3.9,4.8-6.9,4.8-6.9h.4-.1Z"/>
            <path id="hungría" class="st2" d="M670.1,141.2s.2.2.3.2h0s-4.8,5.7-4.8,7-3.9,3.9-3.9,3.9h-3.5l-3.7,3h-7.2c-.3,0-.7-.2-.9-.4l-3.8-4.9c0-.2-.3-.3-.5-.4v-.2l1-2.3c0-.2.2-.3.4-.5l2.2-1.7c.7-.5.6-1.6-.2-1.9l-.3-.2c-.4-.2-.6-.6-.6-1v-4.7h10l12.5,1.3h.3c0,.2.2.4.3.5l2.4,2.2h0Z"/>
            <path id="italia" class="st2" d="M617.5,148.9l3.2-2.1h4.3l2.3,3.2,5.9.9h0s-.2.1-.3.2l-5.6,4.7s-.2.2-.2.3l-1.7,2.6c-.2.3-.2.7,0,1l1.8,4.5s0,.2,0,.3l7.9,10.5c.2.2.5.4.8.4l5.7.7c.6,0,1,.5,1,1.1v1.3c0,.5.4,1,.9,1.1l3.9.8c0,0,.3,0,.4.2l5.9,4c.6.4.7,1.3,0,1.8l-1.3,1.1c-.5.4-1.2.4-1.6-.1l-2-2.2c-.5-.5-1.3-.5-1.7,0l-1.7,2.3c-.3.4-.3,1,0,1.4l2.3,2.7c.3.3.3.7.2,1.1l-2.7,7.3c-.2.4-.6.7-1.1.7h-1.2c-.8,0-1.4-.8-1-1.6l2.2-4.9c0-.3,0-.6,0-.8l-2.1-5.6c0-.3-.3-.5-.5-.6l-5.6-2.9c-.2,0-.3-.2-.4-.4l-2.3-3.7c-.2-.3-.6-.5-1-.5h-4.7c-.3,0-.5,0-.7-.2l-9.6-7.7c-.2-.2-.4-.5-.4-.8l-.3-3.5c-.2-2-1.8-3.5-3.7-3.6l-3.4-.2c-.3,0-.6,0-.8.3l-1.8,1.6c-.2.2-.4.3-.6.3l-1.4.2-3.9-5.6c-.4-.6-.2-1.4.4-1.7h.3c.4-.3.7-.8.6-1.2v-3.4c0,0,3.6,0,3.6,0,.5,0,.9-.3,1.1-.7l.4-1c.3-.8,1.5-1,2-.2l.6.8c.4.6,1.3.7,1.8.1l.4-.4c.2-.2.5-.4.8-.4h2.4c.5,0,.9-.3,1.1-.7l.9-2.1c0-.2,0-.4,0-.6h0Z"/>
            <path id="suiza" class="st2" d="M617.5,148.9v.6l-.9,2.1c-.2.4-.6.7-1.1.7h-2.4c-.3,0-.6.1-.8.4l-.4.4c-.5.5-1.4.5-1.8-.1l-.6-.8c-.5-.7-1.7-.6-2,.2l-.4,1c-.2.4-.6.7-1.1.7h-3.7v-.4c0-.6-.5-1.1-1.2-1.1h-2.7c-.6,0-1.2-.5-1.2-1.2v-1.5c0-.4.2-.7.4-.9l1.9-1.5c.3-.2.4-.6.4-.9v-1.5c0-.4.3-.8.7-1l3-1.4c0,0,.3-.2.4-.3h0l7.7,1.2c.2,0,.3,0,.4.1h0c.3.2.6.6.6,1v1c0,.5.3.9.8,1.1l3.2,1.1c.4.1.7.5.8.9h0Z"/>
            <path id="austria" class="st2" d="M612.2,143.9h13.3c.8,0,1.4-.9,1-1.7l-.4-.9c-.3-.6,0-1.2.5-1.5l4-2.2c.5-.3,1.1-.2,1.4.2l.6.7c.4.4,1.1.5,1.6.1l1.6-1.3c.2-.2.4-.2.7-.2h8.2v4.7c0,.4.2.8.6,1l.3.2c.8.4.9,1.4.2,1.9l-2.2,1.7c-.2.1-.3.3-.4.5l-1,2.3v.2h-.7l-8.1,1.4h-.3l-5.9-.9-2.3-3.2h-4.3l-3.2,2.1h0c0-.4-.3-.8-.8-.9l-3.2-1.1c-.5-.2-.8-.6-.8-1.1v-1c0-.4-.2-.8-.6-1h.2Z"/>
            <path id="república-checa" class="st2" d="M655.4,133.3l13.9.2v.2l-1.8,4c0,.2,0,.5,0,.7h-.3l-12.5-1.2h-18.2c-.3,0-.5,0-.7.2l-1.6,1.3c-.5.4-1.2.3-1.6-.1l-.6-.7c-.4-.4-.9-.5-1.4-.2l-5.8-4.3c-.5-.4-.7-1.1-.3-1.6l.3-.5c.4-.6.2-1.4-.5-1.7-.5-.2-.7-.6-.7-1.1s.3-.9.8-1.1l9.7-3.4h.6l6.3,1.3c.5,0,.9.6.9,1.1v1.3c0,.7.5,1.2,1.2,1.2l5.3-.2c.3,0,.5,0,.7.2l5.6,4.3c.2.1.4.2.7.2h0Z"/>
            <path id="polonia" class="st2" d="M634.6,123.8h-.3l1-4.5c.2-.7,0-1.4-.6-1.9-1.3-1.1-3.6-3.1-3.6-3.6s1.5-6.3,1.5-6.3c.3,0,.5-.3.6-.7l1.2-3.6c0-.4.5-.7.9-.8l2.5-.3c.2,0,.3,0,.5-.2l6.1-3.9s.2,0,.3,0l2.1-.6c.5,0,1.1,0,1.3.7l1.5,3.6c.2.4.6.7,1,.7h4.1c.3,0,.7-.2.9-.4l1-1.3c.2-.3.6-.4.9-.4l8.5.4c.4,0,.8.3,1,.6l4,7.8c0,.3.2.6,0,.9l-1,2.9v.7l1.2,3.5,1.2,4.2c0,.2.2.4.4.5l2.1,1.8c.3.2.4.5.4.9v1.2c0,.4-.2.8-.6,1l-4.9,2.8c-.4.2-.6.6-.6,1v3l-13.9-.2c-.2,0-.5,0-.7-.2l-5.6-4.3c-.2-.2-.5-.2-.7-.2l-5.3.2c-.7,0-1.2-.5-1.2-1.2v-1.3c0-.5-.4-1-.9-1.1l-6.3-1.3h0Z"/>
            <path id="alemania" class="st2" d="M604.3,142.1l2-5.5c.2-.6,0-1.3-.8-1.5l-5.4-1.5-3.5-4.7,1.4-4.9v-.8h0l.4-5.1c0-.5.3-.9.8-1,1.4-.4,4.3-1.2,4.3-2s-1.2-6.8-1.2-6.8l4-.9c.5,0,.9-.6.9-1.1v-6.6c0-.2,0-.3,0-.5l-2.7-5.4c0-.3-.2-.6,0-.9l2.7-7c0-.2.2-.3.4-.5l5.7-4.5c.6-.5,1.6-.2,1.8.6l.8,3.4c0,.3,0,.7-.2.9l-1.5,2c-.3.5-.3,1.1.2,1.5l1.6,1.4c.5.4.5,1.1,0,1.5l-2.3,3c0,.2-.2.4-.2.7l-.2,5c0,.4.2.8.6,1l5.3,2.6c.3.2.8.2,1.1,0l3.7-2.3c.4-.3.9-.2,1.3,0l6.1,5.1c.4.3.8.3,1.2,0,0,0-1.5,5.7-1.5,6.3s2.3,2.5,3.6,3.6c.6.5.8,1.2.6,1.9l-1,4.5h0c0,0-.2,0-.3,0l-9.7,3.4c-.5.2-.8.6-.8,1.1s.2.9.7,1.1c.7.3.9,1.1.5,1.7l-.3.5c-.4.5-.2,1.2.3,1.6l5.8,4.3-4,2.2c-.5.3-.8,1-.5,1.5l.4.9c.4.8-.2,1.7-1,1.7h-13.3c0,0-.3-.1-.4-.1l-7.7-1.1h0c0-.2.2-.3.2-.4h.1Z"/>
            <path id="países-bajos" class="st2" d="M602.2,108.3s1.2,5.8,1.2,6.8-2.9,1.6-4.3,2c-.5,0-.8.5-.8,1l-.4,5.1c-.2-.3-.4-.5-.8-.5l-6-.9-3.2-3.6,3.3-5c0-.2.3-.3.5-.4l8.9-4.1h.2l1.5-.3h-.1Z"/>
            <path id="bélgica" class="st2" d="M596.5,128.8l3.5,4.7-3.7-1h0l-7-2.9c-.2,0-.3-.2-.5-.3l-4.6-5.6h-.6c.4,0,.7-.2.9-.5l3.3-5,3.2,3.6,6,.9c.3,0,.6.3.8.5h0c0,.2.2.5,0,.8l-1.4,4.9h.2Z"/>
            <path id="francia" class="st2" d="M588.9,175v.6h0l-1.8-.8h-.4l-1,.7h-.4l-1.1-.4h-.4l-.7.5c-.2.1-.5,0-.6-.1l-.2-.3c0-.2-.3-.2-.5-.1l-.6.3h-.9c-.2,0-.4-.1-.4-.3,0-.6-.3-1.7-.5-1.9s-1.9-.4-2.8-.5c-.2,0-.5.2-.5.4v.6c0,.2-.2.4-.4.4h-2.2l-1.1-.8h-2.1l-1.2-.5s0,0-.2-.1l-.9-1.2s-.2-.2-.3-.2l-1.5-.2h-.2l-1.6-1.1,1.4-.6,2.6-12.8h0v-2.7c0-.4-.2-.7-.5-.9l-3.7-2.4c-.3-.2-.5-.6-.5-.9v-3.3c0-.5-.3-1-.8-1.1l-9.3-2.5c-.6-.2-.9-.8-.8-1.3l.7-2.8c0-.4.4-.7.8-.8l5.6-1.4c.3,0,.6,0,.9.2l3.1,2.1c.2.1.5.2.7.2h1.5c.6-.2,1.1-.7,1-1.3l-.3-2.9c0-.2,0-.4-.2-.5l-1.4-2c-.4-.6,0-1.4.5-1.7l.8-.3c.5-.2,1,0,1.3.4l2.7,4c.3.4.8.6,1.3.4l1.9-.6c.5-.1.8-.6.8-1.1v-1.8c0-.6.4-1,1-1.1l3.8-.4c.5,0,.9-.4,1-.9l.8-4.3c0-.5.6-.9,1.1-.9h1.9l4.6,5.6c0,.1.3.3.5.3l7,2.9h0l3.7,1,5.4,1.5c.7.2,1,.9.8,1.5l-2,5.5c0,.1,0,.3-.2.4s-.2.2-.4.3l-3,1.4c-.4.2-.7.6-.7,1v1.5c0,.4-.2.7-.4.9l-1.9,1.5c-.3.2-.4.6-.4.9v1.5c0,.6.5,1.2,1.2,1.2h2.7c.6,0,1.1.5,1.2,1.1v3.8c0,.5-.1.9-.5,1.1h-.3c-.6.5-.8,1.3-.4,1.8l3.9,5.6-1.2.2c-.3,0-.6.2-.7.4l-2.6,3.2c-.3.4-.9.5-1.4.3l-4.1-2.2c-.4-.2-.9-.2-1.3.2l-1.4,1.2c-.3.2-.6.3-1,.3l-2.5-.5c-.6-.1-1.2.3-1.3.9l1.5,5.2v-.5Z"/>
            <path id="reino-unido" class="st2" d="M581,115.6v3.9c0,.4-.3.8-.6.9l-4.3,1.6c-.2,0-.4.2-.5.4l-2.2,3.2c-.2.2-.4.4-.7.4l-12.8,1c-.3,0-.6.2-.8.4l-1.5,2.3c-.3.4-.9.6-1.3.3l-1.9-1c-.3-.2-.6-.2-.9,0l-3,1.6c-.7.3-1.4-.1-1.4-.9s.2-.6.4-.8l6.9-4.7c.3-.2.5-.7.4-1.1l-.6-2.2c0-.4-.4-.6-.8-.7l-2.3-.5c-.9-.2-1.1-1.3-.3-1.8l2.5-1.6c.2-.2.4-.4.4-.7l.9-6.6c0-.4.3-.7.7-.8l2.6-.8c.4,0,.7-.5.7-.9v-5.2c0-.5-.3-.9-.8-1l-6.2-1.2c-.5,0-.8-.5-.8-1v-5c0-.4-.3-.8-.7-.9l-2.2-.7c-.4,0-.7-.5-.7-.9v-3.9c0-.3,0-.5-.3-.7l-2.3-2.3c-.3-.3-.4-.8,0-1.2l4.4-6.7c.2-.2.4-.4.7-.4l7.9-.9c.6,0,1.1.4,1.1,1v.6c0,.3-.2.6-.4.8l-2.1,1.4c-.8.5-.5,1.7.5,1.8l4.3.4c.4,0,.8.3.9.7l.3,1.3c0,.3,0,.5,0,.8l-3,4.6c-.3.4-.2.9,0,1.2,1.3,1.3,4.4,4.2,4.8,4.4.5,0,.9,4.6,1,6.4,0,.4.3.8.8.9l3.2.8c.3,0,.6.3.7.6l3,8.1v4.2c0,.6.6,1.1,1.2,1l3.9-.8c.6,0,1.2.3,1.2,1h0Z"/>
            <path id="irlanda" class="st2" d="M549.4,99.5c.3.3.4.8.2,1.2l-2.3,3.7c-.2.2-.2.5,0,.8l1.8,5.6c0,.4,0,.8-.3,1.1l-4.3,3.6s0,0-.2,0l-4.9,2.5h0l-4.3,3c-.3.2-.8.2-1.1,0l-3.4-2.4c-.5-.3-.5-1-.2-1.4l3.9-5c.2-.3.3-.7,0-1l-1.3-2.9v-4.8c0-.5.5-.9.9-.9l3.5-.6c.4,0,.7-.3.8-.7l1-3.2c0-.3.4-.6.8-.7l5.8-1.1c.3,0,.6,0,.9.2l3,2.8h-.2Z"/>
            <path id="egipto" class="st2" d="M741,283.3h-13.2l-3.3,1.2h-34.5c-.5-12.9-1.2-37.2-1.2-37.2l-1.7-2.7,1.4-2.8-.2-3.6,10.5,1.9,8.1,1.7,7.2-2.9,7,.7,6.7.7,2.2-1.4,3.6,9.5-2.2,6.9-2.7.5-4.5-5.5-3.6-3.4-1.4,1.6,3.8,5.4s4.8,4.8,5,5.8.9,5.2.9,5.2l6.9,8.5v2.2l-1,.3,1,3.9s4.3,2.1,4.8,2.4c0,0,.3.4.5.9v.2Z"/>
            <path id="sudán" class="st2" d="M750.9,302.4l-6.7,5.6-1,10.7-66.2,21.3h-3.9c0,.1,4.1-5,4.1-5h4.7l.8-3-1.7-.8-.9-3.8h-2l-.9-1.5,1.4-2.4v-2.4l4.1-5.1v-3.3h3.9v-20.3s3.9.3,3.8,0c0,0-.2-3.3-.3-7.9h34.5l3.3-1.2h13.2c.6,1.3,1.4,3.6,1.4,3.6l2.2,11.6,6.4,3.9h-.2Z"/>
            <path id="camerún" class="st2" d="M686.6,295.3v17.3h-3.9v3.3l-4.1,5.1v2.4l-1.4,2.4.9,1.5h2l.9,3.8,1.7.8-.8,3h-4.7l-4.1,5.1-28.6,1,.2-3.2h5.5l-2.6-3.9-1.1-6.2-3-3.4h0l-2-2.2v-4.6l8.4-9.6-.2-10.8,1.9-4.8-3.4-4.1s-.2-3.4,0-3.8-1.7-5.8-1.7-5.8l4.6-1.9,35.7,18.6h-.2Z"/>
            <path id="nigeria" class="st2" d="M648,288.3l3.4,4.1-1.9,4.8.2,10.8-8.4,9.6v4.6l-4.1,2.7s-4.1-1.1-4.6-1.3-6.2,0-6.2,0l-1.9,2.7-5.1-2-2.1-1.1-2.8.2-2.7.9-3.9-3.1h-7.9l-2.2,7,1.7,2.6-1.7,7.6-3.1,4.6.7-25.3v-6.5l7.3-1.5,7.8-7.8,7.6-4.5,7.3-7.6,7.9-11.9,9.2,2.5,3.8-1.6s1.9,5.5,1.7,5.8c-.2.4,0,3.8,0,3.8h0Z"/>
            <path id="libia" class="st2" d="M690.3,292.4c.2.3-3.8,0-3.8,0v2.9l-35.7-18.6-4.6,1.9-3.8,1.6-9.2-2.5-4-5-5.6-2.9-3-5,4.8-4.6-1.8-4.2-1.8-8.6,3.3-3-.7-4.6,2.8-1.5.3-1.7,3.4-.6-.6-4.1,1.4.6s11.6.6,12.5.8,3.3,2.7,3.3,2.7l1.9,4.6,6,.7s7,6,7.8,5.7,4.5-5,4.5-5l-1.7-6,4.5-3.7,8,1,2.1,3.5,7.5,1.5.2,3.6-1.4,2.8,1.7,2.7s.7,24.3,1.2,37.2c.2,4.6.3,7.8.3,7.9h.2Z"/>
            <path id="letonia" class="st2" d="M683,88.3l3.6,5.6-5,3.5-5.2-2.9-4.7-1.9-2.4,1.9-2.2-1.9-7.4,1.9c-.8-.3-1.4-.5-1.4-.6-.2-.2-3.7-7.1-3.7-7.1,0,0,5.9-2.3,5.1-2.9-.8-.6-.9-4,0-4.2s5.3-.6,5.1,0-1.5,5.2,0,5.2,3.8-1.9,5-2.8l3.2,3.2h6.3l3.6,3h.1Z"/>
            <path id="lituania" class="st2" d="M666.1,100.6h-1.3v-4.2s-3.1-1.1-5.1-1.9l7.4-1.9,2.2,1.9,2.4-1.9,4.7,1.9,5.2,2.9-3.8,2.7-.2,4.9-6.5,4-4-7.8c-.2-.4-.5-.6-1-.6h0Z"/>
            <path id="bielorrusia" class="st2" d="M705.5,108.9l-1.2,3.3h-2.8l-1.2,1.3,2.6,2.3v4l-3.5-1.5-2.1,5-13-1.4-5-2.1-6.5,2.1c-.2,0-.3-.3-.4-.5l-1.2-4.2-1.2-3.5v-.7l1-2.9c0-.3,0-.6,0-.9l6.5-4,.2-4.9,3.8-2.7,5-3.5,9.3,2.5,1.5,4.9,8.2,7.6v-.2Z"/>
            <path id="rusia" class="st2" d="M704.4,112.2l1.2-3.3-8.2-7.6-1.5-4.9-9.3-2.5-3.6-5.6-3.6-3,4.7-3.6-4.7-5.1,2.3-4.5-1.6-4.1,1.6.5,3.7-3.6h4.8l-8.6-7.1-10.3,6.3-6.1.4-8.9-3.6-3.1-11.7,1.4-7.8,8.7-8.6,4-1.5-.2-7.1-7.2-3.1-6.8,3.4-1.4,8.2,1.4,3.1-13.6,13.6.8,11.3,6,4.2v5.7l-4.1,3.7-2.7,4,1.4,4.4-3.6,4.4v5.5l-6.5,1.3-3.9.8-4.6-8.6-2.3-13.6-4.4-1.1-8.6,9.1-7.3-3.4-2.9-8,.7-10.3-3.9-6.1,5-6.1,8.4-3.2,8.6-5.2,6-19.9,11.2-14.7,4.3-11.5,15.7-10.1,19.7-.8,8.7,1.1s-4.2,3.8-3.6,4.2c.6.4,10.1,5,11.1,5s9.9,0,12.4,1.1,20.3,12.8,20.3,12.8l-2.5,10.3s-6.7,2.9-7.3,2.7-12.8-5.9-12.8-5.9l-7.3-2.1s-1.3,1.9-.8,2.5,8.8,5.9,9,6.5,4.2,11.1,4.2,11.1l7.3,4s10.9,2.7,16.1,5.2c5.2,2.5,36.9,56.6,36.9,56.6,0,0-4.2,27.3-4.2,29.5s-10.1,30.9-10.1,30.9l-14.1,1.3-7.1-3.9,3.4-4.3,1.3-6.6-2.3-3,6.7-1.4s-1.4-3.8-1.9-4.3c-.5-.6,3.5-3,3.5-3l-1.6-3.5h-4l-6.1-2.3h-8.2l-1.6-6h-5.6l-3.1-6.2h-9.2l1.2-1.3h3.2Z"/>
            <path id="ucrania" class="st2" d="M669.3,133.5v-3c0-.4.2-.8.6-1l4.9-2.8c.4-.2.6-.6.6-1v-1.2c0-.3,0-.6-.4-.9l-2.1-1.8,6.5-2.1,5,2.1,13,1.4,2.1-5,3.5,1.5v-4l-2.6-2.3h9.2l3.1,6.2h5.6l1.6,6h8.2l6.1,2.3h4l1.6,3.5s-4,2.4-3.5,3,1.9,4.3,1.9,4.3l-6.7,1.4-10.9,5.9-2.5,4.7,3.4,1.3,4.4-1.3-.6,4.3s-5.5.1-6.1.9-3.8,2.7-3.8,2.7c0,0-1.7-4.5-2.3-4.7-.6-.3-2.5-.3-2.5-.3l.4-3,3.4-1.1-.2-1.5h-6.5l-2.9-3.4-4.8,3.4-1,7.4-4.4-1.7c-.4-.2-.7-.6-.7-1v-4c0-.3,0-.5-.3-.7l-6.8-7.6c-.3-.3-.7-.4-1.1-.4l-7.2,1.6h-.3l-7.2-.4h-.4c0,0-.2-.1-.3-.2l-2.4-2.2c-.2-.2-.3-.4-.3-.6v-.7l1.7-4v-.2.2Z"/>
            <g>
              <polygon class="st2" points="735.9 233.9 737.8 243 733.6 248.5 730 239 731.3 235 732.7 229.4 736.7 223.3 739.7 226 737.8 227.3 735.7 232.7 735.9 233.9"/>
              <path class="st2" d="M749.7,229.4l2.3,6.5-7.9,3.6,4,4.7-1,4.2h-3l-4.3,3.6-7-.9.9-2.7,4.2-5.5-1.9-9.1h3.8s1.4,2,1.9,1.1c.2-.4,3.9-3,7.8-5.8v.2h.2Z"/>
              <polygon class="st2" points="796.8 246 793.8 249.2 794.4 252.8 790.9 254.2 784 251.3 786.4 247.3 790.9 247.3 796.8 246"/>
              <polygon class="st2" points="834.4 266.8 834.4 273.9 832.4 277.7 830.8 281.4 827.9 284.5 818.8 284.5 816.4 281.9 814.3 276.8 822.9 277.7 825.3 275.2 829.2 272.1 832.1 265 834.4 266.8"/>
              <polygon class="st2" points="847.9 278.7 853.2 284.5 851 292.2 846.3 298.5 840.7 305.3 838.2 309 835.4 309 834.5 312 831.6 314 826.3 313.8 824.1 314.6 820.8 310.9 820.8 308.2 817.4 305.5 817.4 301.5 823.4 299.7 829.8 298.5 830.8 286.6 827.9 284.5 830.8 281.4 832.4 277.7 834.4 273.9 834.4 266.8 835.7 267.8 837.2 273.3 841.4 278.7 847.9 278.7"/>
              <polygon class="st2" points="820.8 310.9 824.1 314.6 820.2 316.1 816.4 321.1 799 327.4 792.2 330.5 787.8 330.3 786.2 332.9 781.6 332.9 776.9 332 775.5 328.1 773.3 316.1 776.4 314.6 776.4 310.3 779.3 309 781.9 311.7 785.9 311.7 789.9 314.6 792.3 316.1 794.7 314.6 799.4 307.4 815.6 302.1 817.4 301.5 817.4 305.5 820.8 308.2 820.8 310.9"/>
              <path class="st2" d="M830.8,286.6l-1,11.9-6.4,1.2-6,1.9-1.9.6-16.2,5.3-4.6,7.3-2.4,1.5-2.4-1.5-4-2.9h-4l-2.6-2.8-2.9,1.3v4.3l-3.1,1.5-.3-1.5-3.5-4.3-3.2-5.4-4.3-7.6-4.3-.7s-2.9-4.5-3.4-5,0-7,0-7l-3.4-5.8h-4.3l-1.9-3.5s.2-3,0-3.5-4.6-6.7-4.6-6.7l-8.7-9.6,1.4-4.2,7,.9,4.3-3.6h3l1-4.2-4-4.7,7.9-3.6h5.1l18.9,12.6,2.4,3.6,5.6-.8,6.9,2.9,3.5-1.4,3.2.6.8,4.3,3.7,2.2,3,5.8,2.6,5.6,1.8-1-.6-4.6,3-.7,1.8,2.6-1.1,4.5,1.7,4.6,2.1,5.1,2.3,2.6h9.1l2.9,2h.1Z"/>
            </g>
          </g>
        </g>
      </g>
      <path class="st1" d="M560.3,303.2c65.5,0,118.5-53.1,118.5-118.5s-53.1-118.5-118.5-118.5-118.5,53.1-118.5,118.5,53.1,118.5,118.5,118.5"/>
    </g>
  </g>
  <g id="espana">
    <g>
      <path id="españa1" class="st5" d="M539.5,202.4h-1l-1-1.8.4-1.4,1.7-2.1-.5-.9h-1.1l-.3-1.9-1-1.3,2.5.2.8-2.1-.8-.9.6-.9h.6v-1.7l.6-1.8-.9-1,1-.9.7-.9,1-.2,1.2-1.7-.8-.6-.8.5-.5-.5.5-1.3-2.1-.5h-1.1v1h-1.8l.2-.6-1.3-.2-1.5.8-.4-.7.7-.7v-.3h-.7l.3-.6-2.3.5v.5c0,.1-1.1.8-1.1.8l-.3-1.4c0-.1,0-.3,0-.4l.8-.6c0-.1.2-.3,0-.4l-.7-2.5c0-.1,0-.2-.3-.3l-1-.3c-.2,0-.3-.2-.3-.4v-1.3l1.1-1.6c0-.1.2-.2.3-.2h2c0,0,.3-.1.3-.2l1.3-2c0-.1.2-.2.3-.2h2.7l1.7,1.3h.2l4.4.4h.3l1.5-.9c.2-.1.4,0,.5,0l.9,1.1s.2.1.3.1l5.4.9h.2l3.3-.7h.3l1.5.7h.3l1-.4h.3l2.7,1.2h.3l1.5-.7,1.6,1.1h.2l1.5.2c0,0,.2,0,.3.2l.9,1.2s0,.1.2.1l1.2.5h2.1l1.1.8h2.2c.2,0,.4-.2.4-.4v-.6c0-.3.2-.4.5-.4.9.1,2.6.4,2.8.5s.4,1.3.5,1.9c0,.2.2.3.4.3h.9l.6-.3c.2,0,.4,0,.5.1l.2.3c0,.2.4.2.6.1l.7-.5h.4l1.1.4h.4l1-.7h.4l1.8.8c0,.2-.2.3-.3.3-.3,0-.4.4-.3.6l.5.7v.3l-.2,1.2c0,.1,0,.2-.2.3l-3.7,1.7c0,0-.2.1-.2.2l-.5,1.3c0,.1-.2.2-.3.3l-4.8,1s-.2,0-.2.1l-1.1,1.2c0,.1-.2.4,0,.5l.4.6c0,.2,0,.5,0,.6l-1.3.7s0,0-.2.1l-4,6.5v.3l.7,2.5s0,.2,0,.2l1.9,1.6c.2.2.2.5,0,.6l-2.5,1.8h0c0,.1-1.7,3-1.7,3v.3l.5,1.6c0,.3,0,.6-.4.5h-1.9c0-.1,0-.1-.2-.1l-2.4.9c0,0-.2.1-.2.2l-1.1,3.1s0,.1,0,.2l-1.3,1c-.2.2-.5.1-.6,0l-.2-.4c0-.1-.2-.2-.3-.2h-.2c0,0-.3,0-.4.2l-.7,1.1c0,.1-.2.2-.4.2h-.6c0,0-.2,0-.3-.2l-.4-.5c0-.1-.2-.2-.4-.2h-1.5c0,.1-4.6.1-4.6.1-.2,0-.3,0-.4.2l-.5.9c0,.1,0,.2-.3.2l-.6.2h-.3l-1-.5h-.3l-1.2.4c0,0-.2.1-.3.3l-.5,1.7c0,.1,0,.2-.3.3l-1.8.5h-.4l-2.8-2.5s0-.2,0-.3v-2.5c0-.2,0-.3-.3-.4l-4-1.8h-.5l-1.5-2.2v-.2l1-1.4h0l.5-1.2s0-.1.2-.1h1s.2,0,.2-.2l.3-.9s0-.2.2-.2h.2Z"/>
      <g id="islas">
        <polygon class="st10" points="485.9 258.6 486.2 259.4 485.7 260.6 485.3 260.7 484.6 259 485.9 258.6"/>
        <polygon class="st10" points="485.3 265.2 485.1 265.9 484.4 265.3 484 264.8 484.7 264.5 485.2 264.1 485.8 264.6 485.3 265.2"/>
        <polygon class="st10" points="488.5 262.2 489.2 262.9 488.6 263.5 487.6 263.2 487.8 262.5 488.5 262.2"/>
        <path class="st10" d="M494.1,260.4v.3l-.4.4s-.1.2,0,.3l.2,1c0,.1,0,.3-.1.3l-.5.4h-.3l-1.5-.5c-.1,0-.2-.1-.2-.2v-.8l2.2-2c.2-.1.4,0,.5,0l.3.7h-.2Z"/>
        <path class="st10" d="M498.4,264.4c0,.2-.1.3-.3.3h-1.2c-.1.1-.3,0-.3,0l-.4-1v-.3l.5-1s0-.1.2-.1l.5-.2c.2,0,.3,0,.4.2l.4,1h0v1.1h.2Z"/>
        <polygon class="st10" points="507.4 256.6 507.5 255.9 508.2 255.9 508.1 256.6 508 257.5 507.1 257.6 506.9 258.2 506 258.2 506 257.3 506.8 256.7 507.4 256.6"/>
        <polygon class="st10" points="504 261.8 504 260.8 504.9 259.5 505.9 258.8 506.3 259.6 506.1 261.4 504.4 262.2 503.5 263.2 502.4 263.1 502.8 262.4 504 261.8"/>
      </g>
    </g>
  </g>
  <g id="puertorico">
    <path class="st6" d="M405.8,232.8l-1.1,2.2-3.7-.9s-4.4,1.9-4.6,2c-.2,0-5-1.5-5-1.5l-.6-2,1.3-1.5,1-2.1,8.7.9s0,2,.5,1.9,3.5,1,3.5,1h0Z"/>
  </g>
  <g id="republicadominicana">
    <polygon class="st6" points="385.8 229.1 385 231.1 383.5 230.8 382.8 232 379.7 231 374.2 230.4 371.3 232.6 368.3 233 368.5 230.6 367.1 229.9 365.5 232.2 363.2 231.7 363.6 233.6 360.8 237.3 357.3 236.1 358.5 234.6 357.8 233 357.1 233 357.9 231.1 358.3 229.7 358.7 228.3 357.5 226.6 358.3 224.7 359.8 224.1 359.8 221 360.5 219.6 363.3 220.4 365.5 219.3 373.8 220.4 374.4 222.1 378.4 222.1 378.4 224.1 372.2 222.8 371.8 224.1 374.9 225.1 378.4 226.6 382.3 226.6 385.8 229.1"/>
  </g>
  <g id="haiti">
    <polygon class="st6" points="359.8 221 359.8 224.1 358.3 224.7 357.5 226.6 358.7 228.3 358.3 229.7 356.9 229.3 355.2 227.5 353.3 227.2 352.2 224.1 353 222.3 347.1 220.4 348.2 219.4 352.1 219.8 353 219.3 356 219.7 357.2 220.9 359.8 221"/>
    <polygon class="st6" points="358.3 229.7 357.9 231.1 357.1 233 354.6 232.8 351.3 233.6 348.9 232.6 346.4 232.6 344.3 234.5 342.4 232 341.2 232 339.9 230.2 342 228.5 343.9 229.5 347.5 228.9 348.9 230.1 350.5 229.8 355.7 230.1 356.9 229.3 358.3 229.7"/>
  </g>
  <g id="cuba">
    <path class="st6" d="M342.2,213v2c0,.7-.6,1.3-1.3,1.3h-6.4l-7.5,2.3h-6c-.6,0-1.1-.4-1.2-1l-.3-1.3c0-.5,0-.9.5-1.2l1.5-1.2c.8-.6.6-1.8-.3-2.2l-5.8-2.2c-.3-.1-.5-.3-.7-.6l-2.9-5.2c-.2-.4-.6-.7-1.1-.7h-7c-.2,0-.4,0-.6-.2l-3.9-2.3c-.3-.1-.5-.2-.8-.2l-7.9,1.3c-.5,0-1-.2-1.3-.6l-1-1.8c-.3-.5-.2-1.1.2-1.5h0c.8-.8.3-2.2-.9-2.2h-5.6c-.2,0-.5,0-.7.2l-6.2,4h0l-6.1,3.3c-.6.3-1.3.1-1.7-.5l-.5-.9c-.3-.5-.2-1.1.2-1.5l5.9-5.8s.2-.1.3-.2l9.4-5.2c.1,0,.3-.1.4-.1l14.6-2.1c.3,0,.7,0,1,.3l11.3,8.9c.2.1.3.2.5.2l5.6,1.1c.2,0,.3,0,.5.2l10.3,7.1s.2.1.3.2l11.2,3.7c.2,0,.4.2.5.3l3.2,3.5c.2.2.3.5.3.8h0Z"/>
    <path class="st6" d="M284.4,206.6l-2.5.9h-.6l-1.8-.3c-.6-.1-1-.6-1-1.2v-2.6c0-.4.2-.8.6-1l3.1-2.1c.5-.3,1.1-.3,1.5.1l2,1.8c.4.3.5.8.4,1.3l-.8,2.4c-.1.4-.4.7-.8.8h-.1Z"/>
  </g>
  <g id="canada">
    <path class="st9" d="M504.7-75.3l-7.3-13.1c-.2-.4-.5-.6-.9-.8l-16.3-6.2c-.4,0-.7-.4-.9-.8l-6.1-10.6c-.4-.7-.3-1.6.3-2.1l4.7-4.9c.5-.5.6-1.2.4-1.8l-6.4-17.7v-.4l-2.2-21.7c-.1-1.2-1.4-2-2.5-1.4l-2.5,1.1c-.4.2-.7.5-.9.9l-6.6,15.4c-.2.4-.5.8-.9.9l-12,5.1c-.5.2-1.1.2-1.6-.1l-5.6-3.5c-.5-.3-.8-.8-.8-1.3l-1.6-12.3v-.7l3.8-12.6c.3-.9-.2-1.9-1.1-2.2l-8.4-3.1c-.4-.2-.7-.4-1-.8l-9-17c-.4-.8-1.4-1.1-2.2-.8l-5.2,1.9c-.4.2-.9.1-1.3,0l-13.1-5.9c-.6-.3-1.3-.2-1.9.2l-5.2,4.3c-.5.4-.8,1.1-.6,1.8l1.7,7.2c.2.6,0,1.3-.6,1.7l-5,4.5c-.5.4-.7,1.1-.5,1.8l2.3,8.7v1.1l-2.4,6.4c-.1.3-.3.5-.5.7l-8.2,7.3c-.4.3-.6.8-.6,1.3v5.3c0,.4.2.9.5,1.2l4.3,4.8c.3.3.4.7.5,1.1l.4,13.3c0,3-1.2,5.9-3.4,7.9l-9.5,8.5c-.2.2-.4.3-.7.4l-7.7,2.4c-2.2.7-3.7,2.6-3.8,4.9l-1.3,22.6c0,1.2-.5,2.4-1.4,3.3l-5,5.6c-1,1.2-2.5,1.8-4.1,1.8h-.2c-2.1,0-4-1.2-4.9-3.1l-5.9-12.6c-.6-1.3-.7-2.9-.2-4.3l6.8-17.9c.3-.8.4-1.7.3-2.6h0c-.3-2.7-2.7-4.8-5.4-4.8h-11.9c-1.4,0-2.8-.5-3.8-1.5l-9.5-9.1c-.4-.3-.7-.7-1-1.1l-7.7-10.6c-1.1-1.5-2.7-2.6-4.5-3.1l-6.4-1.7c-.6-.2-1.2-.1-1.7,0l-10.7,4c-1.8.7-3.8-.7-3.8-2.6s.6-2,1.6-2.5l6.2-3c1-.5,1.6-1.5,1.6-2.6l-.2-10.2c0-1.1-.7-2.1-1.8-2.5l-5.2-2c-1.3-.5-2-1.8-1.7-3.1l3.3-17.2c.1-.6.5-1.2,1-1.6l26.8-22.2c.7-.6,1-1.6.6-2.5l-2.4-5.4c-.4-.9-.1-1.9.6-2.5s1.7-.6,2.5-.1l6,4c.9.6,2.1.4,2.8-.4l9.8-11.4c.5-.6,1.3-.9,2.1-.7l4.8,1.2c.7.2,1.4,0,1.9-.5l15.3-13.2s.2-.1.2-.2l10.9-12.7c.4-.5,1-.7,1.6-.7h13.4c.5,0,1-.2,1.4-.5l15.8-13.8c.5-.4.8-1.1.7-1.8l-1.1-11c0-.5,0-1,.4-1.4l1.9-2.7c.4-.6,1-.9,1.7-.9h4.7c1.1,0,2-.8,2.1-1.8l1-8.1c.1-.9-.4-1.9-1.3-2.2l-15.4-6.2c-.9-.4-2,0-2.5.8l-2.6,3.8c-.3.4-.4.9-.3,1.4l.5,4.4c0,.6-.1,1.2-.6,1.7l-16.3,17.2c-.6.6-1.5.8-2.3.5l-5.1-1.9c-1.1-.4-1.7-1.7-1.2-2.8l5.1-11.6c.2-.4.2-.9.1-1.4l-1.8-7.1c-.4-1.6-2.5-2.1-3.6-.9l-3.7,4c-1.1,1.2-3.1.7-3.6-.8l-.6-2.1v-7.8c0-.6-.2-1.1-.6-1.5l-3.6-3.4c-.8-.8-.9-2.1-.1-2.9l6.7-7.7c.4-.4.6-1,.5-1.6l-2.3-24.8c0-.7.2-1.4.8-1.8l6.3-4.9c.4-.3.7-.9.8-1.4l.8-6.5c0-.7.5-1.2,1-1.6l2.4-1.4c.6-.3,1.2-.4,1.8-.1l6.6,2.6c.8.3,1.6.1,2.2-.5l15.7-15.5c.8-.7.8-1.9.2-2.8l-1.7-2.1c-.4-.5-1-.8-1.7-.8h-4.5c-.4,0-.8-.1-1.1-.3l-8.1-5c-.8-.5-1.7-.4-2.4.1l-12,9.7c-.3.3-.6.7-.7,1.1l-5,18.2c0,.3-.2.5-.4.7l-6.5,8.4c0,.1-.2.2-.3.3l-14.3,12.3c-.5.4-.8,1-.7,1.7l.2,5.6c0,.6-.2,1.2-.7,1.7l-4.7,4.1c-.8.7-1,1.8-.4,2.7l4.4,6.8c.5.7.4,1.7-.1,2.4l-1.7,2.2c-.8,1.1-2.4,1.1-3.3,0l-4-4.6c-.3-.4-.5-.9-.5-1.4v-2.8c0-1.2-.9-2.1-2.1-2.1h-3c-.9,0-1.7.6-2,1.4l-2.7,8c-.1.4-.4.8-.7,1l-4.1,3c-1,.7-1.1,2.1-.4,3l2.8,3.4c.9,1.1.4,2.7-.9,3.3l-4.8,1.9c-.4.2-.8.5-1,.8l-4,6.3c-.5.7-1.4,1.1-2.2.9l-15.5-3.5c-.3,0-.6-.2-.9-.4l-11.7-9.8c-.3-.3-.6-.6-.7-1.1l-2.8-10.2c-.3-1-1.2-1.6-2.2-1.5l-12.6,1.1c-1.1,0-1.9,1-1.9,2.1v2.5c0,1,.7,1.9,1.7,2.1l1,.2c2,.4,2.4,3.2.5,4l-2.5,1.1c-.5.2-.9.6-1.1,1.1l-2.4,5.8c-.3.8-1,1.3-1.9,1.3h-3.5c-.8.2-1.5-.3-1.9-1l-5.8-10.6c-.4-.8-1.3-1.2-2.2-1.1l-12.4,2.3c-.4,0-.9,0-1.2-.1l-12.1-5.4c-.9-.4-1.4-1.4-1.2-2.4l.8-3.5c.2-1,1.1-1.7,2.1-1.7l7.6.2c1.1,0,2.1-.8,2.1-2l.3-4.6c0-.6-.2-1.3-.7-1.7l-5.9-5.4c-.7-.6-1.7-.7-2.5-.2l-2.7,1.7c-.8.5-1.8.4-2.5-.2l-13-11.8c-.3-.3-.5-.6-.6-1l-2.1-7.6c-.2-.7-.8-1.3-1.6-1.5l-6.1-1.4c-.8-.2-1.6,0-2.1.7l-3.6,4.3c-.4.5-1.1.8-1.8.7l-1.8-.2c-1.4-.1-2.3-1.5-1.8-2.8l2.7-7.3c.4-1.2-.2-2.5-1.5-2.8l-2.1-.5c-.9-.2-1.9.2-2.3,1l-3.1,5.6c-.6,1.1-2.1,1.4-3.1.7l-1.3-.9c-.7-.5-1-1.4-.8-2.2l3.4-14.5c.3-1.2-.5-2.4-1.7-2.6l-1.6-.3c-1.1-.2-2.2.5-2.4,1.6l-.7,3c-.2.9-.9,1.5-1.8,1.6l-5.6.7c-.8,0-1.6-.3-2-1l-2-3.2c-.5-.8-1.4-1.1-2.2-1l-20.3,4.2c-.4,0-.8.2-1.2.4l-7.4,3.8c-.4.2-.8.4-1.3.4l-14.1,2.8c-.9.2-1.9-.1-2.6-.8l-6.9-7.2c-.7-.8-1-1.9-.6-2.9l1.3-3.8c.5-1.3,0-2.7-1.3-3.4l-12-6.5c-.6-.3-1.1-.9-1.3-1.5l-2.4-6.7c-.4-1.1-1.5-1.9-2.6-1.9h-9.2c-.7,0-1.4-.3-1.9-.7l-18.6-17.3c-.8-.7-1.9-.9-2.9-.6l-4,1.4c-1.7.6-3.5-.5-3.7-2.3l-1.3-10.6c-.1-1-.8-1.9-1.8-2.3l-7.3-2.7c-.7-.3-1.3-.9-1.6-1.6l-3.1-7.9c-.6-1.5-2.3-2.2-3.7-1.5l-8.1,3.6c-.5.2-1.1.3-1.7.2l-10.7-2.2c-.9-.2-1.9.1-2.6.8l-6.1,6.3c-.6.6-1.5.9-2.4.8l-11.5-1.6c-.7-.1-1.5,0-2.1.6l-22.2,17.2c-.6.5-1.4.7-2.2.6l-12.5-2c-1-.2-1.9.2-2.6.9l-6.7,7.8c-.7.8-.9,1.9-.5,2.9l4.7,11.5c.3.8.3,1.7,0,2.4l-4.5,8.2c-.5.9-.4,2,0,2.9l5.1,7.6c.4.5.5,1.2.5,1.8l-.9,8.7c-.2,1.6-1.6,2.7-3.1,2.5l-8.1-1c-2.1-.3-3.1-2.6-1.9-4.4l.6-.9c.7-1,.7-2.4-.2-3.4l-3.2-3.7c-.7-.8-1.8-1.2-2.8-.9l-6,1.5c-.9.2-1.6.8-1.9,1.7l-.7,1.8c-.4,1.1-1.5,1.8-2.6,1.8h-7.9c-.4,0-.7,0-1.1.2l-6.1,2.5c-1,.4-1.7,1.5-1.7,2.6v2.6c0,.3,0,.6.2.9l1.7,4.8c.2.6.2,1.3,0,1.9l-3,8.5c-.4,1-.1,2.2.7,2.9l5.7,5.7c.6.6,1.4.9,2.3.8l12.3-1.3c.3,0,.6-.1.8-.2l7.7-3.4c1.2-.5,2.5-.2,3.3.8l.9,1.1c1,1.2.8,2.9-.4,3.9l-5.1,4.1c-.6.5-1,1.2-1,2l-.5,6.8c0,1.4-1.2,2.5-2.5,2.6l-10.9,1c-.4,0-.7.1-1.1.3l-8.3,4.4c-.7.4-1.5.4-2.2.2l-5.4-1.8c-1-.3-2.1,0-2.8.7l-18.2,17.8c-.6.6-.9,1.5-.8,2.4l1.6,12.4c.1,1-.3,2.1-1.2,2.7l-3.3,2.3c-.9.6-1.3,1.6-1.2,2.6l1,8.9c.2,1.4,1.4,2.5,2.8,2.5h7.5c1.6,0,2.9,1.4,2.8,3.1l-.4,4c0,.6-.3,1.1-.6,1.5l-3.4,4.2c-.9,1-.8,2.5,0,3.6l4.6,5.5c.5.6,1.2.9,1.9,1l14.3,1.1c1.9.1,3.1,2.2,2.3,3.9l-3.3,7.3c-.2.4-.5.8-.9,1.1l-21.4,16.3-12.7,8.7c-.4.3-.8.4-1.3.5l-12.3,1.3c-.4,0-.8.2-1.1.4l-10.6,6.1c-.3.2-.7.3-1.1.4l-7.9.9c-1.2.1-2.2,1.1-2.4,2.3l-.4,2.1c-.3,1.7,1,3.2,2.7,3.3l8.8.2c.5,0,1-.1,1.5-.4l17.2-10.3c.7-.4,1.6-.5,2.3-.2l6.9,2.4c.8.3,1.7.2,2.4-.3l58-36.5c.3-.2.6-.3.9-.4l4-.8c1.5-.3,2.4-1.7,2.2-3.2l-.8-4.7c0-.8-.6-1.5-1.3-1.9-1.8-1.1-1.7-3.8,0-4.8l19.3-10.4s.2,0,.2-.1l12.5-8.4c1.1-.8,2.7-.6,3.6.4l.3.3c1.4,1.5.8,3.9-1.1,4.6l-9.2,3.2c-.6.2-1.1.6-1.5,1.2l-9,14.9c-.6,1-.5,2.3.2,3.2l1.1,1.3c.8,1,2.1,1.3,3.3.8l14-6.2c.8-.4,1.7-.3,2.5.1l5.2,3c.9.5,1.9.5,2.8,0l12.5-7.4c.9-.5,2-.5,2.9,0l8,4.7c.1,0,.3.1.4.2l12.6,4.9c.3.1.6.2.9.2l11.7.4c1.4,0,2.5,1.1,2.7,2.5L0-205.1c.2,1.4,1.4,2.5,2.9,2.5h4.5c.4-.2.7-.2,1-.4l7.4-3.3c1.5-.6,3.2,0,3.7,1.6l4.1,10.6c.2.6.2,1.2,0,1.8l-4.7,15.2c-.2.6-.2,1.2-.2,1.8l.8,8.1c0,.7.3,1.4.7,2l7.5,11.8c.3.5.3,1.2,0,1.8l-8.7,13.9c0,.1-.1.2-.2.3l-1.2,1.2c-.4.4-.6,1-.5,1.5l3.2,16c0,.2.2.5.3.7l8.6,11.5c.3.5.4,1,.2,1.6l-2.7,7.2c-.1.4-.1.8,0,1.1l3.4,9.4c.2.6,0,1.4-.5,1.8l-.7.6c-.6.5-1.4.6-2.1,0l-3.5-2.4c-1-.7-2.4,0-2.6,1.1l-1.1,5.8c-.1.6,0,1.1.5,1.5l11.3,10.5.2.2,6.3,4.2c.6.4,1.4.4,1.9,0l1-.7c.6-.5.8-1.3.5-2l-4.8-11.2c-.4-.8,0-1.8.9-2.2h0c.8-.4,1.8,0,2.2.8l7.3,15.2c0,.2.3.4.5.6v-1.6c0-1,.9-1.8,1.9-1.7l189.9,18.9c.5,0,1,.3,1.2.7l3.1,4.4c.4.5,1,.8,1.6.7l6.7-.8c.5,0,1.1,0,1.4.5l5.2,5.4c.4.4.9.6,1.4.5l5.3-.6c.3,0,.6,0,.9,0l33.6,15.4c.2.1.4.3.6.5l6.1,7.2c.2.2.3.5.4.8l4.5,24.2v.8l-2.6,8.2c-.1.5-.5.8-.9,1.1l-5.1,2.4c-.6.3-1,.9-1,1.6v1.5c0,1.1,1.1,2,2.2,1.7l26.7-7.2c.8-.2,1.3-.9,1.3-1.7v-2.3c0-.8.5-1.4,1.2-1.7l23.5-7.5c.5-.2.9-.5,1.1-1L360.8,0c.3-.7,1-1.1,1.7-1l23.2,1.6c.7,0,1.4-.3,1.7-1l1-2.1c.3-.6.9-1,1.6-1l4.6.2c.6,0,1.1-.2,1.5-.7l11-15c.3-.5.9-.7,1.5-.7l5,.2c.9,0,1.7.8,1.7,1.7V-4.9c0,.5.2,1,.6,1.3L420.1,0c.4.3.6.8.6,1.3v5.3c.1,0,.3,0,.4-.2l3.4-2.8c.2,0,.4-.3.6-.3l9.8-3.1c.8-.3,1.7,0,2.1.9l.7,1.2c.4.7.2,1.5-.3,2.1l-11,11.3c-.4.4-.6.9-.5,1.4l.5,4.8c0,.6.5,1.2,1.1,1.4l6.2,2.7c.8.4,1.8,0,2.2-.7l9.2-15.1c.2-.4.6-.7,1.1-.8l13.9-3.7c.1,0,.3,0,.4-.2l9.2-5.3c.6-.3.9-.9.9-1.6v-2.6c0-.8-.5-1.5-1.3-1.7l-2.2-.7c-.7-.2-1.3-.9-1.3-1.7v-2.6c0-1-.8-1.8-1.8-1.8h-1.7c-.6,0-1.2.3-1.5.8l-5.2,8.2c-.4.7-1.2,1-2,.8l-9-2.5c-.4,0-.7-.3-.9-.6l-6.4-8.1c-.4-.5-.5-1.2-.3-1.8l.3-.9c.4-1-.2-2.1-1.2-2.4l-7.5-2c-.9-.2-1.5-1.2-1.3-2.1s1-1.5,1.9-1.4l8.8.8c.5,0,1-.1,1.3-.4l4.2-3.6c.8-.7.8-2,0-2.7l-6.9-5.6c-.5-.4-1.2-.5-1.8-.3l-16.7,6.7h-.1l-7.9,3.9c-.8.4-1.8.1-2.3-.6l-1.3-2c-.6-.9-.3-2,.6-2.5l16.7-9.2c.2,0,.4-.3.5-.5l6-7.7c.4-.5,1.1-.8,1.7-.7l31.1,5.4h.7l15.5-3.5c.4,0,.8-.3,1.1-.7l4.7-6.6c.3-.5.9-.7,1.4-.7h5.3c.3,0,.5,0,.7-.2l11.2-5c.6-.3,1.1-.9,1.1-1.6v-12.9c0-.3,0-.6-.2-.9v.3Z"/>
  </g>
  <g id="estadosunidos">
    <path class="st8" d="M420.4,1.4v4.8c0,1-.8,1.8-1.8,1.7l-13.5-.4c-.4,0-.9,0-1.2.4l-14.2,12.4c-.5.4-.7,1-.6,1.6l1.8,9.6c.1.7-.2,1.5-.9,1.8l-6.7,3.6c-.2,0-.5.2-.7.2l-14.5.9c-.4,0-.7.2-1,.4l-3.5,3c-.4.3-.6.8-.6,1.3v7.2c0,.4-.1.8-.4,1.1l-5.6,6.6c-.1.2-.2.3-.3.5l-1.8,4.9c0,0-.1.3-.2.4l-2.3,3.3c-.6.9-1.8,1-2.6.3l-3-2.7c-.8-.7-2-.6-2.6.3l-4.1,6c-.5.7-.4,1.6.2,2.2l4.5,4.8c.3.4.5.9.5,1.4l-.9,8.7c0,.4-.2.7-.5,1l-8.6,8.8-.2.2-7,5.5c-.3.2-.6.3-1,.4l-5.7.4c-.6,0-1.1.4-1.4.9l-3.1,5.9c-.3.5-.8.9-1.3.9l-6.6.8c-.5,0-1,.4-1.3.8l-9.3,15.8c-.2.4-.3.9-.2,1.3l4.9,18v7.8l1.7,6.7v.5l-.5,9.6c0,.8-.6,1.5-1.4,1.6l-4.5.8c-.7.1-1.5-.2-1.8-.9l-8.8-15.8c-.1-.2-.2-.5-.2-.7l-.7-7.9c0-.4,0-.8.3-1.1l2-3.1c.4-.7.4-1.5-.1-2.1l-8.4-9.7c-.6-.7-1.7-.8-2.4-.2l-3.7,3c-.8.6-1.9.5-2.5-.3l-3.6-5.1c-.3-.5-.8-.7-1.4-.7l-22.6-.7c-.6,0-1.1.3-1.5.7l-2.6,3.7c-.3.4-.4,1-.2,1.5l.5,1.8c.2.7,0,1.4-.5,1.8l-3.3,2.8c-.3.3-.8.4-1.2.4-2.1,0-8.3-.4-8.5-1-.2-.5-1.9-3.6-2.9-5.5-.4-.8-1.4-1.1-2.2-.8l-3.1,1.4c-.3.1-.6.2-.9.1l-9.3-1.3c-.5,0-1,0-1.3.4l-10.2,8.5c-.3.3-.7.4-1.1.4h-6.7c-.5,0-1,.2-1.3.6l-5.5,6.5c-.3.3-.4.7-.4,1.1v13.7c0,.3,0,.7-.3.9l-3.2,4.9-1.5-3c-.3-.6-.7-1-1.3-1.3l-4.6-2.1c-.5-.2-.8-.7-.8-1.2l-.7-8.9c0-.4-.2-.8-.5-1.1l-5.1-5.3c-.2-.2-.4-.5-.4-.8l-1.5-8.2-4.6-3.6c-.5-.4-1.2-.7-1.9-.6h-6.2c-.7.1-1.3.5-1.6,1.1l-2.8,5c-.2.4-.6.7-1,.8s-.9,0-1.2-.2l-10.1-6.1c-.4-.3-.7-.7-.6-1.2l.6-4.2c0-.6-.1-1.1-.5-1.5l-5.2-5.1c0,0-.2-.3-.3-.4-.4-1.2-2.1-6.6-2.6-6.6s-7.9-.4-10.7-.6c-.6,0-1.1.3-1.3.9l-.5,1.5c-.2.6-.8,1-1.5,1l-17.3-1.1c-1.2,0-2.4-.4-3.4-.9l-22.4-10.4c-.6-.3-1.3-.4-2-.5-3.1,0-12.4,0-15.5,0s-.5,0-.6.3l-3.3-9.6c0-.3-.3-.5-.5-.7l-11.5-10.2c-.3-.2-.6-.4-.9-.4l-5.9-.7c-.9,0-1.5-.8-1.5-1.7v-6c0-.2,0-.5-.1-.7l-7.8-18.8c-.1-.4-.2-.8,0-1.1l1.8-6.6c.2-.6,0-1.2-.4-1.6l-5.8-6.6c-.4-.5-.5-1.1-.3-1.7.9-2.7,3.5-10.2,2.9-10.8-.6-.6-3.3-4.7-4.5-6.6-.4-.6-.4-1.4,0-1.9l5.1-7.4c.2-.3.3-.8.3-1.2l-1.8-16.5c0-.4,0-.7.2-1.1l14.6-24.9c.1-.2.2-.5.2-.8l1.1-27.9c0-.4.2-.8.5-1.1l1.4-1.5c.4-.5,1.1-.7,1.8-.5l7.5,2.2c.8.2,1.4,1.1,1.2,1.9l-1,6.8c0,1,.6,1.9,1.6,2l2.4.2c.8,0,1.6-.4,1.8-1.2l3-9.9c.2-.6,0-1.3-.4-1.7l-2.9-2.9c-.3-.3-.5-.8-.5-1.2v-1.3c0-1,.9-1.8,1.9-1.7l189.9,18.9c.5,0,1,.3,1.2.7l3.1,4.4c.4.5,1,.8,1.6.7l6.7-.8c.5,0,1.1,0,1.4.5l5.2,5.4c.4.4.9.6,1.4.5l5.3-.6c.3,0,.6,0,.9,0l33.6,15.4c.2.1.4.3.6.5l6.1,7.2c.2.2.3.5.4.8l4.5,24.2v.8l-2.6,8.2c-.1.5-.5.8-.9,1.1l-5.1,2.4c-.6.3-1,.9-1,1.6v1.5c0,1.1,1.1,2,2.2,1.7l26.7-7.2c.8-.2,1.3-.9,1.3-1.7v-2.3c0-.8.5-1.4,1.2-1.7l23.5-7.5c.5-.2.9-.5,1.1-1L360.7,0c.3-.7,1-1.1,1.7-1l23.2,1.6c.7,0,1.4-.3,1.7-1l1-2.1c.3-.6.9-1,1.6-1l4.6.2c.6,0,1.1-.2,1.5-.7l11-15c.3-.5.9-.7,1.5-.7l5,.2c.9,0,1.7.8,1.7,1.7V-4.9c0,.5.2,1,.6,1.3L420,0c.4.3.6.8.6,1.3h-.2Z"/>
  </g>
  <g id="mexico">
    <path class="st6" d="M252.6,205.3c.8,1,2.7,3.5,2.7,3.9s-5.3,4.8-5.3,4.8l-3.1,6.6c-.3.6-.1,1.4.4,1.8l1.5,1.1c.4.3.7.9.6,1.4l-.9,4.8s-3.2,1.8-4,1.8-.7-2.6-.7-4,0-.3-.2-.3h-.4l-2.7,2.3c-.2.2-.3.4-.3.7h-2.4l-.9,4.3-2.4-1.4h-1.7v2.5h-9.5c-.8,0-1.4.5-1.6,1.3l-.6,2.5-3,.3v1.7l4.5,2,1,2.3,2.2.7v1.9c-.2.3-.3.5-.5.7s-.5.3-.8.2l-7.4-.9c-.7,0-1.4.2-1.8.8l-3.7,5.8,2.4,3.8-4.2,1.9-3.4-4.5c-.1-.2-.3-.3-.4-.4l-10.4-8.1c-.4-.3-1-.4-1.5-.2l-11.4,4.2c-.5.2-1,.2-1.5,0l-13.2-3c-.4,0-.7-.2-1-.5l-6.4-5.2c-.2-.2-.4-.3-.7-.3l-9.4-2.7c-.5-.1-.9-.4-1.3-.7l-6.6-5.6c-.3-.2-.7-.2-.9,0l-1,1c-.4.3-.9.4-1.3.3l-6-2.3c-.3-.1-.5-.3-.7-.5l-4-6.6c-.2-.3-.5-.5-.8-.6l-5.6-1c-.4,0-.8-.4-1-.8l-3.3-8c-.2-.4,0-.8,0-1.1l3.5-5.2c.3-.4.3-.9,0-1.3l-2.5-5.4c0-.3,0-.6,0-.9l.8-2.8c0-.4,0-.7-.2-1l-8.8-12.4c0-.1-.2-.2-.4-.3l-6-3.6c-.2,0-.2-.2-.3-.4,0-.2,0-.3.2-.5l1.3-1.3c.3-.3.3-.7.2-1l-1-2.4c0-.3-.5-.5-.8-.5l-1.6.3c-.4,0-.7,0-1-.3l-1.6-1.4s0,0-.2-.1l-4.4-1.9c-.3-.1-.5-.5-.4-.9l1.3-3.6c0-.3.5-.5.8-.4l1.5.5c.3,0,.6,0,.8-.2l.7-.8c.2-.2.2-.5,0-.8-.8-1-3-3.6-3.4-3.8-.4-.1-2.6-.4-3.4-.4s-.5-.1-.6-.3l-3.7-3.9c-.3-.4-.4-.9-.3-1.3l.9-2.8c.2-.7,0-1.4-.8-1.7l-3.3-1.2c-.4-.1-.7-.4-.8-.8l-10.2-23.2c-.2-.5,0-1.1.5-1.4l2.1-1.1s.2,0,.2-.2,0-.2,0-.3l-10.5-6c-.3,0-.6-.2-.8,0-.3,0-.5.3-.6.5-.7,1.6-2.1,4.4-2.1,4.7s1.7,5.2,2.5,7.5c.2.7,0,1.4-.6,1.8l-.5.4c-.3.2-.4.7-.2,1l13.7,26.1c0,.2.4.4.6.5l1.9.5c.4.1.8.4.9.9l4,12.3v.4l-.8,4.1c0,.3,0,.6.2.9l2.2,3.2c.2.2.4.3.7.3h1.6c.2-.1.5,0,.6.2l4.5,8.2c0,.2,0,.5,0,.7s-.2.4-.5.5l-4.2,1.9h-.6c-.2-.1-.3-.3-.4-.5l-.8-4.8c0-.2-.2-.4-.4-.6-.2-.1-.4-.2-.6-.1l-1.5.3c-.2,0-.5,0-.7-.2l-9.6-10.2c-.3-.3-.3-.7,0-1l1.4-1.9v-6.9c.2-.2,0-.4-.3-.5h-1.5c-.2-.1-.4-.2-.5-.4l-3.1-3.5c-.2-.2-.2-.4,0-.6l.7-1.7v-.7l-.7-1.1c0-.1-.2-.2-.4-.1l-4.6,1.4c-.4.1-.8,0-1-.3l-6.7-6.7c-.2-.2-.3-.5-.2-.7l.3-.9c0-.3.5-.5.8-.4l4.6,1.4h.3l1-.7-.7-3.9c0-.2,0-.5.2-.6l1.1-1c0-.1.2-.3,0-.5l-6.6-9.7c0-.2-.3-.3-.5-.3l-1.9-.3c-.4,0-.7-.3-.8-.7l-1.6-6.7c0-.4,0-.8.5-1.1l.9-.5c0,0,.2-.2.2-.3v-.3l-4.2-6.7c-.4-.7-.7-1.4-.9-2.1l-1.7-7.6c0-.2,0-.5.2-.7s.4-.3.6-.3c3.1,0,12.3,0,15.5,0s1.4.2,2,.5l22.4,10.4c1.1.5,2.2.8,3.4.9l17.3,1.1c.7,0,1.3-.4,1.5-1l.5-1.5c.2-.5.7-.9,1.3-.9,2.7.2,10.1.6,10.7.6s2.3,5.4,2.6,6.6c0,.2,0,.3.3.4l5.2,5.1c.4.4.6,1,.5,1.5l-.6,4.2c0,.5.2,1,.6,1.2l10.1,6.1c.4.2.8.3,1.2.2s.8-.4,1-.8l2.8-5c.3-.6.9-.9,1.6-.9h6.2c.7-.1,1.4,0,1.9.5l4.6,3.6,1.5,8.2c0,.3.2.6.4.8l5.1,5.3c.3.3.5.7.5,1.1l.7,8.9c0,.5.3.9.8,1.2l4.6,2.1c.6.3,1,.7,1.3,1.3l1.5,3c.3.6.5,1.3.4,2l-.4,10.1-3.3,8.9c-.2.6-.2,1.2,0,1.7l2,6.9.4,8.8c0,.6.3,1.1.7,1.6l6,6c.3.3.4.6.5.9l1.5,5.9c.1.5.6.9,1.2.9,1.5,0,4.5.1,4.8.1s2.2,3.4,3,4.9c.2.4.7.7,1.1.7l7.1-.4c.2,0,.4,0,.5-.2l5.3-3.9c.6-.4,1.4-.4,2,0l3,2.1,3.8,1.5c.7.3,1.4.1,1.9-.4l2.7-2.7.7-4.6c0-.4.3-.8.6-1.1l2.7-2.6c.4-.4.5-.9.5-1.4l-.6-4.2c0-.4,0-.8.4-1l2.4-2.3v-.2s0-.2-.2-.2l-1.4-.5c-.3,0-.4-.4-.4-.7v-1.1c.1-.3.4-.6.7-.6l10.4.3c.6,0,1.1-.3,1.4-.8l1.1-2.2c.1-.3.5-.5.8-.4l5.7.9,3.9-1c.3,0,.7,0,.9.3l-.2-.4Z"/>
  </g>
  <g id="guatemala">
    <path class="st7" d="M231.8,261.5l-.8,2.8-5,1.5-7.7.7c-.4,0-.8-.1-1-.5l-1.4-2c-.2-.3-.5-.5-.9-.4h-2.5c-.3.1-.5,0-.6-.2l-2-2.6,4.2-1.9-2.4-3.8,3.7-5.8c.4-.6,1.1-.9,1.8-.8l7.4.9c.3,0,.6,0,.8-.2s.4-.4.4-.7v-1.9c.1,0-2.1-.7-2.1-.7l-1-2.3-4.5-2v-1.7l3-.3.6-2.5c.2-.7.9-1.3,1.6-1.3h9.5v12.6c0,.7.5,1.3,1.2,1.4l3.5.5,2.3,1.6c.4.3.8.3,1.2,0l-.5,2.5h-3.7l-3.7,2.8c-.2.2-.4.4-.5.7l-1,3.6h0Z"/>
  </g>
  <g id="elsalvador">
    <path class="st6" d="M226,265.8l5-1.5.8-2.8,1.8.7,2.5-.7,2.4,2.8,2.1-1.8,4,1.2-.8,4h0c-.7,0-1.5.2-1.8.2-.5,0-.3,1.1,0,1.8.1.4,0,.7-.4.9l-1.9,1.1c-.3.2-.6.1-.8,0l-2.6-2.4c-.3-.2-.6-.4-.9-.3l-4.2.4c-.3,0-.6,0-.9-.3l-3.3-2.8c-.3-.2-.7-.4-1-.3v-.2Z"/>
  </g>
  <g id="honduras">
    <path class="st6" d="M245.9,267.8c-.3-.3-1.1-.2-2-.2h0l.8-4-4-1.2-2.1,1.8-2.4-2.8-2.5.7-1.8-.7,1-3.6c0-.3.3-.6.5-.7l3.7-2.8h3.7l.5-2.5,1.9-1.1,7.4.4c.4,0,.8,0,1.1-.3l3-2.2c.4-.3,1-.3,1.4,0l3.5,2.2c.4.2.8.3,1.2.2l6.8-1.5c.4,0,.8,0,1.2.2l7.8,4c.5.3.9.8.9,1.4v1.7s-2.8-.9-3.2-.9-4.6,3.6-4.6,3.6l-4.5-1c-.5,0-.9.1-1.1.5l-2.9,5.8c-.3.5-.8.8-1.4.7l-2.7-.6-6.8.8s-.7,4.4,0,5.3c.5.7-2.7,1.1-3.4,1.2,0,0,.2,0,.2-.1s.1-.2.1-.4c-.2-1.1-.5-3.7-.9-4.1l-.4.2Z"/>
  </g>
  <g id="nicaragua">
    <path class="st7" d="M246.3,272.4h0c.8,0,4-.4,3.4-1.2-.6-.8,0-5.3,0-5.3l6.8-.8,2.7.6c.6.1,1.2-.1,1.4-.7l2.9-5.8c.2-.4.7-.6,1.1-.5l4.5,1s4.2-3.6,4.6-3.6,3.2.9,3.2.9c0,.8,0,1.5-.1,1.8-.1.4-1.6,2.6-2.7,4.1-.7,1-1,2.2-.8,3.4l.5,2.8c0,.5,0,1.1-.3,1.5l-2.7,4.4c-.2.4-.4.9-.4,1.3v10.7c0,.5.4.9.9,1h1.1c0,.1-3.1.7-3.1.7l-3-2.5c-.2-.1-.4-.2-.6-.1l-3.7,1.1-2.4-2c-.5-.4-1.1-.5-1.6-.4l-2.7.8c0-.2-.2-.3-.3-.4l-11.5-10.5c-.3-.3-.4-.8-.2-1.1l.6-.9c0-.1.2-.2.4-.2h2Z"/>
  </g>
  <g id="costarica">
    <path class="st6" d="M280.4,296.4l-2.8,2.6c-.4.4-.5,1.1-.2,1.6l2.2,3.3-3,4.2-5.5-3.2c-.3-.2-.4-.5-.4-.8l.4-2.1c0-.2,0-.5-.2-.6l-5.5-3.9c-.3-.2-.4-.5-.4-.8v-2.4c-.1-.2-.2-.3-.4-.5l-3.6-2.9h-.3c-.1,0-.2,0-.2.1l-1.1,1.6c-.1.2-.2.4-.1.6,0,.2.2.4.4.5l1.7.9s.6,3.8.6,4.3-2.2.2-2.2.2l-4.8-4.2c-.3-.2-.3-.6-.2-.9l2.2-4.4c.1-.3.2-.6,0-.9l-1.4-3,2.7-.8c.6-.2,1.2,0,1.6.4l2.4,2,3.7-1.1c.2,0,.4,0,.6.1l3,2.5,3.1-.6c.5,0,.9.4,1.1.8l2.1,5.4c.2.5.6.9,1.2,1.1l3.4,1h-.1Z"/>
  </g>
  <g id="panama">
    <path class="st7" d="M277.9,308c-.4.3-.9.3-1.3,0l3-4.2-2.2-3.3c-.3-.5-.3-1.2.2-1.6l2.8-2.6c.2,0,.5.2.6.4l3,3.6c.2.3.6.5.9.5l5.9,1.2c.4,0,.7-.2.8-.5l.5-1.9c0-.2.2-.4.5-.5l5.1-1.3c.2,0,.3-.1.5-.2l2.1-2c.3-.3.9-.3,1.2,0l2.4,2c.2.2.4.2.7.2l5.6-.4c.5,0,.9.1,1.2.5l5,5c.1.1.2.3.3.5l.5,4.3-2.5,2.7-1.6,5.2-3.2-4.5c-.2-.3-.3-.7-.2-1l1.1-3.7v-.4c0-.1-.2-.2-.4-.2l-2.5-.2c-.4,0-.7-.3-.8-.6l-1-2.8c-.2-.5-.6-.8-1.1-.8l-3.9-.2c-.5,0-.9.3-.9.8l-.3,2.2c0,.4-.4.7-.8.8l-3.1.5-1.2,1.9c-.2.4-.1.8.2,1.1l2.9,2.4c.1.1.2.3.2.4,0,.2-.1.3-.3.4l-3.5,2-2.8-.3c-.4,0-.7-.4-.8-.8l-.3-2.9c0-.1,0-.2-.2-.2h-.3l-1.6,1.5c-.2.1-.4.2-.6.2s-.4-.2-.5-.4l-1.8-3.2-3.5-2.2c-.4-.2-.8-.2-1.2,0l-2.9,2.1v.5Z"/>
  </g>
  <g id="uruguay">
    <path class="st2" d="M463.5,622.8l1.7-3.5c.2-.4.2-.9,0-1.3l-1.8-4.5c-.2-.4-.2-.9,0-1.4l1.6-3.5c.4-.7.5-1.6.3-2.4l-1.2-6.8c0-.4,0-.7.2-1l3.5-4.7,7.5-.6c.5,0,.9.3,1,.7l1.1,4.1,2.7,3.1h3.5c.5,0,.9.2,1.3.5l2.2,2.3,2.9,1.8c.3.2.5.4.6.7.3.7.8,2.1,1.1,2.4.3.2,2.7,1.5,4.1,2.3.7.4,1.1,1.1,1.1,1.8v2.8l2.2,3,1,4.4h0c-.2.3-.3.6-.4.9l-.6,3.6c0,.5-.3.9-.7,1.2l-6.6,4.9c-.3.2-.7.3-1.1.3l-4.9-.7c-.6,0-1.3,0-1.7.6l-1.7,1.9c-.2.2-.5.3-.8.3l-1-.2c-.4,0-.7-.5-.6-.9l.4-1.9c0-.4,0-.8-.4-1l-1.9-1.2c-.2,0-.4-.2-.7-.2l-6.5.5c-.8,0-1.5-.3-1.9-.9l-5-7.2c-.1-.2-.3-.2-.5,0h0Z"/>
  </g>
  <g id="argentina">
    <path class="st6" d="M491.2,556.1l2.6,8.8-1.6,4.5-9.1,5.3-1.8,4.9-2.9-.3c-.5,0-.9.2-1.2.6l-3.8,6-5.2,7.9-3.5,4.7c-.2.3-.3.7-.2,1l1.2,6.8c.1.8,0,1.6-.3,2.4l-1.6,3.5c-.2.4-.2.9,0,1.4l1.8,4.5c.2.4.2.9,0,1.3l-1.7,3.5c-.2,0-.3.3-.2.4.8,2.9,2.2,7.8,2.6,8.4.4.6,5.9,3.7,8.2,5,.6.3.8,1,.5,1.7l-2.2,4.5c-.2.4-.1.9.2,1.2l2.2,2.4c.4.4,1,.5,1.5,0l1.1-1c.5-.5,1.4-.4,1.9,0l1,1.1c.3.3.4.8.2,1.2l-4.7,8.5c-.2.3-.2.6-.2.9l.6,4.6c0,.6-.3,1.1-.8,1.3l-20.8,6.7c-.9.3-1.8.3-2.7,0l-8.5-2.7c-.2,0-.5,0-.7,0-.2.2-.3.4-.2.7l3.6,15.4c.2.6,0,1.3-.6,1.7l-5.4,4.2c-.4.3-1,.4-1.5,0l-8.6-4.8c-.5-.3-1.1-.3-1.7,0l-2.7,1.4c-.5.3-.8.9-.6,1.4l2.2,5.9,3.9,5.5c.2.4.7.5,1.1.4l4.1-1.2c.2,0,.5,0,.7.2s.3.4.3.7l-.4,3c0,.5-.4.9-.9,1l-3.8,1c-.3,0-.6.3-.6.6s0,.7.3.9l1.6,1.4c.2.2.2.4.2.6s-.2.4-.4.5l-3.5,1.7c-.5.2-.7.8-.6,1.3l1.7,7c0,.3,0,.7-.2,1l-1.8,2.3c-.1.2-.2.4-.2.7s.2.5.4.6l1.9,1.1c.4.2.6.6.5,1v1.3c-.2.6-.7,1-1.3.9l-4.4-.3c-.5,0-1,0-1.4.4l-6.8,4.3c-.6.4-1,1-1,1.7v4.1c-.1.4,0,.9.4,1.2l8,7.6c.4.3.8.5,1.3.5l3.8-.2c.9,0,1.7.5,1.9,1.3l1.3,4c.1.4,0,.8,0,1.2l-3.5,7.1c-.2.5-.7.8-1.2,1l-2.7.8c-.5.2-.9.5-1.1,1l-2.1,4.4c-.3.6-.2,1.2.3,1.7l1.6,1.7c.3.3.4.8.1,1.2l-2.5,4.5c-.4.7-1.1,1-1.8,1l-2.4-.2c-.5,0-1,.2-1.2.7l-1.4,3c-.4.8-.3,1.7.3,2.4l2.3,2.9,2.8,12.1c.1.5.4.9.7,1.2l-1.3,1.3-3.5-3.5c-.5-.5-1.1-.7-1.7-.7h-14.5c-.8,0-1.4-.7-1.4-1.5-.2-2.2-.6-6.3-.9-6.4-.4,0-2.4-1.3-2.4-2s-.2-1.8-.3-2.7c0-.2-.2-.4-.3-.5s-.4,0-.6,0l-4.6,2.1c-.4.2-.8,0-1-.4l-3.4-6.9c-.2-.4-.2-.8,0-1.2l5.6-11.5c.1-.2.2-.5.1-.8l-1.7-12.2,2.2-6c.2-.4.2-.9,0-1.3l-2.8-11.1,1.5-3.8c.4-1,0-2.2-1-2.8l-3.7-2.1c-.3-.2-.5-.5-.5-.8v-13.5c0-.3-.1-.6-.3-.8l-3.3-3.5c-.4-.4-.5-1.1-.3-1.7l1.8-4.2c.1-.3.1-.6,0-.9l-2.5-6.1v-10.5l-.9-4.4c0-.4,0-.9.2-1.2l2.8-4.7,1.9-2c.5-.5.6-1.3.3-1.9l-1.7-3.9-3-3.9.8-10.8c0-.4.2-.8.6-1.1l2.6-2c.4-.3.5-.8.3-1.3l-3.2-6,1.3-7.9,2.8-1.8c.6-.4.8-1.1.7-1.7l-2.4-11.3-5.9-9.9v-3.7c-.1-.5.1-.9.5-1.1l3-1.5c.4-.2.6-.5.6-.9l.4-8.2-1.9-3.9c-.2-.3-.2-.7,0-1.1l3.5-8.8c.3-.7.7-1.4,1.3-1.9l3.6-3.3c.4-.4.6-1,.3-1.6l-2-4.1c-.2-.3-.1-.7,0-1l2.1-3.4v-3.7c0-.2,0-.5-.2-.7l-3-4.4c-.2-.3-.3-.6-.2-.9l.2-1.8c0-.5.4-.9.9-1.1l6.7-1.9c.6-.2,1-.6,1.1-1.2l1.6-10.1,2.9-5.9c.2-.4.6-.6,1-.6h4.2l2.7,2.1c.3.2.6.3.9.2l3.8-1c.4,0,.8,0,.9.5l.9,2.5c.2.5.7.8,1.2.7l2.3-.5s2.3-4.2,2.8-4.2,5.8.9,5.8.9l3.5,4.6,5.6,1.8c.2,0,.3.2.4.4l4.3,7.7c.2.4.7.7,1.2.7h6.3c.3,0,.6,0,.8.4l4.8,5.5,6.5.7,3.7,4.3c.3.3.4.7.4,1.1s-.2.8-.5,1.1l-2.6,2.2.4,4.4-3.7,2.5.2,2.2c0,.3.2.6.4.8.2.2.6.3.9.2l5.1-.7,7.3,3.1,6.2-1.9,1.8-3.4,4.2-.7,1.6-5v-4.1l1.6-3.3,4.5.5v-.6Z"/>
    <path class="st6" d="M421.8,798.9l4.3,2.9c.7.4,1.1,1.2,1.1,2,0,2.7,0,8.8.3,9.2s10.5,3.5,11.2,3.8c.5.2,3,3,4.3,4.4.4.4,1,.6,1.6.3l2.4-1c.4-.2.9,0,1.1.4l1,1.8c.3.5.3,1.2-.1,1.7l-1.3,1.7c-.3.4-.7.7-1.2.8l-10.4,2.2c-.6,0-1.3,0-1.8-.2l-5.3-2.4h0c0,0-6.2-23.7-6.2-23.7,0-.3-.3-.7-.5-.9l-2-2,1.3-1.3c.1,0,.2.2.4.3h-.2Z"/>
  </g>
  <g id="paraguay">
    <path class="st2" d="M486.5,544.3l1.7,2.3-1.5,8.9-1.6,3.3v4.1l-1.6,5-4.2.7-1.8,3.4-6.2,1.9-7.3-3.1-5.1.7c-.3,0-.6,0-.9-.2-.2-.2-.4-.5-.4-.8l-.2-2.2,3.7-2.5-.4-4.4,2.6-2.2c.3-.3.5-.7.5-1.1s-.1-.8-.4-1.1l-3.7-4.3-6.5-.7-4.8-5.5c-.2-.2-.5-.4-.8-.4h-6.3c-.5,0-.9-.3-1.2-.7l-4.3-7.7c-.1-.2-.3-.3-.4-.4l-5.6-1.8-3.5-4.6,3.9-7.7c.1-.3.2-.6.1-.9l-1.3-5.8,1.4-4.8c.1-.4.5-.7.9-.8l10.8-1.8,9.6,1.8h3.6c0-.1,3.5,3.7,3.5,3.7l3.6,5.4v.2l-1.4,8.5c0,.5.2.9.6,1.1l8.1,2.8,3.6-1.8c.4-.2.8-.2,1.1,0l4,1.6c.4,0,.6.5.6.8l1.1,10.3,2.5,1.7,3-1.2c.4,0,.8,0,1,.3h-.1Z"/>
  </g>
  <g id="chile">
    <path class="st2" d="M376.6,496.8l2.1,2.2c.2.2.3.5.3.8l.2,4.3c0,.4.2.8.5,1.2l4.1,4.6c.2.2.3.4.3.6l.6,3.2c0,.4,0,.8-.1,1.1l-1.7,3.8c-.2.5,0,1,.4,1.3l4.6,3.3c.3.2.5.5.6.8l3.6,12.5c0,.3.3.5.5.5s.5,0,.7-.2l.8-1,2.6.4-1.6,10.1c0,.6-.5,1.1-1.1,1.2l-6.7,1.9c-.5,0-.8.6-.9,1.1l-.2,1.8c0,.3,0,.7.2.9l3,4.4c.1.2.2.4.2.7v3.7l-2.1,3.4c-.2.3-.2.7,0,1l2,4.1c.3.5.1,1.2-.3,1.6l-3.6,3.3c-.6.5-1,1.2-1.3,1.9l-3.5,8.8c-.1.4-.1.8,0,1.1l1.9,3.9-.4,8.2c0,.4-.3.8-.6.9l-3,1.5c-.4.2-.7.6-.7,1.1v3.7c.1,0,6,9.9,6,9.9l2.4,11.3c.1.7-.1,1.3-.7,1.7l-2.8,1.8-1.3,7.9,3.2,6c.2.4.1,1-.3,1.3l-2.6,2c-.3.3-.6.6-.6,1.1l-.8,10.8,3,3.9,1.7,3.9c.3.7.1,1.4-.3,1.9l-1.9,2-2.8,4.7c-.2.4-.3.8-.2,1.2l.9,4.4v10.5l2.5,6.1c.1.3.1.6,0,.9l-1.8,4.2c-.2.6-.1,1.2.3,1.7l3.3,3.5c.2.2.3.5.3.8v13.5c0,.3.2.7.5.8l3.7,2.1c1,.5,1.4,1.7,1,2.8l-1.5,3.8,2.8,11.1c.1.4,0,.9,0,1.3l-2.2,6,1.7,12.2c0,.3,0,.5-.1.8l-5.6,11.5c-.2.4-.2.9,0,1.2l3.4,6.9c.2.4.6.5,1,.4l4.6-2.1h.6c.2,0,.3.3.3.5.1.9.3,2.2.3,2.7s2,1.9,2.4,2c.3,0,.7,4.3.9,6.4,0,.7.7,1.3,1.4,1.3h14.5c.6,0,1.2.4,1.7.8l3.5,3.5,2,2c.2.2.4.6.5.9l6.2,23.6h0c0,0-7-3-7-3-.5-.2-.9-.3-1.4-.3h-9.1c-1,0-1.9-.3-2.7-.8l-12.7-8.4c-.5-.3-.9-.8-1.3-1.3l-4.9-6.8c-.7-1-1.2-2.2-1.4-3.5l-1.3-9.7c-.1-1-.5-2-1-2.9l-4.1-7.1-5.5-12.6c-.3-.6-.3-1.3,0-1.9l3.7-9.3v-2.1c0-.6-.4-1.2-1-1.4l-5.7-2c-.2,0-.3-.2-.4-.4v-.6l2.1-3.2c.2-.3.2-.6.1-.9,0-.3-.3-.5-.6-.7l-4.4-2c-.4-.2-.9,0-1.3.2l-1.9,1.6c-.3.3-.8.4-1.2.4s-.8-.3-1.1-.7l-1.6-2.3c-.4-.6-.3-1.4.2-1.9l2.8-2.5c.2-.2.3-.5.2-.8-.2-1-.7-3.2-.7-3.5s4.5,0,6.3.2c.4,0,.7.4.7.8l-.2,2.5c0,.7.4,1.3,1,1.5l.9.3c.4,0,.7,0,1-.2s.5-.6.5-.9l.4-7.6c0-.6.4-1.1.9-1.3l3-1.4c.3-.2.5-.5.6-.8l.6-4.4c0-.7-.2-1.4-.8-1.7l-4.6-3.2c-.5-.4-.8-1-.7-1.7l2.2-15.1v-.8l-1.4-5.2c0-.2-.2-.4-.4-.6-.2,0-.5,0-.7,0l-3,1c-.8.3-1.7,0-2.1-.8l-3.7-6.9c-.4-.7-.4-1.5-.2-2.2.9-3.2,3.3-12.2,3.3-12.6s-4.3-9.7-4.3-9.7l-5.3-6.2c-.4-.5-.4-1.2,0-1.7l1.5-1.9c.1-.2.3-.3.6-.3s.5,0,.6.2l1.4,1.3,1.7-.8c.5-.2.9-.7.9-1.3l2.8-23.6c0-.7.4-1.2,1-1.6l3.1-2c.5-.3.7-.9.6-1.4l-5.3-23.9c-.1-.6-.1-1.3,0-1.9l2.2-6.6c.2-.5.1-1,0-1.4l-2.2-5c-.3-.6-.3-1.3,0-1.9l3.2-8c0-.2.1-.4.1-.6l.3-24.3c0-.5-.2-.9-.5-1.2l-1.7-1.6c-.3-.3-.5-.7-.6-1.1l-.7-3.4c-.1-.6.1-1.2.6-1.6l3.6-3c.3-.2.4-.6.4-1l-2.7-34.8c0-.3-.1-.6-.3-.9l1.8-.5c.5-.1.9-.6.9-1.1v-2.4c0-.5.4-.9.9-1,.8-.1,2-.3,2.1-.5.2-.3.7-1.7.7-1.7l-.3.7Z"/>
  </g>
  <g id="bolivia">
    <path class="st4" d="M462.8,502.8c.1.3.1.6,0,.9l-4.2,10.9-3.5-3.9h-3.6c0,.1-9.6-1.6-9.6-1.6l-10.8,1.8c-.4,0-.8.4-.9.8l-1.4,4.8,1.3,5.8c0,.3,0,.6-.1.9l-3.9,7.7s-5.3-.9-5.8-.9-2.8,4.2-2.8,4.2l-2.3.5c-.5,0-1-.2-1.2-.7l-.9-2.5c-.1-.4-.5-.6-.9-.5l-3.8,1c-.3,0-.7,0-.9-.2l-2.7-2.1h-4.2c-.4,0-.8.2-1,.6l-2.9,5.9-2.6-.4-.8,1c-.2.2-.4.3-.7.2s-.5-.3-.5-.5l-3.6-12.5c0-.3-.3-.6-.6-.8l-4.6-3.3c-.4-.3-.6-.8-.4-1.3l1.7-3.8c.2-.4.2-.8.1-1.1l-.6-3.2c0-.2-.1-.4-.3-.6l-4.1-4.6c-.3-.3-.5-.7-.5-1.2l-.2-4.3c0-.3-.1-.6-.3-.8l-2.1-2.2c-.5-.6-.8-1.3-.8-2.1s.5-1.5,1.1-2l2.7-2c.5-.4.9-1,.9-1.7v-3.5c.1-.5,0-.9-.3-1.3l-2.9-4.1c-.3-.4-.4-.9-.4-1.4l.7-17.3,1.9-3.6c.2-.4.2-.9,0-1.3-1.2-1.7-4.4-6.4-6-8.3l9,.6c.4,0,.7-.1.9-.4l1.8-2.2c.1-.2.4-.3.6-.3h2.4c.3,0,.5-.1.7-.3l4.3-5.5c.2-.2.4-.4.7-.4l5.5-.4c.9,0,1.8.2,2.5.8.7.6,1.1,1.5,1.1,2.4l.3,5.9c0,.2,0,.3.1.4l3.6,6.1,2.8,4.6c.3.4.8.7,1.3.7h5.1c.8,0,1.6.3,2.2.8l2.7,2.1,6.2.5c.8,0,1.6.6,2,1.3l2,4,5.4-1.1,3.2,2c1.4.9,2.2,2.4,2.1,4l-.3,6.7c0,1.7,1.1,3.1,2.7,3.5l8.9,1.9c.4,0,.7.5.8.9l.3,5.1c0,.6.4,1.2,1,1.4l4.2,1.9,3.1,7.6h0Z"/>
  </g>
  <g id="peru">
    <path class="st4" d="M368.4,398v1.7c0,.1,0,.3-.1.4h-.4l-4.5-2.1-15.7,7.5c-.3.2-.5.5-.5.9l1.1,6.9c.1.7,0,1.5-.5,2.1s-1.1,1-1.9,1h-.8c-.9.1-1.7.8-1.9,1.6l-1.8,6.1c-.3,1,0,2.2.6,3l2.6,3.3c.3.4.4.8.4,1.3v3.2c0,.4,0,.7.3.9.2.3.6.4.9.4h4.9c.5-.1,1,.3,1.1.8l.4,2.6c0,.5.4.8.9.9l5.1.7c.5,0,.9-.1,1.2-.5l3.5-4.2c.3-.4.8-.5,1.2-.3l1.8.6c.2,0,.3.3.3.5l-1.3,4.8.9,5.4c0,.2.1.4.3.5.2.1.4.2.6.1,1.6-.3,5.2-.9,5.6-.9s.4.3.8.8c1.5,1.9,4.8,6.6,6,8.3.3.4.3.9,0,1.3l-1.9,3.6-.7,17.3c0,.5.1,1,.4,1.4l2.9,4.1c.3.4.4.8.4,1.3v3.5c-.1.7-.4,1.3-1,1.7l-2.7,2c-.6.5-1,1.2-1.1,2,0,.8.2,1.6.8,2.1,0,0-.5,1.4-.7,1.7-.1.2-1.3.4-2.1.5-.5,0-.9.5-.9,1v2.4c0,.5-.4,1-.9,1.1l-1.8.5c-.2-.2-.4-.4-.7-.6l-9.5-4.1c-.6-.2-1.1-.6-1.6-.9l-17.9-14.6-14.7-10.5c-.5-.3-.7-.9-.6-1.4l.6-3.1c0-.4,0-.8-.1-1.2l-4.2-9.3c-.1-.2-.3-.4-.4-.6-1.5-1.3-8-7.4-8.5-7.7-.4-.2-.7-5.6-.8-8,0-.7-.3-1.4-.8-1.9l-4.3-4.5c-.2-.2-.3-.5-.4-.8-.3-1.7-1.2-7.8-1.2-8.2s-6.9-8-6.9-8l-10.6-6.6c-.6-.4-.9-1-.8-1.7l.8-10.4c0-.4.2-.8.6-1l8.4-5.3-1.6,3.5-2.1,2.7,3.2,1.7,2.7-1.1c.7-.3,1.5-.2,2.1.3l3.3,2.7s3.2-.7,3.4-1.3c.1-.4,2-6.7,3-9.9.3-1.1,1.2-2,2.3-2.4l10.2-3.5c.3,0,.5-.2.7-.5l5.6-6.7c.2-.3.3-.6.3-.9v-4.7l1.8-5.3,3,1.2c.2,0,.4.2.5.5l2.7,4.8,5.2,1.9,4,8.3c.2.4.6.6.9.5l10.8-1.2,6.7,1.3c.4,0,.6.3.8.6.2.3.2.7,0,1l-3.3,6.4c-.1.2,0,.4,0,.6.1.2.3.3.5.2l4.6-.7.2,4.2h0l.3.4Z"/>
  </g>
  <g id="ecuador">
    <path class="st6" d="M331.6,368.4l-1.8,5.3v4.7c0,.3-.1.7-.3.9l-5.6,6.7c-.2.2-.4.4-.7.5l-10.2,3.5c-1.1.4-2,1.3-2.3,2.4-1,3.2-2.9,9.5-3,9.9-.1.6-3.4,1.3-3.4,1.3l-3.3-2.7c-.6-.5-1.4-.6-2.1-.3l-2.7,1.1-3.2-1.7,2.1-2.7,1.6-3.5,1-.6c.6-.4.8-1,.7-1.6l-.9-5.8c0-.2-.2-.3-.3-.4s-.4,0-.5.1l-2.2,2.3c-.2.3-.6.4-.9.4s-.7-.1-.9-.4l-3.1-3c-.1-.1-.3-.3-.3-.5l-1.1-5.3,1-2.6c.2-.4.6-.7,1-.8l2.4-.2,1.2-1.2c.2-.2.2-.5,0-.8l-1-1.7c-.3-.5-.2-1,.1-1.4l2.9-3.4c.3-.4.4-.8.2-1.3l-1-2.7c-.2-.4,0-.9.4-1.2l3.6-2.2c.1,0,.2-.1.4-.1l3.4-.6c.5,0,1-.5,1.1-1.1l.2-.8,8.4,4c.3.1.5.4.6.7l1.1,3.1c0,.3.3.5.6.6l6.6,2.3c.5.2,1,0,1.3-.4l1.7-2.4c.1-.2.3-.3.5-.3s.4,0,.6.1l4.3,3.1,1.8.7h0Z"/>
  </g>
  <g id="surinam">
    <path class="st4" d="M482.9,324.8h.2l1.6.3-3.5,3.8.6,5.7,4,5.3c.2.3.2.6,0,.9l-3.3,5.8c-.2.3-.5.6-.9.6s-.8,0-1.1-.3l-2.1-1.7h-.3l-2.5,1.8c-.4.2-.8.3-1.2,0l-2.3-1.5c-.4-.2-.8-.2-1.1.2l-1.5,1.7c-.3.4-.3,1,0,1.4l3.3,4.1-1.2,1.2c-.2.2-.6.3-.9.2l-3.9-1.5-1.8-4.2-3.2-3.2-.9-3.3-5.1-5.2c-.3-.3-.4-.6-.3-1l1.3-5.2c0-.3.3-.6.6-.7l3.4-1.4c.5-.2.8-.7.8-1.2l.3-5.3h4.1l2.7,1.1h.6l4.8-1.7c.5-.2,1-.1,1.5,0l7.1,3.1.2.2Z"/>
  </g>
  <g id="guyana">
    <path class="st6" d="M465,348.6l1.8,4.2-5.4-.3c-.6,0-1.2.3-1.4.8l-1.5,2.9c-.2.4-.5.6-.9.6h-5.8l-2.4,1.4c-.4.2-.9.2-1.2,0l-3-2.6-3.9-4.5c-.3-.3-.4-.7-.3-1.1l.8-7.1,2.9-4.2c.1-.2.1-.4,0-.5,0-.2-.3-.3-.4-.3h-1.6l-1.4-1.9c-.4-.6-.4-1.4,0-1.9l1.4-1.6-1.9-2.3-2.7-.2-2.2-1.6-4.4-5.3c-.3-.4-.4-1-.1-1.4l2.1-3.7,4.7-1.3c.5-.2.9-.6.9-1.2v-1.5s0-.2-.1-.2l-3.4-2.2c-.2-.1-.3-.3-.3-.5s0-.4.1-.6l1.5-2.3h3.2c.6,0,1.1-.5,1.2-1.1l.5-4,2.7,1.6c.3.2.5.5.6.8l.7,3.8c0,.5.5.8,1,.9l4.4.5,2.2,4.6,2.7,2.9c.2.2.5.3.8.4l3.2.2c.3,0,.6.2.6.5l.4,2.1c0,.5.5.8.9.8l-.3,5.3c0,.5-.4,1-.8,1.2l-3.4,1.4c-.3.1-.5.4-.6.7l-1.3,5.2c0,.4,0,.7.3,1l5.1,5.2.9,3.3,3.2,3.2h-.1Z"/>
  </g>
  <g id="venezuela">
    <path class="st4" d="M441.7,303.1h0l-.5,4c0,.6-.6,1.1-1.2,1.1h-3.2l-1.5,2.3c-.1.2-.1.4-.1.6s.2.4.3.5l3.4,2.2s.1.1.1.2v1.5c0,.6-.4,1-.9,1.2l-4.7,1.3-2.1,3.7c-.3.5-.2,1,.1,1.4l4.4,5.3-1,4c-.1.4-.4.8-.9.9l-5.5,1.6h-4.3c-.6-.2-1.2,0-1.6.5l-2,2.2-7.2.5-6.3-3.2h-.3s-.2,0-.2.2l-.7,1.3c-.1.3,0,.6.1.9l3.2,3.4c.4.4.4,1,.1,1.4l-1.2,1.9,1.2,4.7,6.6.2c.5,0,.9.4.9.9v.9c0,.5-.3.9-.8,1-1.6.3-5.2,1-5.9,1.6-1,.7-.8,2.4-.8,2.4l-7.8,6.4h-6.3l-4.2-3.1-2.2-9c0-.2-.1-.3-.3-.4l-3-2.1c-.6-.4-.8-1.2-.5-1.9l2.1-4.4-2.6-7.2-.2-4.1c0-.4.2-.7.6-.9l2.6-1.1c.7-.3,1-1,.9-1.7l-.8-3.9c0-.4-.5-.7-.9-.8l-11.5-.5-6.5-6.1c-.4-.4-.9-.5-1.4-.5l-12.3.9c-.5,0-.9-.2-1.2-.6l-2.7-3.8c-.2-.3-.2-.6,0-.9l1.3-2.9v-.6l-3.5-7.1-1.8-.6c-.5-.2-.8-.6-.7-1.1l.9-7.2,5.6-6.7,4.3-1.2c-.6.4-.9,1.2-.6,1.8l1.8,5.4c.2.6,0,1.3-.3,1.8l-2.8,3.6c-.3.4-.4.8-.5,1.3v3.5c-.1.3,0,.6.4.7l1.2.4c.3.1.7,0,.9-.2l2.9-3.1c.3-.3.5-.7.6-1.1l1.3-4.5-1.5-3.8c-.3-.7,0-1.4.7-1.8l3.5-1.8c.1,0,.3-.1.4-.1l4.7-.4c.5,0,1-.5.9-1.1v-1.7c-.1-.3-.3-.5-.6-.6l-2.8-.4c-.2,0-.5-.2-.6-.4l-.6-1.5c-.1-.3,0-.6.2-.9l2.6-2.7c.3-.4.8-.5,1.3-.4l3.7.9c.1,0,.2.1.3.2s0,.3,0,.4l-1.1,3.1v.7l.9,2.3c.2.5.7.9,1.3,1l6.7,1.2c.4,0,.7.4.8.8l.6,4.6c0,.3.2.5.4.7s.5.2.8.2l13-2.3c.4,0,.8.1.9.5l1.9,3.6c.2.4.6.6,1,.7l3,.2c.2,0,.4,0,.6-.1l9.8-5.3,9.5-2.4c.4-.1.8,0,1,.5l.5,1c.1.2.1.5,0,.7,0,.2-.3.4-.5.5l-4.5,1.4c-.2,0-.4.2-.5.4v.6l1.1,2.5c.2.4.6.7,1,.8l6.8.7c.3,0,.6.2.8.4l2.4,2.4,9.4,5.6h0Z"/>
    <polygon class="st3" points="380.8 272.4 380.2 272.9 380.8 274.3 380.8 275.3 381.9 277.1 382.7 276.7 384 278.4 386.9 279.6 388.4 279.6 388.9 278.6 386.9 276.2 384.5 276.2 383.1 274.9 382.9 272.9 380.8 272.4"/>
  </g>
  <g id="brasil">
    <path class="st7" d="M383.9,352.1c.2-.2.5-.3.9-.3s.6.2.8.4l2.1,2.4-.6,4.9,3.8-.7,4.2,3.1h6.3l7.8-6.4s-.2-1.7.8-2.4c.8-.6,4.3-1.3,5.9-1.6.5,0,.8-.5.8-1v-.9c0-.5-.4-.9-.9-.9l-6.6-.2-1.2-4.7,1.2-1.9c.3-.5.2-1-.1-1.4l-3.2-3.4c-.2-.2-.3-.6-.1-.9l.7-1.3.2-.2h.3l6.3,3.2,7.2-.5,2-2.2c.4-.4,1-.7,1.6-.7h4.3c0,.1,5.5-1.4,5.5-1.4.4-.1.8-.5.9-.9l1-4,2.2,1.6,2.7.2,1.9,2.3-1.4,1.6c-.5.5-.5,1.4,0,1.9l1.4,1.9h1.6c.2,0,.4.1.4.3v.5l-2.9,4.2-.8,7.1c0,.4,0,.8.3,1.1l3.9,4.5,3,2.6c.3.3.8.3,1.2,0l2.4-1.4h5.8c.4,0,.8-.2.9-.6l1.5-2.9c.3-.5.8-.9,1.4-.8l5.4.3,3.9,1.5c.3.1.7,0,.9-.2l1.2-1.2-3.3-4.1c-.3-.4-.3-1,0-1.4l1.5-1.7c.3-.3.8-.4,1.1-.2l2.3,1.5c.4.2.8.2,1.2,0l2.5-1.8h.3l2.1,1.7c.3.2.7.4,1.1.3.4,0,.7-.3.9-.6l3.3-5.8c.2-.3.1-.7,0-.9l-4-5.3-.6-5.7,3.5-3.8,5.3.8,10.1,7c.6.4,1,1,1.3,1.6l4.5,10.5,6.2,8.7c.4.6.6,1.3.4,2l-1.8,7.5c-.2.8.3,1.7,1.1,1.9l7.9,2.4c.7.2,1.2.9,1.1,1.7l-.8,5.5c0,.5-.5.8-.9.9l-8.6.7c-.5,0-.8.3-1,.8l-.5,1.5c-.1.3,0,.6.1.9.2.3.5.4.8.4h4.3c.2-.1.5,0,.6.2s.2.4,0,.7l-1,3v.6c0,.2.3.3.5.3l2.2.4c.6,0,1.1-.3,1.3-.8l.8-3.2c0-.5.5-.9.9-1.1l2.5-1.2,6.4-5.8c.3-.2.6-.3,1-.2l15.8,4.3,4.1,1.6c1.2.5,2,1.6,2.1,2.9,0,2.2.3,5.4.3,5.8s3.9-1.9,5.5-2.9c.5-.3,1-.4,1.5-.2l12.7,4.4c.5.2,1,.1,1.4-.1l3.5-2.1c.4-.2.9-.3,1.4-.2,2.7.7,12.2,3,13.4,3.3s5.4,6.6,6.8,8.6c.3.4.7.7,1.1.8l3.4.6c.2,0,.4.2.5.3l3.3,4.5c.4.6,1.1.8,1.8.7l3.4-.8c.5-.1.9,0,1.4.1l4.1,1.7c.7.3,1.1,1,1,1.7,0,1.3-.3,3.3-.3,3.7s2.6,4.6,3.5,5.9c.2.3.3.6.2,1l-.9,8.4-5.8,11.3c-.3.5-.6.9-1.1,1.3l-8.5,7c-.6.5-1,1.1-1.3,1.8l-5,14c0,.4-.5.7-1,.7h-1.6c-.3,0-.5-.1-.7-.3-.2-.2-.2-.5-.2-.7l.3-2.1c0-.5,0-1.1-.6-1.4l-2.2-1.6c-.2-.1-.4-.1-.5,0l-1.8,1c-.2.1-.3.3-.4.5,0,.2,0,.4,0,.6l1.9,2.6c.3.4.5,1,.4,1.5l-.6,5.7.9,23.9c0,.5,0,1-.4,1.4l-4.1,7c-.4.6-.5,1.4-.3,2.1l1.2,5.2c0,.6,0,1.2-.3,1.6l-6.4,9.9c-.3.5-.4,1-.4,1.5l.2,4.4c0,.7-.2,1.5-.7,2l-6.5,7.1c-.2.2-.5.4-.8.4l-6.8,1.3c-.6,0-1.2,0-1.6-.4l-2.6-2.2c-.4-.3-.9-.5-1.5-.4l-6.9,1.4c-.3,0-.5.2-.7.5,0,.3,0,.6,0,.8l.9,1.6c.2.4.2.9-.2,1.3l-3.9,4.1c-.4.4-.9.5-1.4.2l-1.5-.8c-.4-.2-.8-.2-1.2,0l-4.5,1.6c-.4.2-.8.5-1,.9l-1.7,3.9c-.2.5-.7,1-1.2,1.3l-8.4,4.7-2.8,5.1c-.2.4-.2.9,0,1.3l1.4,2.6c.2.3.2.7,0,1.1l-1,2.7c-.2.6,0,1.3.4,1.8l1.7,1.6c.3.3.4.6.4,1-.2,1.7-.8,6.3-.9,6.9,0,.5-3.1,2.5-4.6,3.5-.6.4-1.1,1-1.3,1.7l-5.5,15-2.6,5.9c-.2.3-.4.6-.7.9l-4.3,3.3c-.2.2-.5.2-.7.2s-.5-.2-.6-.4l-.5-.8c-.2-.3-.2-.8,0-1.1l6.6-8.2,1.3-4.5c0-.4,0-.8-.4-1l-3.5-2c-.2,0-.4,0-.6,0s-.3.3-.3.5l.5,5.4c0,.7-.3,1.4-.9,1.8l-3.5,2.4-3,4.2c-.2.3-.3.8,0,1.1l1.6,2.6-1,9.5c0,.5-.4,1-.8,1.2l-3.9,2.1c-.3.2-.6.4-.8.7h0l-1-4.4-2.2-3v-2.8c0-.8-.4-1.5-1.1-1.8-1.4-.8-3.8-2.1-4.1-2.3-.3-.2-.8-1.6-1.1-2.4-.1-.3-.3-.6-.6-.7l-2.9-1.8-2.2-2.3c-.3-.3-.8-.5-1.3-.5h-3.5l-2.7-3.1-1.1-4.1c-.1-.5-.6-.8-1-.7l-7.5.6,5.2-7.9,3.8-6c.2-.4.7-.6,1.2-.6l2.9.3,1.8-4.9,9.1-5.3,1.6-4.5-2.6-8.8-4.5-.5,1.5-8.9-1.7-2.3c-.2-.3-.7-.4-1-.3l-3,1.2-2.5-1.7-1.1-10.3c0-.4-.3-.7-.6-.8l-4-1.6c-.4,0-.8,0-1.1,0l-3.6,1.8-8.1-2.8c-.4-.2-.7-.6-.6-1.1l1.4-8.5v-.2l-3.6-5.4,4.2-10.9c.1-.3.1-.6,0-.9l-3.1-7.6-4.2-1.9c-.6-.3-.9-.8-1-1.4l-.3-5.1c0-.4-.3-.8-.8-.9l-8.9-1.9c-1.6-.3-2.8-1.8-2.7-3.5l.3-6.7c0-1.6-.7-3.1-2.1-4l-3.2-2-5.4,1.1-2-4c-.4-.8-1.1-1.3-2-1.3l-6.2-.5-2.7-2.1c-.6-.5-1.4-.8-2.2-.8h-5.1c-.5,0-1-.3-1.3-.7l-2.8-4.6-3.6-6.1c0-.1-.1-.3-.1-.4l-.3-5.9c0-.9-.4-1.8-1.1-2.4s-1.6-.9-2.5-.8l-5.5.4c-.3,0-.5.2-.7.4l-4.3,5.5c-.2.2-.4.3-.7.3h-2.4c-.2,0-.5.1-.6.3l-1.8,2.2c-.2.3-.6.4-.9.4l-9-.6c-.4-.5-.7-.8-.8-.8-.3,0-4,.6-5.6.9-.2,0-.4,0-.6-.1s-.3-.3-.3-.5l-.9-5.4,1.3-4.8c0-.2,0-.4-.3-.5l-1.8-.6c-.4-.1-.9,0-1.2.3l-3.5,4.2c-.3.4-.8.5-1.2.5l-5.1-.7c-.5,0-.8-.4-.9-.9l-.4-2.6c0-.5-.5-.9-1.1-.9h-4.9c-.4.1-.7,0-.9-.3-.3-.2-.4-.6-.4-.9v-3.2c0-.5,0-.9-.3-1.3l-2.6-3.3c-.7-.8-.9-2-.6-3l1.8-6.1c.3-.9,1-1.5,1.9-1.6h.8c.7-.1,1.4-.5,1.9-1.1s.6-1.3.5-2.1l-1.1-6.9c0-.4.1-.7.5-.9l15.7-7.5,4.5,2.1h.4c.1,0,.2-.2.2-.4v-1.7h0l6.5-22c.1-.3,0-.7-.3-.9l-6.1-5.3c-.1-.1-.2-.3-.2-.4l-.3-3.5c0-.3,0-.5.2-.7s.4-.3.7-.3l4.8-.4c.5,0,.8-.4.9-.8l.4-3.2c0-.4-.2-.8-.7-.9l-5.1-.8.6-4.1c0-.5.5-.9,1-.8l10.5.7,2.6-2.5h.5Z"/>
  </g>
  <g id="colombia">
    <path class="st2" d="M388.7,349.7l2.2,9-3.8.7.6-4.9-2.1-2.4c-.2-.2-.5-.4-.8-.4s-.6.1-.9.3l-2.6,2.5-10.5-.7c-.5,0-.9.3-1,.8l-.6,4.1,5.1.8c.4,0,.7.5.7.9l-.4,3.2c0,.5-.4.8-.9.8l-4.8.4c-.2,0-.5.1-.7.3-.2.2-.2.4-.2.7l.3,3.5c0,.2,0,.3.2.4l6.1,5.3c.3.2.4.6.3.9l-6.5,22-.2-4.2-4.6.7c-.2,0-.4,0-.5-.2s-.1-.4,0-.6l3.3-6.4c.2-.3.2-.7,0-1s-.4-.5-.8-.6l-6.7-1.3-10.8,1.2c-.4,0-.8-.2-.9-.5l-4-8.3-5.2-1.9-2.7-4.8c-.1-.2-.3-.4-.5-.5l-3-1.2-1.8-.7-4.3-3.1c-.2-.1-.4-.2-.6-.1s-.4.1-.5.3l-1.7,2.4c-.3.4-.8.6-1.3.4l-6.6-2.3c-.3,0-.5-.3-.6-.6l-1.1-3.1c-.1-.3-.3-.6-.6-.7l-8.4-4,1.5-6.3c.1-.5.5-.9,1-1l4.9-1.1c.3,0,.6-.3.9-.5l5.8-7.2c.4-.5.4-1.2,0-1.7l-2.4-3c-.2-.3-.4-.7-.3-1.1l1.2-15.8c0-.5-.2-.9-.5-1.2l-2.8-2.2,1.6-5.2,2.5-2.7c0,.4.3.7.7.9l1.7.7h.7c.2-.1.4-.3.4-.6l.5-1.9c0-.2,0-.5-.1-.7l-2-2.9c-.1-.2-.1-.4,0-.6l.4-1.1c0-.2.3-.4.5-.4l2.3-.2c.2,0,.4,0,.5-.2l5.9-4.2c.5-.4.7-1,.6-1.6l-.5-1.8c-.1-.4,0-.9.2-1.3l3.2-4.3c.2-.3.5-.5.9-.5s.7,0,1,.3l2.6,2c.4.3.9.3,1.3,0l.9-.8c.3-.3.5-.7.4-1.1l-.7-2.9c0-.2,0-.5.1-.6.1-.2.4-.3.6-.3h3.8l8.4-2.9c.5-.2.9-.6,1.1-1.1l.7-1.8,1.8-2.4c.2-.3.5-.4.8-.4h5.8c.2.1.4.3.4.5v2.8c0,.3-.1.6-.4.7l-4.8,3.2-4.3,1.2-5.6,6.7-.9,7.2c0,.5.2,1,.7,1.1l1.8.6,3.5,7.1v.6l-1.3,2.9c-.1.3,0,.6,0,.9l2.7,3.8c.3.4.7.6,1.2.6l12.3-.9c.5,0,1,.1,1.4.5l6.5,6.1,11.5.5c.4,0,.8.3.9.8l.8,3.9c.1.7-.2,1.4-.9,1.7l-2.6,1.1c-.4.2-.6.5-.6.9l.2,4.1,2.6,7.2-2.1,4.4c-.3.7-.1,1.4.5,1.9l3,2.1c.1.1.2.2.3.4h-.3Z"/>
  </g>
</svg>