<svg width="19" height="19" viewBox="0 0 19 19" fill="none" xmlns="http://www.w3.org/2000/svg">
<path d="M11.875 5.93685V15.8327M11.875 5.93685V3.95768C11.875 3.52046 11.5206 3.16602 11.0833 3.16602H7.91667C7.47945 3.16602 7.125 3.52046 7.125 3.95768V8.31185M11.875 5.93685H15.8333C16.2706 5.93685 16.625 6.29129 16.625 6.72852V15.041C16.625 15.4783 16.2706 15.8327 15.8333 15.8327H11.875M11.875 15.8327H7.125M7.125 8.31185V15.8327M7.125 8.31185H3.16641C2.72918 8.31185 2.375 8.66628 2.375 9.10352V15.041C2.375 15.4783 2.72945 15.8327 3.16667 15.8327H7.125" stroke="#222222" stroke-width="0.8"/>
</svg>
