<?xml version="1.0" encoding="UTF-8"?>
<svg id="Capa_2" xmlns="http://www.w3.org/2000/svg" version="1.1" viewBox="0 0 1397 367">
  <!-- Generator: Adobe Illustrator 29.5.1, SVG Export Plug-In . SVG Version: 2.1.0 Build 141)  -->
  <defs>
    <style>
      .st0 {
        stroke: #37cae2;
      }

      .st0, .st1 {
        fill: none;
        stroke-miterlimit: 10;
        stroke-width: 1.5px;
      }

      .st1 {
        stroke: #0a0a0a;
      }
    </style>
  </defs>
  <g>
    <line class="st1" x1="209.5" y1="134.8" x2="209.5" y2="258.1"/>
    <line class="st1" x1="226.2" y1="151.2" x2="160.1" y2="151.2"/>
    <rect class="st1" x="165.2" y="151.2" width="10.2" height="2.6"/>
    <line class="st1" x1="170.3" y1="153.8" x2="170.3" y2="200"/>
    <circle class="st1" cx="170.3" cy="201.5" r="1.4"/>
    <path class="st1" d="M171.7,206c0,.8-.6,1.4-1.4,1.4s-1.4-.6-1.4-1.4.6-1.4,1.4-1.4v-1.8"/>
    <g>
      <rect class="st1" x="143.8" y="225.6" width="53.1" height="22"/>
      <line class="st1" x1="143.8" y1="241.6" x2="196.9" y2="241.6"/>
      <line class="st1" x1="168" y1="244.8" x2="172.8" y2="244.8"/>
      <line class="st1" x1="149.1" y1="225.6" x2="149.1" y2="241.6"/>
      <line class="st1" x1="154.4" y1="225.6" x2="154.4" y2="241.6"/>
      <line class="st1" x1="159.7" y1="225.6" x2="159.7" y2="241.6"/>
      <line class="st1" x1="165" y1="225.6" x2="165" y2="241.6"/>
      <line class="st1" x1="170.3" y1="225.6" x2="170.3" y2="241.6"/>
      <line class="st1" x1="175.6" y1="225.6" x2="175.6" y2="241.6"/>
      <line class="st1" x1="180.9" y1="225.6" x2="180.9" y2="241.6"/>
      <line class="st1" x1="186.2" y1="225.6" x2="186.2" y2="241.6"/>
      <line class="st1" x1="191.6" y1="225.6" x2="191.6" y2="241.6"/>
    </g>
    <polyline class="st1" points="143.8 225.6 170.3 207.1 196.9 225.6"/>
  </g>
  <polyline class="st1" points="67.9 313.1 67.9 305.8 73.1 300.3 84 300.3 84 294.6 95.2 289.9 95.2 305.5 105.6 305.5 105.6 285.4 120.5 285.4 120.5 313"/>
  <line class="st1" x1="105.6" y1="305.5" x2="105.6" y2="313"/>
  <rect class="st1" x="111" y="282" width="3.5" height="3.5"/>
  <rect class="st1" x="114.4" y="278.3" width="2.6" height="7.1"/>
  <line class="st1" x1="114.4" y1="280" x2="117" y2="280"/>
  <rect class="st1" x="76.8" y="295.5" width="1.8" height="4.8"/>
  <line class="st1" x1="77.7" y1="295.5" x2="77.7" y2="291.7"/>
  <line class="st1" x1="50.6" y1="325.8" x2="232.9" y2="325.8"/>
  <line class="st1" x1="120.5" y1="317.8" x2="50.6" y2="317.8"/>
  <line class="st1" x1="245.9" y1="315.2" x2="213.3" y2="315.2"/>
  <rect class="st1" x="222" y="300" width="2.2" height="6"/>
  <rect class="st1" x="220.5" y="297.8" width="5.4" height="2.2"/>
  <line class="st1" x1="223.1" y1="297.8" x2="223.1" y2="292.7"/>
  <rect class="st1" x="127.1" y="307.6" width="20.1" height="12.8"/>
  <rect class="st1" x="127.1" y="294.9" width="20.1" height="12.8"/>
  <rect class="st1" x="178.1" y="294.9" width="20.1" height="12.8"/>
  <rect class="st1" x="157.5" y="294.9" width="20.6" height="12.8"/>
  <rect class="st1" x="178.1" y="307.6" width="20.1" height="12.8"/>
  <rect class="st1" x="147.2" y="307.6" width="10.3" height="12.8"/>
  <rect class="st1" x="147.2" y="294.9" width="10.3" height="12.8"/>
  <rect class="st1" x="127.1" y="282.1" width="20.1" height="12.8"/>
  <rect class="st1" x="178.1" y="282.1" width="20.1" height="12.8"/>
  <rect class="st1" x="147.2" y="282.1" width="10.3" height="12.8"/>
  <rect class="st1" x="157.5" y="282.1" width="10.3" height="12.8"/>
  <rect class="st1" x="167.8" y="282.1" width="10.3" height="12.8"/>
  <rect class="st1" x="198.2" y="282.1" width="10.3" height="12.8"/>
  <rect class="st1" x="157.5" y="307.6" width="10.3" height="12.8"/>
  <rect class="st1" x="167.8" y="307.6" width="10.3" height="12.8"/>
  <rect class="st1" x="198.2" y="307.6" width="10.3" height="12.8"/>
  <rect class="st1" x="198.2" y="294.9" width="10.3" height="12.8"/>
  <path class="st1" d="M34.8,342.8c5.8,0,5.8,3.1,11.6,3.1s5.8-3.1,11.6-3.1,5.8,3.1,11.6,3.1,5.8-3.1,11.6-3.1,5.8,3.1,11.6,3.1,5.8-3.1,11.6-3.1,5.8,3.1,11.6,3.1,5.8-3.1,11.6-3.1,5.8,3.1,11.6,3.1,5.8-3.1,11.6-3.1,5.8,3.1,11.6,3.1,5.8-3.1,11.6-3.1,5.8,3.1,11.6,3.1,5.8-3.1,11.6-3.1,5.8,3.1,11.6,3.1,5.8-3.1,11.6-3.1,5.8,3.1,11.6,3.1,5.8-3.1,11.6-3.1,5.8,3.1,11.6,3.1,5.8-3.1,11.6-3.1,5.8,3.1,11.6,3.1,5.8-3.1,11.6-3.1,5.8,3.1,11.6,3.1,5.8-3.1,11.6-3.1,5.8,3.1,11.6,3.1"/>
  <path class="st1" d="M34.8,351.4c5.8,0,5.8,3.1,11.6,3.1s5.8-3.1,11.6-3.1,5.8,3.1,11.6,3.1,5.8-3.1,11.6-3.1,5.8,3.1,11.6,3.1,5.8-3.1,11.6-3.1,5.8,3.1,11.6,3.1,5.8-3.1,11.6-3.1,5.8,3.1,11.6,3.1,5.8-3.1,11.6-3.1,5.8,3.1,11.6,3.1,5.8-3.1,11.6-3.1,5.8,3.1,11.6,3.1,5.8-3.1,11.6-3.1,5.8,3.1,11.6,3.1,5.8-3.1,11.6-3.1,5.8,3.1,11.6,3.1,5.8-3.1,11.6-3.1,5.8,3.1,11.6,3.1,5.8-3.1,11.6-3.1,5.8,3.1,11.6,3.1,5.8-3.1,11.6-3.1,5.8,3.1,11.6,3.1,5.8-3.1,11.6-3.1,5.8,3.1,11.6,3.1"/>
  <g>
    <rect class="st1" x="197.8" y="258.1" width="71.2" height="7.8"/>
    <line class="st1" x1="203.5" y1="282.1" x2="203.5" y2="265.9"/>
    <line class="st1" x1="208.5" y1="319.1" x2="208.5" y2="265.9"/>
    <line class="st1" x1="258.9" y1="319.7" x2="258.9" y2="265.9"/>
    <line class="st1" x1="263.9" y1="319.7" x2="263.9" y2="265.9"/>
    <polyline class="st1" points="214.8 312.9 214.8 297.8 220.5 297.8"/>
    <polyline class="st1" points="228.9 306 228.9 297.8 251.9 297.8 251.9 319.7"/>
    <line class="st1" x1="208.5" y1="290.9" x2="258.9" y2="290.9"/>
    <line class="st1" x1="208.5" y1="287.2" x2="258.9" y2="287.2"/>
    <rect class="st1" x="213.5" y="271.5" width="9.8" height="9.8"/>
    <rect class="st1" x="228.8" y="271.5" width="9.8" height="9.8"/>
    <rect class="st1" x="244.1" y="271.5" width="9.8" height="9.8"/>
    <polyline class="st1" points="263.9 271.5 325.5 271.5 325.5 319.7"/>
    <line class="st1" x1="263.9" y1="308.4" x2="325.5" y2="308.4"/>
    <line class="st1" x1="263.9" y1="301.9" x2="325.5" y2="301.9"/>
    <rect class="st1" x="272.5" y="278" width="19.3" height="23.9"/>
    <line class="st1" x1="272.5" y1="285.4" x2="291.8" y2="285.4"/>
    <rect class="st1" x="279.2" y="285.4" width="5.9" height="3.3"/>
    <line class="st1" x1="291.8" y1="281.9" x2="272.5" y2="281.9"/>
    <rect class="st1" x="298.9" y="278" width="19.3" height="23.9"/>
    <line class="st1" x1="298.9" y1="285.4" x2="318.2" y2="285.4"/>
    <rect class="st1" x="305.6" y="285.4" width="5.9" height="3.3"/>
    <line class="st1" x1="318.2" y1="281.9" x2="298.9" y2="281.9"/>
  </g>
  <rect class="st1" x="209.5" y="151.2" width="8.2" height="8.2"/>
  <g>
    <line class="st1" x1="1033.9" y1="134.8" x2="1033.9" y2="272.4"/>
    <line class="st1" x1="1017.2" y1="151.2" x2="1083.3" y2="151.2"/>
    <rect class="st1" x="1068" y="151.2" width="10.2" height="2.6"/>
    <line class="st1" x1="1073.1" y1="153.8" x2="1073.1" y2="200"/>
    <circle class="st1" cx="1073.1" cy="201.5" r="1.4"/>
    <path class="st1" d="M1071.7,206c0,.8.6,1.4,1.4,1.4s1.4-.6,1.4-1.4-.6-1.4-1.4-1.4v-1.8"/>
    <g>
      <rect class="st1" x="1046.6" y="225.6" width="53.1" height="22"/>
      <line class="st1" x1="1099.7" y1="241.6" x2="1046.6" y2="241.6"/>
      <line class="st1" x1="1075.5" y1="244.8" x2="1070.7" y2="244.8"/>
      <line class="st1" x1="1094.3" y1="225.6" x2="1094.3" y2="241.6"/>
      <line class="st1" x1="1089" y1="225.6" x2="1089" y2="241.6"/>
      <line class="st1" x1="1083.7" y1="225.6" x2="1083.7" y2="241.6"/>
      <line class="st1" x1="1078.4" y1="225.6" x2="1078.4" y2="241.6"/>
      <line class="st1" x1="1073.1" y1="225.6" x2="1073.1" y2="241.6"/>
      <line class="st1" x1="1067.8" y1="225.6" x2="1067.8" y2="241.6"/>
      <line class="st1" x1="1062.5" y1="225.6" x2="1062.5" y2="241.6"/>
      <line class="st1" x1="1057.2" y1="225.6" x2="1057.2" y2="241.6"/>
      <line class="st1" x1="1051.9" y1="225.6" x2="1051.9" y2="241.6"/>
    </g>
    <polyline class="st1" points="1099.7 225.6 1073.1 207.1 1046.6 225.6"/>
  </g>
  <rect class="st1" x="1025.7" y="151.2" width="8.2" height="8.2"/>
  <rect class="st1" x="279.2" y="256.6" width="14.8" height="14.8"/>
  <rect class="st1" x="294" y="256.6" width="14.8" height="14.8"/>
  <rect class="st1" x="286.6" y="241.5" width="14.8" height="14.8"/>
  <polyline class="st1" points="984 319.7 984 272.2 1045.7 272.2 1045.7 319.7"/>
  <line class="st1" x1="984" y1="309.1" x2="1045.7" y2="309.1"/>
  <line class="st1" x1="984" y1="302.6" x2="1045.7" y2="302.6"/>
  <rect class="st1" x="992.6" y="278.7" width="19.3" height="23.9"/>
  <line class="st1" x1="992.6" y1="286.1" x2="1012" y2="286.1"/>
  <rect class="st1" x="999.4" y="286.1" width="5.9" height="3.3"/>
  <line class="st1" x1="1012" y1="282.5" x2="992.6" y2="282.5"/>
  <rect class="st1" x="1019" y="278.7" width="19.3" height="23.9"/>
  <line class="st1" x1="1019" y1="286.1" x2="1038.4" y2="286.1"/>
  <rect class="st1" x="1025.8" y="286.1" width="5.9" height="3.3"/>
  <line class="st1" x1="1038.4" y1="282.5" x2="1019" y2="282.5"/>
  <rect class="st1" x="1045.7" y="304.9" width="14.8" height="14.8"/>
  <rect class="st1" x="1060.5" y="304.9" width="14.8" height="14.8"/>
  <rect class="st1" x="1053.1" y="289.8" width="14.8" height="14.8"/>
  <polyline class="st1" points="391.3 277.1 391.3 136.9 436.9 109.3 436.9 319.7 391.3 319.7 391.3 310.7"/>
  <line class="st1" x1="343.3" y1="280.5" x2="325.5" y2="280.5"/>
  <line class="st1" x1="332.8" y1="291.3" x2="343.3" y2="291.3"/>
  <line class="st1" x1="332.8" y1="300" x2="343.3" y2="300"/>
  <line class="st1" x1="332.8" y1="308.7" x2="343.3" y2="308.7"/>
  <polyline class="st1" points="382 277.1 382 170.5 334.8 170.5 334.8 280.5"/>
  <rect class="st1" x="347.5" y="152.5" width="22.4" height="18"/>
  <line class="st1" x1="356.4" y1="124.6" x2="356.4" y2="152.5"/>
  <line class="st1" x1="362.5" y1="143" x2="362.5" y2="152.5"/>
  <line class="st1" x1="339.9" y1="191.2" x2="377.2" y2="191.2"/>
  <line class="st1" x1="339.9" y1="181.3" x2="377.2" y2="181.3"/>
  <line class="st1" x1="339.9" y1="201.5" x2="377.2" y2="201.5"/>
  <line class="st1" x1="339.9" y1="211.8" x2="377.2" y2="211.8"/>
  <line class="st1" x1="339.9" y1="222.1" x2="377.2" y2="222.1"/>
  <line class="st1" x1="339.9" y1="232.4" x2="377.2" y2="232.4"/>
  <line class="st1" x1="339.9" y1="242.7" x2="377.2" y2="242.7"/>
  <line class="st1" x1="415.3" y1="278.7" x2="429.5" y2="278.7"/>
  <line class="st1" x1="415.3" y1="287.1" x2="429.5" y2="287.1"/>
  <line class="st1" x1="339.9" y1="253" x2="377.2" y2="253"/>
  <line class="st1" x1="339.9" y1="263.3" x2="377.2" y2="263.3"/>
  <line class="st1" x1="339.9" y1="273.6" x2="377.2" y2="273.6"/>
  <g>
    <rect class="st1" x="399.7" y="147.7" width="10.5" height="10.5"/>
    <rect class="st1" x="418.2" y="147.7" width="10.5" height="10.5"/>
  </g>
  <g>
    <rect class="st1" x="399.7" y="166.4" width="10.5" height="10.5"/>
    <rect class="st1" x="418.2" y="166.4" width="10.5" height="10.5"/>
  </g>
  <g>
    <rect class="st1" x="399.7" y="185.2" width="10.5" height="10.5"/>
    <rect class="st1" x="418.2" y="185.2" width="10.5" height="10.5"/>
  </g>
  <g>
    <rect class="st1" x="399.7" y="203.9" width="10.5" height="10.5"/>
    <rect class="st1" x="418.2" y="203.9" width="10.5" height="10.5"/>
  </g>
  <g>
    <rect class="st1" x="399.7" y="222.6" width="10.5" height="10.5"/>
    <rect class="st1" x="418.2" y="222.6" width="10.5" height="10.5"/>
  </g>
  <g>
    <rect class="st1" x="399.7" y="241.3" width="10.5" height="10.5"/>
    <rect class="st1" x="418.2" y="241.3" width="10.5" height="10.5"/>
  </g>
  <g>
    <rect class="st1" x="399.7" y="260" width="10.5" height="10.5"/>
    <rect class="st1" x="418.2" y="260" width="10.5" height="10.5"/>
  </g>
  <line class="st1" x1="436.9" y1="109.3" x2="436.9" y2="75.7"/>
  <line class="st1" x1="427.8" y1="114.8" x2="427.8" y2="99.4"/>
  <line class="st1" x1="391.3" y1="144.5" x2="436.9" y2="116.5"/>
  <polyline class="st1" points="625.8 319.7 625.8 235.3 649.6 235.3 649.6 250.1"/>
  <line class="st1" x1="641.2" y1="311.8" x2="641.2" y2="293.3"/>
  <line class="st1" x1="641.2" y1="251.7" x2="641.2" y2="245.6"/>
  <line class="st1" x1="634.2" y1="311.8" x2="634.2" y2="288.7"/>
  <line class="st1" x1="634.2" y1="256.2" x2="634.2" y2="245.6"/>
  <polyline class="st1" points="704.3 319.7 704.3 214.9 672.7 214.9 672.7 268.9"/>
  <polyline class="st1" points="670.2 301 670.2 319.7 655.8 319.7 655.8 294"/>
  <polyline class="st1" points="679.1 301 679.1 311.8 685.7 311.8 698.2 311.8 698.2 223 685.7 223 679.1 223 679.1 269.4"/>
  <polyline class="st1" points="685.7 312.3 685.7 311.8 685.7 297.4"/>
  <line class="st1" x1="685.7" y1="272.9" x2="685.7" y2="223"/>
  <line class="st1" x1="692.3" y1="223" x2="692.3" y2="312.3"/>
  <rect class="st1" x="704.3" y="161.9" width="61.8" height="157.8"/>
  <rect class="st1" x="720.2" y="144.8" width="30.6" height="17"/>
  <line class="st1" x1="720.2" y1="161.9" x2="720.2" y2="319.8"/>
  <line class="st1" x1="750.9" y1="161.9" x2="750.9" y2="319.8"/>
  <line class="st1" x1="740.7" y1="171.5" x2="740.7" y2="319.8"/>
  <line class="st1" x1="730.6" y1="171.5" x2="730.6" y2="319.8"/>
  <line class="st1" x1="750.9" y1="171.5" x2="720.2" y2="171.5"/>
  <line class="st1" x1="726.1" y1="149.1" x2="726.1" y2="159.1"/>
  <line class="st1" x1="732.3" y1="149.1" x2="732.3" y2="159.1"/>
  <line class="st1" x1="738.5" y1="149.1" x2="738.5" y2="159.1"/>
  <line class="st1" x1="744.6" y1="149.1" x2="744.6" y2="159.1"/>
  <line class="st0" x1="6.5" y1="319.7" x2="50.6" y2="319.7"/>
  <rect class="st1" x="1346.9" y="299.4" width="22.9" height="20.3"/>
  <rect class="st1" x="1296.3" y="282.3" width="50.6" height="37.4"/>
  <polyline class="st1" points="1207.7 277.1 1207.7 258.5 1272.2 258.5 1272.2 319.7"/>
  <line class="st1" x1="1207.7" y1="319.7" x2="1207.7" y2="310.7"/>
  <polyline class="st1" points="1244.7 258.5 1244.7 217.2 1296.3 217.2 1296.3 319.7"/>
  <rect class="st1" x="1250" y="225.9" width="6.2" height="6.2"/>
  <rect class="st1" x="1261.1" y="225.9" width="6.2" height="6.2"/>
  <rect class="st1" x="1272.2" y="225.9" width="6.2" height="6.2"/>
  <rect class="st1" x="1283.3" y="225.9" width="6.2" height="6.2"/>
  <rect class="st1" x="1250" y="236.6" width="6.2" height="6.2"/>
  <rect class="st1" x="1261.1" y="236.6" width="6.2" height="6.2"/>
  <rect class="st1" x="1272.2" y="236.6" width="6.2" height="6.2"/>
  <rect class="st1" x="1283.3" y="236.6" width="6.2" height="6.2"/>
  <rect class="st1" x="1250" y="247.4" width="6.2" height="6.2"/>
  <rect class="st1" x="1261.1" y="247.4" width="6.2" height="6.2"/>
  <rect class="st1" x="1272.2" y="247.4" width="6.2" height="6.2"/>
  <rect class="st1" x="1283.3" y="247.4" width="6.2" height="6.2"/>
  <rect class="st1" x="1272.2" y="258.5" width="6.2" height="6.2"/>
  <rect class="st1" x="1283.3" y="258.5" width="6.2" height="6.2"/>
  <rect class="st1" x="1272.2" y="269.3" width="6.2" height="6.2"/>
  <rect class="st1" x="1283.3" y="269.3" width="6.2" height="6.2"/>
  <rect class="st1" x="1272.2" y="280" width="6.2" height="6.2"/>
  <rect class="st1" x="1283.3" y="280" width="6.2" height="6.2"/>
  <rect class="st1" x="1272.2" y="291.1" width="6.2" height="6.2"/>
  <rect class="st1" x="1283.3" y="291.1" width="6.2" height="6.2"/>
  <rect class="st1" x="1272.2" y="301.9" width="6.2" height="6.2"/>
  <rect class="st1" x="1283.3" y="301.9" width="6.2" height="6.2"/>
  <polyline class="st1" points="1213.5 277.2 1213.5 264.7 1239.4 264.7 1239.4 308.1 1234.8 308.1"/>
  <line class="st1" x1="1226.2" y1="264.7" x2="1226.2" y2="289.6"/>
  <line class="st1" x1="1219.8" y1="264.7" x2="1219.8" y2="289.6"/>
  <line class="st1" x1="1233.3" y1="264.7" x2="1233.3" y2="295.7"/>
  <line class="st1" x1="1213.5" y1="271.3" x2="1239.4" y2="271.3"/>
  <line class="st1" x1="1213.5" y1="277.4" x2="1239.4" y2="277.4"/>
  <line class="st1" x1="1213.5" y1="283.5" x2="1239.4" y2="283.5"/>
  <line class="st1" x1="1213.5" y1="289.6" x2="1239.4" y2="289.6"/>
  <line class="st1" x1="1233.9" y1="295.7" x2="1239.4" y2="295.7"/>
  <line class="st1" x1="1234.8" y1="301.8" x2="1239.4" y2="301.8"/>
  <line class="st1" x1="1244.1" y1="266.9" x2="1267" y2="266.9"/>
  <line class="st1" x1="1244.1" y1="271.9" x2="1267" y2="271.9"/>
  <line class="st1" x1="1244.1" y1="276.8" x2="1267" y2="276.8"/>
  <line class="st1" x1="1244.1" y1="281.8" x2="1267" y2="281.8"/>
  <line class="st1" x1="1244.1" y1="286.7" x2="1267" y2="286.7"/>
  <polyline class="st1" points="1244.8 319.7 1244.8 290.7 1266.6 290.7 1266.6 319.7"/>
  <line class="st1" x1="1244.8" y1="294.7" x2="1266.6" y2="294.7"/>
  <line class="st1" x1="1255.5" y1="294.8" x2="1255.5" y2="319.7"/>
  <rect class="st1" x="1302.2" y="287.8" width="38.9" height="6.5"/>
  <rect class="st1" x="1307.9" y="303.4" width="27.3" height="16.3"/>
  <rect class="st1" x="1317.4" y="317" width="8.4" height="2.7"/>
  <line class="st1" x1="1307.9" y1="314.4" x2="1335.3" y2="314.4"/>
  <line class="st1" x1="1307.9" y1="310.8" x2="1335.3" y2="310.8"/>
  <line class="st1" x1="1307.9" y1="307.1" x2="1335.3" y2="307.1"/>
  <g>
    <line class="st1" x1="1351.3" y1="302.4" x2="1351.3" y2="311.9"/>
    <line class="st1" x1="1354.8" y1="302.4" x2="1354.8" y2="311.9"/>
    <line class="st1" x1="1358.4" y1="302.4" x2="1358.4" y2="311.9"/>
    <line class="st1" x1="1361.9" y1="302.4" x2="1361.9" y2="311.9"/>
    <line class="st1" x1="1365.5" y1="302.4" x2="1365.5" y2="311.9"/>
  </g>
  <rect class="st1" x="1359.7" y="294.3" width="5.8" height="5.1"/>
  <line class="st1" x1="1362.6" y1="288.4" x2="1362.6" y2="294.3"/>
  <line class="st1" x1="1253.6" y1="217.2" x2="1253.6" y2="197"/>
  <line class="st1" x1="1258.6" y1="217.2" x2="1258.6" y2="205.8"/>
  <path class="st1" d="M776.3,60.7c-2.9,0-5.2-2.4-5.2-5.2s2.3-5.2,5.2-5.2.9,0,1.3.2c.7-3.1,3.4-5.5,6.8-5.5s2.3.3,3.3.8c1.3-3.4,4.6-5.9,8.5-5.9s9.2,4.1,9.2,9.2v.2c.5-.1,1-.2,1.6-.2,3.6,0,6.5,2.9,6.5,6.5s-2.9,6.5-6.5,6.5h-15.4"/>
  <path class="st1" d="M194.9,91.5c-2.9,0-5.2-2.4-5.2-5.2s2.3-5.2,5.2-5.2.9,0,1.3.2c.6-3.1,3.4-5.5,6.8-5.5s2.3.3,3.3.8c1.3-3.4,4.6-5.9,8.6-5.9s9.1,4.1,9.1,9.2v.2c.5-.1,1-.2,1.6-.2,3.6,0,6.5,2.9,6.5,6.5s-2.9,6.5-6.5,6.5h-15.4"/>
  <path class="st1" d="M958.5,98.2c-2.9,0-5.2-2.4-5.2-5.2s2.3-5.2,5.2-5.2.9,0,1.3.2c.7-3.1,3.4-5.5,6.8-5.5s2.3.3,3.3.8c1.3-3.4,4.6-5.9,8.5-5.9s9.2,4.1,9.2,9.2v.2c.5-.1,1-.2,1.6-.2,3.6,0,6.5,2.9,6.5,6.5s-2.9,6.5-6.5,6.5h-15.4"/>
  <path class="st1" d="M1168.8,62.4c-2.9,0-5.2-2.4-5.2-5.2s2.3-5.2,5.2-5.2.9,0,1.3.2c.7-3.1,3.4-5.5,6.8-5.5s2.3.3,3.3.8c1.3-3.4,4.6-5.9,8.6-5.9s9.2,4.1,9.2,9.2v.2c.5-.1,1-.2,1.6-.2,3.6,0,6.5,2.9,6.5,6.5s-2.9,6.5-6.5,6.5h-15.4"/>
  <g>
    <line class="st1" x1="451.4" y1="85.1" x2="451.4" y2="92.8"/>
    <line class="st1" x1="455.3" y1="88.9" x2="447.6" y2="88.9"/>
  </g>
  <g>
    <line class="st1" x1="102.6" y1="105.4" x2="102.6" y2="113.1"/>
    <line class="st1" x1="106.4" y1="109.3" x2="98.7" y2="109.3"/>
  </g>
  <g>
    <line class="st1" x1="297.2" y1="70.9" x2="297.2" y2="78.6"/>
    <line class="st1" x1="301" y1="74.7" x2="293.3" y2="74.7"/>
  </g>
  <g>
    <line class="st1" x1="1169.8" y1="167.8" x2="1169.8" y2="175.6"/>
    <line class="st1" x1="1173.7" y1="171.7" x2="1166" y2="171.7"/>
  </g>
  <g>
    <line class="st1" x1="1264.1" y1="59.9" x2="1264.1" y2="67.6"/>
    <line class="st1" x1="1267.9" y1="63.7" x2="1260.2" y2="63.7"/>
  </g>
  <g>
    <line class="st1" x1="804.6" y1="121.2" x2="804.6" y2="128.9"/>
    <line class="st1" x1="808.5" y1="125.1" x2="800.8" y2="125.1"/>
  </g>
  <g>
    <line class="st1" x1="596.8" y1="99.4" x2="596.8" y2="107.1"/>
    <line class="st1" x1="600.6" y1="103.2" x2="592.9" y2="103.2"/>
  </g>
  <g>
    <line class="st1" x1="726.4" y1="28.5" x2="726.4" y2="36.2"/>
    <line class="st1" x1="730.3" y1="32.4" x2="722.5" y2="32.4"/>
  </g>
  <g>
    <line class="st1" x1="1062" y1="88.9" x2="1062" y2="96.7"/>
    <line class="st1" x1="1065.8" y1="92.8" x2="1058.1" y2="92.8"/>
  </g>
  <g>
    <line class="st1" x1="231.6" y1="159.8" x2="231.6" y2="167.6"/>
    <line class="st1" x1="235.5" y1="163.7" x2="227.8" y2="163.7"/>
  </g>
  <path class="st1" d="M625.8,155.8c1.9,0,3.4-1.5,3.4-3.4s-1.5-3.4-3.4-3.4-1.1.1-1.5.4c0-3.7-3.1-6.6-6.8-6.6s-6.7,2.9-6.8,6.6c-.4-.1-.9-.2-1.4-.2-2.5,0-4.5,2-4.5,4.5s2,4.5,4.5,4.5h11.4"/>
  <path class="st1" d="M1301.6,187.6c1.9,0,3.4-1.5,3.4-3.4s-1.5-3.4-3.4-3.4-1.1.1-1.5.4c0-3.7-3.1-6.6-6.8-6.6s-6.7,2.9-6.8,6.6c-.4-.1-.9-.2-1.4-.2-2.5,0-4.5,2-4.5,4.5s2,4.5,4.5,4.5h11.4"/>
  <path class="st1" d="M77.2,145.6c1.9,0,3.4-1.5,3.4-3.4s-1.5-3.4-3.4-3.4-1.1.1-1.5.4c0-3.7-3.1-6.6-6.8-6.6s-6.7,2.9-6.8,6.6c-.4-.1-.9-.2-1.4-.2-2.5,0-4.5,2-4.5,4.5s2,4.5,4.5,4.5h11.4"/>
  <g>
    <path class="st1" d="M671.8,269c-1.7-10.8-11-19-22.2-19s-22.4,10-22.4,22.4,10,22.4,22.4,22.4.2,0,.3,0c3.6,0,7-.9,10-2.5"/>
    <line class="st1" x1="649.9" y1="319.7" x2="649.9" y2="276.4"/>
    <line class="st1" x1="655.8" y1="282.8" x2="649.9" y2="289.5"/>
    <line class="st1" x1="642.1" y1="275.6" x2="649.9" y2="282.7"/>
  </g>
  <g>
    <circle class="st1" cx="674.7" cy="285.2" r="16.4"/>
    <line class="st1" x1="675" y1="319.7" x2="675" y2="288.1"/>
    <line class="st1" x1="679.3" y1="292.8" x2="675" y2="297.7"/>
    <line class="st1" x1="669.2" y1="287.5" x2="675" y2="292.7"/>
  </g>
  <circle class="st1" cx="358.9" cy="36.9" r="20.7"/>
  <g>
    <polyline class="st1" points="347.9 310.7 343.3 310.7 343.3 277.1 415.3 277.1 415.3 310.7 370 310.7"/>
    <line class="st1" x1="360.9" y1="310.7" x2="357" y2="310.7"/>
    <circle class="st1" cx="352.4" cy="313.1" r="5.1"/>
    <circle class="st1" cx="352.4" cy="313.1" r="2.9"/>
    <circle class="st1" cx="365.5" cy="313.1" r="5.1"/>
    <circle class="st1" cx="365.5" cy="313.1" r="2.9"/>
    <circle class="st1" cx="427.5" cy="313.1" r="5.1"/>
    <circle class="st1" cx="427.5" cy="313.1" r="2.9"/>
    <polyline class="st1" points="418.5 310.6 418.5 289.6 433.1 289.6 436.6 300.1 436.6 310.7 432 310.7"/>
    <line class="st1" x1="422.9" y1="310.7" x2="415.3" y2="310.7"/>
    <polyline class="st1" points="423.8 289.6 423.8 300.4 436.6 300.4"/>
    <line class="st1" x1="415.3" y1="307.6" x2="343.3" y2="307.6"/>
    <g>
      <line class="st1" x1="353" y1="282.9" x2="353" y2="302.4"/>
      <line class="st1" x1="363.5" y1="282.9" x2="363.5" y2="302.4"/>
      <line class="st1" x1="374" y1="282.9" x2="374" y2="302.4"/>
      <line class="st1" x1="384.5" y1="282.9" x2="384.5" y2="302.4"/>
      <line class="st1" x1="395.1" y1="282.9" x2="395.1" y2="302.4"/>
      <line class="st1" x1="405.6" y1="282.9" x2="405.6" y2="302.4"/>
    </g>
  </g>
  <g>
    <polyline class="st1" points="1146.1 310.7 1141.4 310.7 1141.4 277.4 1213.5 277.4 1213.5 310.7 1168.2 310.7"/>
    <line class="st1" x1="1159.1" y1="310.7" x2="1155.1" y2="310.7"/>
    <circle class="st1" cx="1150.6" cy="313.1" r="5.1"/>
    <circle class="st1" cx="1150.6" cy="313.1" r="2.9"/>
    <circle class="st1" cx="1163.7" cy="313.1" r="5.1"/>
    <circle class="st1" cx="1163.7" cy="313.1" r="2.9"/>
    <circle class="st1" cx="1225.7" cy="313.1" r="5.1"/>
    <circle class="st1" cx="1225.7" cy="313.1" r="2.9"/>
    <polyline class="st1" points="1216.7 310.6 1216.7 289.6 1231.2 289.6 1234.8 300.1 1234.8 310.7 1230.2 310.7"/>
    <line class="st1" x1="1221.1" y1="310.7" x2="1213.5" y2="310.7"/>
    <polyline class="st1" points="1221.9 289.6 1221.9 300.4 1234.8 300.4"/>
    <line class="st1" x1="1213.5" y1="307.6" x2="1141.4" y2="307.6"/>
    <g>
      <line class="st1" x1="1151.1" y1="282.9" x2="1151.1" y2="302.4"/>
      <line class="st1" x1="1161.7" y1="282.9" x2="1161.7" y2="302.4"/>
      <line class="st1" x1="1172.2" y1="282.9" x2="1172.2" y2="302.4"/>
      <line class="st1" x1="1182.7" y1="282.9" x2="1182.7" y2="302.4"/>
      <line class="st1" x1="1193.3" y1="282.9" x2="1193.3" y2="302.4"/>
      <line class="st1" x1="1203.8" y1="282.9" x2="1203.8" y2="302.4"/>
    </g>
  </g>
  <rect class="st1" x="436.9" y="254.1" width="94.4" height="65.7"/>
  <rect class="st1" x="531.3" y="254.1" width="94.5" height="65.7"/>
  <rect class="st1" x="463.5" y="261.8" width="41.1" height="57.9"/>
  <rect class="st1" x="441.3" y="278" width="14.6" height="14.6"/>
  <rect class="st1" x="511.2" y="278" width="14.6" height="14.6"/>
  <line class="st1" x1="484.1" y1="261.8" x2="484.1" y2="319.8"/>
  <line class="st1" x1="463.5" y1="266.5" x2="504.6" y2="266.5"/>
  <line class="st1" x1="463.5" y1="272.5" x2="504.6" y2="272.5"/>
  <line class="st1" x1="463.5" y1="278.4" x2="504.6" y2="278.4"/>
  <line class="st1" x1="463.5" y1="284.4" x2="504.6" y2="284.4"/>
  <line class="st1" x1="463.5" y1="290.4" x2="504.6" y2="290.4"/>
  <line class="st1" x1="463.5" y1="296.4" x2="504.6" y2="296.4"/>
  <line class="st1" x1="463.5" y1="302.3" x2="504.6" y2="302.3"/>
  <line class="st1" x1="436.9" y1="308.3" x2="625.8" y2="308.3"/>
  <rect class="st1" x="470.3" y="316" width="7" height="3.7"/>
  <rect class="st1" x="490.9" y="316" width="7" height="3.8"/>
  <rect class="st1" x="558.4" y="261.8" width="41.1" height="57.9"/>
  <rect class="st1" x="536.2" y="278" width="14.6" height="14.6"/>
  <rect class="st1" x="606.1" y="278" width="14.6" height="14.6"/>
  <line class="st1" x1="579" y1="261.8" x2="579" y2="319.7"/>
  <line class="st1" x1="558.4" y1="266.5" x2="599.5" y2="266.5"/>
  <line class="st1" x1="558.4" y1="272.5" x2="599.5" y2="272.5"/>
  <line class="st1" x1="558.4" y1="278.4" x2="599.5" y2="278.4"/>
  <line class="st1" x1="558.4" y1="284.4" x2="599.5" y2="284.4"/>
  <line class="st1" x1="558.4" y1="290.4" x2="599.5" y2="290.4"/>
  <line class="st1" x1="558.4" y1="296.4" x2="599.5" y2="296.4"/>
  <line class="st1" x1="558.4" y1="302.3" x2="599.5" y2="302.3"/>
  <rect class="st1" x="565.2" y="316" width="7" height="3.7"/>
  <rect class="st1" x="585.8" y="316" width="7" height="3.7"/>
  <path class="st1" d="M531.3,254.1h0c-11.9-12.4-28.6-20.1-47.1-20.1s-35.2,7.7-47.1,20.1c0,0,0,0,0,0"/>
  <path class="st1" d="M625.8,254.1h0c-11.9-12.4-28.6-20.1-47.1-20.1s-35.2,7.7-47.1,20.1c0,0,0,0,0,0"/>
  <g>
    <path class="st1" d="M1092.3,314.4h13.6"/>
    <path class="st1" d="M1084.2,314.4h-2.4v-10.9h13.8v4.2h7.4l4.3-6.8h5v7.2"/>
    <polyline class="st1" points="1109.7 301 1102.8 286.7 1085.3 286.7 1085.3 303.6"/>
    <polyline class="st1" points="1112.2 282.2 1112.2 307.1 1130.5 307.1"/>
    <circle class="st1" cx="1088.2" cy="314.4" r="4.1"/>
    <circle class="st1" cx="1088.2" cy="314.4" r="1.7"/>
    <circle class="st1" cx="1111.1" cy="313.3" r="5.2"/>
    <circle class="st1" cx="1111.1" cy="313.3" r="2.7"/>
    <line class="st1" x1="1107.2" y1="301" x2="1103" y2="297.5"/>
    <line class="st1" x1="1104.3" y1="295.9" x2="1101.6" y2="299"/>
    <line class="st1" x1="1085.3" y1="305.6" x2="1085.3" y2="308.6"/>
    <line class="st1" x1="1088.1" y1="305.6" x2="1088.1" y2="308.6"/>
    <line class="st1" x1="1090.9" y1="305.6" x2="1090.9" y2="308.6"/>
    <polygon class="st1" points="1094.7 299.9 1094.7 303.6 1087.8 303.6 1087.8 293.1 1091.5 293.1 1091.5 299.9 1094.7 299.9"/>
  </g>
  <polygon class="st1" points="875 252.9 820.6 235.2 766.1 252.9 766.1 319.7 875 319.7 875 252.9"/>
  <rect class="st1" x="790" y="268.7" width="61.1" height="51"/>
  <line class="st1" x1="790" y1="278.9" x2="851.1" y2="278.9"/>
  <line class="st1" x1="790" y1="289.1" x2="851.1" y2="289.1"/>
  <line class="st1" x1="766.1" y1="299.3" x2="875" y2="299.3"/>
  <line class="st1" x1="766.1" y1="309.6" x2="875" y2="309.6"/>
  <polygon class="st1" points="984 252.9 929.5 235.2 875 252.9 875 319.7 984 319.7 984 252.9"/>
  <rect class="st1" x="899" y="268.7" width="61.1" height="51"/>
  <line class="st1" x1="875" y1="299.3" x2="899" y2="299.3"/>
  <line class="st1" x1="960.1" y1="299.3" x2="984" y2="299.3"/>
  <line class="st1" x1="875" y1="309.6" x2="984" y2="309.6"/>
  <line class="st1" x1="1053.1" y1="289.8" x2="1067.9" y2="304.6"/>
  <rect class="st1" x="905.4" y="294.8" width="14.8" height="14.8"/>
  <rect class="st1" x="920.2" y="294.8" width="14.8" height="14.8"/>
  <rect class="st1" x="935.1" y="294.8" width="14.8" height="14.8"/>
  <rect class="st1" x="905.4" y="279.9" width="14.8" height="14.8"/>
  <line class="st1" x1="905.4" y1="279.9" x2="920.2" y2="294.8"/>
  <rect class="st1" x="920.2" y="279.9" width="14.8" height="14.8"/>
  <line class="st1" x1="935.1" y1="279.9" x2="920.2" y2="294.8"/>
  <rect class="st1" x="1210.2" y="243.7" width="14.8" height="14.8"/>
  <rect class="st1" x="1225" y="243.7" width="14.8" height="14.8"/>
  <rect class="st1" x="1217.6" y="228.9" width="14.8" height="14.8"/>
  <line class="st1" x1="1217.6" y1="228.9" x2="1232.4" y2="243.7"/>
  <rect class="st1" x="1112.2" y="292.3" width="14.8" height="14.8"/>
  <line class="st1" x1="1112.2" y1="292.3" x2="1127" y2="307.1"/>
  <line class="st1" x1="814.4" y1="261.1" x2="826.8" y2="261.1"/>
  <line class="st1" x1="923.4" y1="261.1" x2="935.7" y2="261.1"/>
  <line class="st0" x1="240.6" y1="319.7" x2="1389.4" y2="319.7"/>
  <polyline class="st1" points="59 334.3 50.6 325.9 50.6 313.2 120.5 313 120.5 320.4 213.3 320.4 213.3 315.2 219.4 306 233 306 233 302.3 245.9 302.3 245.9 315.4 222.6 334.3"/>
  <path class="st0" d="M34.8,334.2c5.8,0,5.8,3.1,11.6,3.1s5.8-3.1,11.6-3.1,5.8,3.1,11.6,3.1,5.8-3.1,11.6-3.1,5.8,3.1,11.6,3.1,5.8-3.1,11.6-3.1,5.8,3.1,11.6,3.1,5.8-3.1,11.6-3.1,5.8,3.1,11.6,3.1,5.8-3.1,11.6-3.1,5.8,3.1,11.6,3.1,5.8-3.1,11.6-3.1,5.8,3.1,11.6,3.1,5.8-3.1,11.6-3.1,5.8,3.1,11.6,3.1,5.8-3.1,11.6-3.1,5.8,3.1,11.6,3.1,5.8-3.1,11.6-3.1,5.8,3.1,11.6,3.1,5.8-3.1,11.6-3.1,5.8,3.1,11.6,3.1,5.8-3.1,11.6-3.1,5.8,3.1,11.6,3.1,5.8-3.1,11.6-3.1,5.8,3.1,11.6,3.1"/>
</svg>