<svg width="50" height="50" viewBox="0 0 50 50" fill="none" xmlns="http://www.w3.org/2000/svg">
<circle cx="25" cy="25" r="25" fill="#10356B"/>
<path d="M28.1 17C28.0344 17.3231 28 17.6575 28 18C28 18.3425 28.0344 18.6769 28.1 19H16.5115L24.0619 25.662L29.1098 21.1414C29.5363 21.6689 30.0679 22.1079 30.6728 22.4265L24.0718 28.338L16 21.2159V33H32V22.9C32.3231 22.9656 32.6575 23 33 23C33.3425 23 33.6769 22.9656 34 22.9V34C34 34.5523 33.5523 35 33 35H15C14.4477 35 14 34.5523 14 34V18C14 17.4477 14.4477 17 15 17H28.1ZM33 15C34.6569 15 36 16.3432 36 18C36 19.6568 34.6569 21 33 21C31.3431 21 30 19.6568 30 18C30 16.3432 31.3431 15 33 15Z" fill="white"/>
</svg>
