<svg width="1409" height="497" viewBox="0 0 1409 497" fill="none" xmlns="http://www.w3.org/2000/svg">
<path d="M215.49 248.46V371.77" stroke="black" stroke-width="1.5" stroke-miterlimit="10"/>
<path d="M232.18 264.93H166.09" stroke="black" stroke-width="1.5" stroke-miterlimit="10"/>
<path d="M181.41 264.93H171.22V267.5H181.41V264.93Z" stroke="black" stroke-width="1.5" stroke-miterlimit="10"/>
<path d="M176.31 267.5V313.72" stroke="black" stroke-width="1.5" stroke-miterlimit="10"/>
<path d="M176.31 316.57C177.089 316.57 177.72 315.939 177.72 315.16C177.72 314.381 177.089 313.75 176.31 313.75C175.531 313.75 174.9 314.381 174.9 315.16C174.9 315.939 175.531 316.57 176.31 316.57Z" stroke="black" stroke-width="1.5" stroke-miterlimit="10"/>
<path d="M177.73 319.73C177.73 320.51 177.1 321.14 176.32 321.14C175.54 321.14 174.91 320.51 174.91 319.73C174.91 318.95 175.54 318.32 176.32 318.32V316.57" stroke="black" stroke-width="1.5" stroke-miterlimit="10"/>
<path d="M202.86 339.29H149.77V361.25H202.86V339.29Z" stroke="black" stroke-width="1.5" stroke-miterlimit="10"/>
<path d="M149.77 355.31H202.86" stroke="black" stroke-width="1.5" stroke-miterlimit="10"/>
<path d="M173.96 358.53H178.75" stroke="black" stroke-width="1.5" stroke-miterlimit="10"/>
<path d="M155.07 339.29V355.31" stroke="black" stroke-width="1.5" stroke-miterlimit="10"/>
<path d="M160.38 339.29V355.31" stroke="black" stroke-width="1.5" stroke-miterlimit="10"/>
<path d="M165.69 339.29V355.31" stroke="black" stroke-width="1.5" stroke-miterlimit="10"/>
<path d="M171 339.29V355.31" stroke="black" stroke-width="1.5" stroke-miterlimit="10"/>
<path d="M176.31 339.29V355.31" stroke="black" stroke-width="1.5" stroke-miterlimit="10"/>
<path d="M181.62 339.29V355.31" stroke="black" stroke-width="1.5" stroke-miterlimit="10"/>
<path d="M186.93 339.29V355.31" stroke="black" stroke-width="1.5" stroke-miterlimit="10"/>
<path d="M192.24 339.29V355.31" stroke="black" stroke-width="1.5" stroke-miterlimit="10"/>
<path d="M197.55 339.29V355.31" stroke="black" stroke-width="1.5" stroke-miterlimit="10"/>
<path d="M149.77 339.29L176.31 320.84L202.86 339.29" stroke="black" stroke-width="1.5" stroke-miterlimit="10"/>
<path d="M73.91 426.85V419.47L79.11 414.02H90.02V408.32L101.18 403.61V419.23H111.59V399.15H126.49V426.66" stroke="black" stroke-width="1.5" stroke-miterlimit="10"/>
<path d="M111.59 419.23V426.71" stroke="black" stroke-width="1.5" stroke-miterlimit="10"/>
<path d="M120.45 395.69H116.99V399.15H120.45V395.69Z" stroke="black" stroke-width="1.5" stroke-miterlimit="10"/>
<path d="M123.03 392.02H120.45V399.14H123.03V392.02Z" stroke="black" stroke-width="1.5" stroke-miterlimit="10"/>
<path d="M120.45 393.74H123.03" stroke="black" stroke-width="1.5" stroke-miterlimit="10"/>
<path d="M84.57 409.24H82.76V414.02H84.57V409.24Z" stroke="black" stroke-width="1.5" stroke-miterlimit="10"/>
<path d="M83.67 409.24V405.41" stroke="black" stroke-width="1.5" stroke-miterlimit="10"/>
<path d="M56.5601 439.55H238.93" stroke="black" stroke-width="1.5" stroke-miterlimit="10"/>
<path d="M126.48 431.51H56.58" stroke="black" stroke-width="1.5" stroke-miterlimit="10"/>
<path d="M251.88 428.89H219.27" stroke="black" stroke-width="1.5" stroke-miterlimit="10"/>
<path d="M230.2 413.71H227.97V419.72H230.2V413.71Z" stroke="black" stroke-width="1.5" stroke-miterlimit="10"/>
<path d="M231.85 411.51H226.48V413.71H231.85V411.51Z" stroke="black" stroke-width="1.5" stroke-miterlimit="10"/>
<path d="M229.08 411.51V406.44" stroke="black" stroke-width="1.5" stroke-miterlimit="10"/>
<path d="M153.18 421.33H133.06V434.09H153.18V421.33Z" stroke="black" stroke-width="1.5" stroke-miterlimit="10"/>
<path d="M153.18 408.57H133.06V421.33H153.18V408.57Z" stroke="black" stroke-width="1.5" stroke-miterlimit="10"/>
<path d="M204.18 408.57H184.06V421.33H204.18V408.57Z" stroke="black" stroke-width="1.5" stroke-miterlimit="10"/>
<path d="M184.05 408.57H163.47V421.33H184.05V408.57Z" stroke="black" stroke-width="1.5" stroke-miterlimit="10"/>
<path d="M204.18 421.33H184.06V434.09H204.18V421.33Z" stroke="black" stroke-width="1.5" stroke-miterlimit="10"/>
<path d="M163.47 421.33H153.18V434.09H163.47V421.33Z" stroke="black" stroke-width="1.5" stroke-miterlimit="10"/>
<path d="M163.47 408.57H153.18V421.33H163.47V408.57Z" stroke="black" stroke-width="1.5" stroke-miterlimit="10"/>
<path d="M153.18 395.8H133.06V408.56H153.18V395.8Z" stroke="black" stroke-width="1.5" stroke-miterlimit="10"/>
<path d="M204.18 395.8H184.06V408.56H204.18V395.8Z" stroke="black" stroke-width="1.5" stroke-miterlimit="10"/>
<path d="M163.47 395.8H153.18V408.56H163.47V395.8Z" stroke="black" stroke-width="1.5" stroke-miterlimit="10"/>
<path d="M173.76 395.8H163.47V408.56H173.76V395.8Z" stroke="black" stroke-width="1.5" stroke-miterlimit="10"/>
<path d="M184.05 395.8H173.76V408.56H184.05V395.8Z" stroke="black" stroke-width="1.5" stroke-miterlimit="10"/>
<path d="M214.47 395.8H204.18V408.56H214.47V395.8Z" stroke="black" stroke-width="1.5" stroke-miterlimit="10"/>
<path d="M173.76 421.33H163.47V434.09H173.76V421.33Z" stroke="black" stroke-width="1.5" stroke-miterlimit="10"/>
<path d="M184.05 421.33H173.76V434.09H184.05V421.33Z" stroke="black" stroke-width="1.5" stroke-miterlimit="10"/>
<path d="M214.47 421.33H204.18V434.09H214.47V421.33Z" stroke="black" stroke-width="1.5" stroke-miterlimit="10"/>
<path d="M214.47 408.57H204.18V421.33H214.47V408.57Z" stroke="black" stroke-width="1.5" stroke-miterlimit="10"/>
<path d="M40.83 456.5C46.64 456.5 46.64 459.57 52.46 459.57C58.28 459.57 58.27 456.5 64.08 456.5C69.89 456.5 69.89 459.57 75.71 459.57C81.53 459.57 81.52 456.5 87.34 456.5C93.16 456.5 93.15 459.57 98.97 459.57C104.79 459.57 104.78 456.5 110.6 456.5C116.42 456.5 116.41 459.57 122.22 459.57C128.03 459.57 128.03 456.5 133.84 456.5C139.65 456.5 139.65 459.57 145.47 459.57C151.29 459.57 151.28 456.5 157.09 456.5C162.9 456.5 162.9 459.57 168.72 459.57C174.54 459.57 174.53 456.5 180.35 456.5C186.17 456.5 186.16 459.57 191.98 459.57C197.8 459.57 197.79 456.5 203.61 456.5C209.43 456.5 209.42 459.57 215.24 459.57C221.06 459.57 221.05 456.5 226.87 456.5C232.69 456.5 232.68 459.57 238.5 459.57C244.32 459.57 244.31 456.5 250.13 456.5C255.95 456.5 255.94 459.57 261.76 459.57C267.58 459.57 267.57 456.5 273.38 456.5C279.19 456.5 279.19 459.57 285.01 459.57C290.83 459.57 290.83 456.5 296.64 456.5C302.45 456.5 302.45 459.57 308.27 459.57C314.09 459.57 314.09 456.5 319.91 456.5C325.73 456.5 325.73 459.57 331.55 459.57" stroke="black" stroke-width="1.5" stroke-miterlimit="10"/>
<path d="M40.83 465.07C46.64 465.07 46.64 468.14 52.46 468.14C58.28 468.14 58.27 465.07 64.08 465.07C69.89 465.07 69.89 468.14 75.71 468.14C81.53 468.14 81.52 465.07 87.34 465.07C93.16 465.07 93.15 468.14 98.97 468.14C104.79 468.14 104.78 465.07 110.6 465.07C116.42 465.07 116.41 468.14 122.22 468.14C128.03 468.14 128.03 465.07 133.84 465.07C139.65 465.07 139.65 468.14 145.47 468.14C151.29 468.14 151.28 465.07 157.09 465.07C162.9 465.07 162.9 468.14 168.72 468.14C174.54 468.14 174.53 465.07 180.35 465.07C186.17 465.07 186.16 468.14 191.98 468.14C197.8 468.14 197.79 465.07 203.61 465.07C209.43 465.07 209.42 468.14 215.24 468.14C221.06 468.14 221.05 465.07 226.87 465.07C232.69 465.07 232.68 468.14 238.5 468.14C244.32 468.14 244.31 465.07 250.13 465.07C255.95 465.07 255.94 468.14 261.76 468.14C267.58 468.14 267.57 465.07 273.38 465.07C279.19 465.07 279.19 468.14 285.01 468.14C290.83 468.14 290.83 465.07 296.64 465.07C302.45 465.07 302.45 468.14 308.27 468.14C314.09 468.14 314.09 465.07 319.91 465.07C325.73 465.07 325.73 468.14 331.55 468.14" stroke="black" stroke-width="1.5" stroke-miterlimit="10"/>
<path d="M275.06 371.77H203.84V379.59H275.06V371.77Z" stroke="black" stroke-width="1.5" stroke-miterlimit="10"/>
<path d="M209.48 395.8V379.59" stroke="black" stroke-width="1.5" stroke-miterlimit="10"/>
<path d="M214.48 432.79V379.59" stroke="black" stroke-width="1.5" stroke-miterlimit="10"/>
<path d="M264.85 433.41V379.59" stroke="black" stroke-width="1.5" stroke-miterlimit="10"/>
<path d="M269.85 433.41V379.59" stroke="black" stroke-width="1.5" stroke-miterlimit="10"/>
<path d="M220.77 426.63V411.51H226.48" stroke="black" stroke-width="1.5" stroke-miterlimit="10"/>
<path d="M234.89 419.72V411.51H257.91V433.41" stroke="black" stroke-width="1.5" stroke-miterlimit="10"/>
<path d="M214.48 404.56H264.85" stroke="black" stroke-width="1.5" stroke-miterlimit="10"/>
<path d="M214.48 400.87H264.85" stroke="black" stroke-width="1.5" stroke-miterlimit="10"/>
<path d="M229.24 385.24H219.47V395.01H229.24V385.24Z" stroke="black" stroke-width="1.5" stroke-miterlimit="10"/>
<path d="M244.55 385.24H234.78V395.01H244.55V385.24Z" stroke="black" stroke-width="1.5" stroke-miterlimit="10"/>
<path d="M259.86 385.24H250.09V395.01H259.86V385.24Z" stroke="black" stroke-width="1.5" stroke-miterlimit="10"/>
<path d="M269.85 385.24H331.52V433.41" stroke="black" stroke-width="1.5" stroke-miterlimit="10"/>
<path d="M269.85 422.15H331.52" stroke="black" stroke-width="1.5" stroke-miterlimit="10"/>
<path d="M269.85 415.64H331.52" stroke="black" stroke-width="1.5" stroke-miterlimit="10"/>
<path d="M297.79 391.75H278.46V415.64H297.79V391.75Z" stroke="black" stroke-width="1.5" stroke-miterlimit="10"/>
<path d="M278.46 399.13H297.79" stroke="black" stroke-width="1.5" stroke-miterlimit="10"/>
<path d="M291.05 399.13H285.19V402.39H291.05V399.13Z" stroke="black" stroke-width="1.5" stroke-miterlimit="10"/>
<path d="M297.79 395.59H278.46" stroke="black" stroke-width="1.5" stroke-miterlimit="10"/>
<path d="M324.2 391.75H304.87V415.64H324.2V391.75Z" stroke="black" stroke-width="1.5" stroke-miterlimit="10"/>
<path d="M304.87 399.13H324.2" stroke="black" stroke-width="1.5" stroke-miterlimit="10"/>
<path d="M317.46 399.13H311.6V402.39H317.46V399.13Z" stroke="black" stroke-width="1.5" stroke-miterlimit="10"/>
<path d="M324.2 395.59H304.87" stroke="black" stroke-width="1.5" stroke-miterlimit="10"/>
<path d="M223.67 264.93H215.49V273.11H223.67V264.93Z" stroke="black" stroke-width="1.5" stroke-miterlimit="10"/>
<path d="M1039.93 248.46V386.15" stroke="black" stroke-width="1.5" stroke-miterlimit="10"/>
<path d="M1023.24 264.93H1089.33" stroke="black" stroke-width="1.5" stroke-miterlimit="10"/>
<path d="M1074.01 267.5H1084.2V264.93H1074.01V267.5Z" stroke="black" stroke-width="1.5" stroke-miterlimit="10"/>
<path d="M1079.11 267.5V313.72" stroke="black" stroke-width="1.5" stroke-miterlimit="10"/>
<path d="M1079.11 316.57C1079.89 316.57 1080.52 315.939 1080.52 315.16C1080.52 314.381 1079.89 313.75 1079.11 313.75C1078.33 313.75 1077.7 314.381 1077.7 315.16C1077.7 315.939 1078.33 316.57 1079.11 316.57Z" stroke="black" stroke-width="1.5" stroke-miterlimit="10"/>
<path d="M1077.69 319.73C1077.69 320.51 1078.32 321.14 1079.1 321.14C1079.88 321.14 1080.51 320.51 1080.51 319.73C1080.51 318.95 1079.88 318.32 1079.1 318.32V316.57" stroke="black" stroke-width="1.5" stroke-miterlimit="10"/>
<path d="M1052.56 361.26H1105.65V339.3H1052.56V361.26Z" stroke="black" stroke-width="1.5" stroke-miterlimit="10"/>
<path d="M1105.65 355.31H1052.56" stroke="black" stroke-width="1.5" stroke-miterlimit="10"/>
<path d="M1081.46 358.53H1076.67" stroke="black" stroke-width="1.5" stroke-miterlimit="10"/>
<path d="M1100.34 339.29V355.31" stroke="black" stroke-width="1.5" stroke-miterlimit="10"/>
<path d="M1095.03 339.29V355.31" stroke="black" stroke-width="1.5" stroke-miterlimit="10"/>
<path d="M1089.73 339.29V355.31" stroke="black" stroke-width="1.5" stroke-miterlimit="10"/>
<path d="M1084.42 339.29V355.31" stroke="black" stroke-width="1.5" stroke-miterlimit="10"/>
<path d="M1079.11 339.29V355.31" stroke="black" stroke-width="1.5" stroke-miterlimit="10"/>
<path d="M1073.8 339.29V355.31" stroke="black" stroke-width="1.5" stroke-miterlimit="10"/>
<path d="M1068.49 339.29V355.31" stroke="black" stroke-width="1.5" stroke-miterlimit="10"/>
<path d="M1063.18 339.29V355.31" stroke="black" stroke-width="1.5" stroke-miterlimit="10"/>
<path d="M1057.87 339.29V355.31" stroke="black" stroke-width="1.5" stroke-miterlimit="10"/>
<path d="M1105.65 339.29L1079.11 320.84L1052.56 339.29" stroke="black" stroke-width="1.5" stroke-miterlimit="10"/>
<path d="M1031.74 273.11H1039.92V264.93H1031.74V273.11Z" stroke="black" stroke-width="1.5" stroke-miterlimit="10"/>
<path d="M300 370.33H285.19V385.14H300V370.33Z" stroke="black" stroke-width="1.5" stroke-miterlimit="10"/>
<path d="M314.81 370.33H300V385.14H314.81V370.33Z" stroke="black" stroke-width="1.5" stroke-miterlimit="10"/>
<path d="M307.41 355.2H292.6V370.01H307.41V355.2Z" stroke="black" stroke-width="1.5" stroke-miterlimit="10"/>
<path d="M990.02 433.41V385.86H1051.69V433.41" stroke="black" stroke-width="1.5" stroke-miterlimit="10"/>
<path d="M990.02 422.77H1051.69" stroke="black" stroke-width="1.5" stroke-miterlimit="10"/>
<path d="M990.02 416.26H1051.69" stroke="black" stroke-width="1.5" stroke-miterlimit="10"/>
<path d="M1017.96 392.37H998.63V416.26H1017.96V392.37Z" stroke="black" stroke-width="1.5" stroke-miterlimit="10"/>
<path d="M998.63 399.76H1017.96" stroke="black" stroke-width="1.5" stroke-miterlimit="10"/>
<path d="M1011.22 399.76H1005.36V403.02H1011.22V399.76Z" stroke="black" stroke-width="1.5" stroke-miterlimit="10"/>
<path d="M1017.96 396.21H998.63" stroke="black" stroke-width="1.5" stroke-miterlimit="10"/>
<path d="M1044.37 392.37H1025.04V416.26H1044.37V392.37Z" stroke="black" stroke-width="1.5" stroke-miterlimit="10"/>
<path d="M1025.04 399.76H1044.37" stroke="black" stroke-width="1.5" stroke-miterlimit="10"/>
<path d="M1037.63 399.76H1031.77V403.02H1037.63V399.76Z" stroke="black" stroke-width="1.5" stroke-miterlimit="10"/>
<path d="M1044.37 396.21H1025.04" stroke="black" stroke-width="1.5" stroke-miterlimit="10"/>
<path d="M1066.5 418.61H1051.69V433.42H1066.5V418.61Z" stroke="black" stroke-width="1.5" stroke-miterlimit="10"/>
<path d="M1081.3 418.61H1066.49V433.42H1081.3V418.61Z" stroke="black" stroke-width="1.5" stroke-miterlimit="10"/>
<path d="M1073.9 403.48H1059.09V418.29H1073.9V403.48Z" stroke="black" stroke-width="1.5" stroke-miterlimit="10"/>
<path d="M397.31 390.77V250.64L442.88 222.99V433.41H397.31V424.44" stroke="black" stroke-width="1.5" stroke-miterlimit="10"/>
<path d="M349.27 394.23H331.52" stroke="black" stroke-width="1.5" stroke-miterlimit="10"/>
<path d="M338.78 405.03H349.27" stroke="black" stroke-width="1.5" stroke-miterlimit="10"/>
<path d="M338.78 413.71H349.27" stroke="black" stroke-width="1.5" stroke-miterlimit="10"/>
<path d="M338.78 422.39H349.27" stroke="black" stroke-width="1.5" stroke-miterlimit="10"/>
<path d="M387.98 390.77V284.23H340.84V394.23" stroke="black" stroke-width="1.5" stroke-miterlimit="10"/>
<path d="M375.91 266.22H353.5V284.24H375.91V266.22Z" stroke="black" stroke-width="1.5" stroke-miterlimit="10"/>
<path d="M362.4 238.31V266.22" stroke="black" stroke-width="1.5" stroke-miterlimit="10"/>
<path d="M368.46 256.67V266.22" stroke="black" stroke-width="1.5" stroke-miterlimit="10"/>
<path d="M345.9 304.86H383.22" stroke="black" stroke-width="1.5" stroke-miterlimit="10"/>
<path d="M345.9 295.04H383.22" stroke="black" stroke-width="1.5" stroke-miterlimit="10"/>
<path d="M345.9 315.16H383.22" stroke="black" stroke-width="1.5" stroke-miterlimit="10"/>
<path d="M345.9 325.46H383.22" stroke="black" stroke-width="1.5" stroke-miterlimit="10"/>
<path d="M345.9 335.76H383.22" stroke="black" stroke-width="1.5" stroke-miterlimit="10"/>
<path d="M345.9 346.06H383.22" stroke="black" stroke-width="1.5" stroke-miterlimit="10"/>
<path d="M345.9 356.36H383.22" stroke="black" stroke-width="1.5" stroke-miterlimit="10"/>
<path d="M421.29 392.36H435.53" stroke="black" stroke-width="1.5" stroke-miterlimit="10"/>
<path d="M421.29 400.76H435.53" stroke="black" stroke-width="1.5" stroke-miterlimit="10"/>
<path d="M345.9 366.66H383.22" stroke="black" stroke-width="1.5" stroke-miterlimit="10"/>
<path d="M345.9 376.96H383.22" stroke="black" stroke-width="1.5" stroke-miterlimit="10"/>
<path d="M345.9 387.27H383.22" stroke="black" stroke-width="1.5" stroke-miterlimit="10"/>
<path d="M416.18 261.44H405.66V271.96H416.18V261.44Z" stroke="black" stroke-width="1.5" stroke-miterlimit="10"/>
<path d="M434.77 261.44H424.25V271.96H434.77V261.44Z" stroke="black" stroke-width="1.5" stroke-miterlimit="10"/>
<path d="M416.18 280.15H405.66V290.67H416.18V280.15Z" stroke="black" stroke-width="1.5" stroke-miterlimit="10"/>
<path d="M434.77 280.15H424.25V290.67H434.77V280.15Z" stroke="black" stroke-width="1.5" stroke-miterlimit="10"/>
<path d="M416.18 298.86H405.66V309.38H416.18V298.86Z" stroke="black" stroke-width="1.5" stroke-miterlimit="10"/>
<path d="M434.77 298.86H424.25V309.38H434.77V298.86Z" stroke="black" stroke-width="1.5" stroke-miterlimit="10"/>
<path d="M416.18 317.57H405.66V328.09H416.18V317.57Z" stroke="black" stroke-width="1.5" stroke-miterlimit="10"/>
<path d="M434.77 317.57H424.25V328.09H434.77V317.57Z" stroke="black" stroke-width="1.5" stroke-miterlimit="10"/>
<path d="M416.18 336.28H405.66V346.8H416.18V336.28Z" stroke="black" stroke-width="1.5" stroke-miterlimit="10"/>
<path d="M434.77 336.28H424.25V346.8H434.77V336.28Z" stroke="black" stroke-width="1.5" stroke-miterlimit="10"/>
<path d="M416.18 354.98H405.66V365.5H416.18V354.98Z" stroke="black" stroke-width="1.5" stroke-miterlimit="10"/>
<path d="M434.77 354.98H424.25V365.5H434.77V354.98Z" stroke="black" stroke-width="1.5" stroke-miterlimit="10"/>
<path d="M416.18 373.69H405.66V384.21H416.18V373.69Z" stroke="black" stroke-width="1.5" stroke-miterlimit="10"/>
<path d="M434.77 373.69H424.25V384.21H434.77V373.69Z" stroke="black" stroke-width="1.5" stroke-miterlimit="10"/>
<path d="M442.88 222.99V189.36" stroke="black" stroke-width="1.5" stroke-miterlimit="10"/>
<path d="M433.77 228.52V213.13" stroke="black" stroke-width="1.5" stroke-miterlimit="10"/>
<path d="M397.31 258.22L442.88 230.25" stroke="black" stroke-width="1.5" stroke-miterlimit="10"/>
<path d="M631.75 433.41V349.05H655.64V363.85" stroke="black" stroke-width="1.5" stroke-miterlimit="10"/>
<path d="M647.24 425.46V406.97" stroke="black" stroke-width="1.5" stroke-miterlimit="10"/>
<path d="M647.24 365.37V359.27" stroke="black" stroke-width="1.5" stroke-miterlimit="10"/>
<path d="M640.17 425.46V402.4" stroke="black" stroke-width="1.5" stroke-miterlimit="10"/>
<path d="M640.17 369.94V359.27" stroke="black" stroke-width="1.5" stroke-miterlimit="10"/>
<path d="M710.32 433.41V328.57H678.69V382.6" stroke="black" stroke-width="1.5" stroke-miterlimit="10"/>
<path d="M676.24 414.69V433.42H661.77V407.74" stroke="black" stroke-width="1.5" stroke-miterlimit="10"/>
<path d="M685.08 414.73V425.46H691.67H704.19V336.68H691.67H685.08V383.06" stroke="black" stroke-width="1.5" stroke-miterlimit="10"/>
<path d="M691.67 426.05V425.46V411.15" stroke="black" stroke-width="1.5" stroke-miterlimit="10"/>
<path d="M691.67 386.64V336.68" stroke="black" stroke-width="1.5" stroke-miterlimit="10"/>
<path d="M698.3 336.68V426.05" stroke="black" stroke-width="1.5" stroke-miterlimit="10"/>
<path d="M772.09 275.59H710.32V433.41H772.09V275.59Z" stroke="black" stroke-width="1.5" stroke-miterlimit="10"/>
<path d="M756.89 258.55H726.25V275.57H756.89V258.55Z" stroke="black" stroke-width="1.5" stroke-miterlimit="10"/>
<path d="M726.25 275.58V433.48" stroke="black" stroke-width="1.5" stroke-miterlimit="10"/>
<path d="M756.89 275.58V433.48" stroke="black" stroke-width="1.5" stroke-miterlimit="10"/>
<path d="M746.66 285.22V433.48" stroke="black" stroke-width="1.5" stroke-miterlimit="10"/>
<path d="M736.64 285.22V433.48" stroke="black" stroke-width="1.5" stroke-miterlimit="10"/>
<path d="M756.89 285.22H726.25" stroke="black" stroke-width="1.5" stroke-miterlimit="10"/>
<path d="M732.13 262.79V272.78" stroke="black" stroke-width="1.5" stroke-miterlimit="10"/>
<path d="M738.3 262.79V272.78" stroke="black" stroke-width="1.5" stroke-miterlimit="10"/>
<path d="M744.47 262.79V272.78" stroke="black" stroke-width="1.5" stroke-miterlimit="10"/>
<path d="M750.64 262.79V272.78" stroke="black" stroke-width="1.5" stroke-miterlimit="10"/>
<path d="M12.49 433.41H56.56" stroke="#37CAE2" stroke-width="1.5" stroke-miterlimit="10"/>
<path d="M1375.82 413.15H1352.93V433.41H1375.82V413.15Z" stroke="black" stroke-width="1.5" stroke-miterlimit="10"/>
<path d="M1352.93 395.98H1302.3V433.42H1352.93V395.98Z" stroke="black" stroke-width="1.5" stroke-miterlimit="10"/>
<path d="M1213.68 390.77V372.2H1278.21V433.41" stroke="black" stroke-width="1.5" stroke-miterlimit="10"/>
<path d="M1213.68 433.41V424.44" stroke="black" stroke-width="1.5" stroke-miterlimit="10"/>
<path d="M1250.66 372.2V330.94H1302.3V433.41" stroke="black" stroke-width="1.5" stroke-miterlimit="10"/>
<path d="M1262.14 339.56H1255.98V345.72H1262.14V339.56Z" stroke="black" stroke-width="1.5" stroke-miterlimit="10"/>
<path d="M1273.25 339.56H1267.09V345.72H1273.25V339.56Z" stroke="black" stroke-width="1.5" stroke-miterlimit="10"/>
<path d="M1284.37 339.56H1278.21V345.72H1284.37V339.56Z" stroke="black" stroke-width="1.5" stroke-miterlimit="10"/>
<path d="M1295.48 339.56H1289.32V345.72H1295.48V339.56Z" stroke="black" stroke-width="1.5" stroke-miterlimit="10"/>
<path d="M1262.14 350.32H1255.98V356.48H1262.14V350.32Z" stroke="black" stroke-width="1.5" stroke-miterlimit="10"/>
<path d="M1273.25 350.32H1267.09V356.48H1273.25V350.32Z" stroke="black" stroke-width="1.5" stroke-miterlimit="10"/>
<path d="M1284.37 350.32H1278.21V356.48H1284.37V350.32Z" stroke="black" stroke-width="1.5" stroke-miterlimit="10"/>
<path d="M1295.48 350.32H1289.32V356.48H1295.48V350.32Z" stroke="black" stroke-width="1.5" stroke-miterlimit="10"/>
<path d="M1262.14 361.09H1255.98V367.25H1262.14V361.09Z" stroke="black" stroke-width="1.5" stroke-miterlimit="10"/>
<path d="M1273.25 361.09H1267.09V367.25H1273.25V361.09Z" stroke="black" stroke-width="1.5" stroke-miterlimit="10"/>
<path d="M1284.37 361.09H1278.21V367.25H1284.37V361.09Z" stroke="black" stroke-width="1.5" stroke-miterlimit="10"/>
<path d="M1295.48 361.09H1289.32V367.25H1295.48V361.09Z" stroke="black" stroke-width="1.5" stroke-miterlimit="10"/>
<path d="M1284.37 372.2H1278.21V378.36H1284.37V372.2Z" stroke="black" stroke-width="1.5" stroke-miterlimit="10"/>
<path d="M1295.48 372.2H1289.32V378.36H1295.48V372.2Z" stroke="black" stroke-width="1.5" stroke-miterlimit="10"/>
<path d="M1284.37 382.97H1278.21V389.13H1284.37V382.97Z" stroke="black" stroke-width="1.5" stroke-miterlimit="10"/>
<path d="M1295.48 382.97H1289.32V389.13H1295.48V382.97Z" stroke="black" stroke-width="1.5" stroke-miterlimit="10"/>
<path d="M1284.37 393.73H1278.21V399.89H1284.37V393.73Z" stroke="black" stroke-width="1.5" stroke-miterlimit="10"/>
<path d="M1295.48 393.73H1289.32V399.89H1295.48V393.73Z" stroke="black" stroke-width="1.5" stroke-miterlimit="10"/>
<path d="M1284.37 404.85H1278.21V411.01H1284.37V404.85Z" stroke="black" stroke-width="1.5" stroke-miterlimit="10"/>
<path d="M1295.48 404.85H1289.32V411.01H1295.48V404.85Z" stroke="black" stroke-width="1.5" stroke-miterlimit="10"/>
<path d="M1284.37 415.61H1278.21V421.77H1284.37V415.61Z" stroke="black" stroke-width="1.5" stroke-miterlimit="10"/>
<path d="M1295.48 415.61H1289.32V421.77H1295.48V415.61Z" stroke="black" stroke-width="1.5" stroke-miterlimit="10"/>
<path d="M1219.47 390.89V378.44H1245.4V421.79H1240.8" stroke="black" stroke-width="1.5" stroke-miterlimit="10"/>
<path d="M1232.15 378.44V403.35" stroke="black" stroke-width="1.5" stroke-miterlimit="10"/>
<path d="M1225.75 378.44V403.35" stroke="black" stroke-width="1.5" stroke-miterlimit="10"/>
<path d="M1239.29 378.44V409.39" stroke="black" stroke-width="1.5" stroke-miterlimit="10"/>
<path d="M1219.47 385.04H1245.4" stroke="black" stroke-width="1.5" stroke-miterlimit="10"/>
<path d="M1219.47 391.13H1245.4" stroke="black" stroke-width="1.5" stroke-miterlimit="10"/>
<path d="M1219.47 397.22H1245.4" stroke="black" stroke-width="1.5" stroke-miterlimit="10"/>
<path d="M1219.47 403.3H1245.4" stroke="black" stroke-width="1.5" stroke-miterlimit="10"/>
<path d="M1239.91 409.39H1245.4" stroke="black" stroke-width="1.5" stroke-miterlimit="10"/>
<path d="M1240.8 415.47H1245.4" stroke="black" stroke-width="1.5" stroke-miterlimit="10"/>
<path d="M1250.1 380.64H1272.98" stroke="black" stroke-width="1.5" stroke-miterlimit="10"/>
<path d="M1250.1 385.59H1272.98" stroke="black" stroke-width="1.5" stroke-miterlimit="10"/>
<path d="M1250.1 390.54H1272.98" stroke="black" stroke-width="1.5" stroke-miterlimit="10"/>
<path d="M1250.1 395.49H1272.98" stroke="black" stroke-width="1.5" stroke-miterlimit="10"/>
<path d="M1250.1 400.43H1272.98" stroke="black" stroke-width="1.5" stroke-miterlimit="10"/>
<path d="M1250.76 433.41V404.45H1272.62V433.41" stroke="black" stroke-width="1.5" stroke-miterlimit="10"/>
<path d="M1250.76 408.45H1272.62" stroke="black" stroke-width="1.5" stroke-miterlimit="10"/>
<path d="M1261.54 408.49V433.41" stroke="black" stroke-width="1.5" stroke-miterlimit="10"/>
<path d="M1347.07 401.51H1308.17V408.01H1347.07V401.51Z" stroke="black" stroke-width="1.5" stroke-miterlimit="10"/>
<path d="M1341.28 417.12H1313.95V433.42H1341.28V417.12Z" stroke="black" stroke-width="1.5" stroke-miterlimit="10"/>
<path d="M1331.83 430.68H1323.41V433.41H1331.83V430.68Z" stroke="black" stroke-width="1.5" stroke-miterlimit="10"/>
<path d="M1313.95 428.14H1341.28" stroke="black" stroke-width="1.5" stroke-miterlimit="10"/>
<path d="M1313.95 424.47H1341.28" stroke="black" stroke-width="1.5" stroke-miterlimit="10"/>
<path d="M1313.95 420.79H1341.28" stroke="black" stroke-width="1.5" stroke-miterlimit="10"/>
<path d="M1357.27 416.06V425.56" stroke="black" stroke-width="1.5" stroke-miterlimit="10"/>
<path d="M1360.82 416.06V425.56" stroke="black" stroke-width="1.5" stroke-miterlimit="10"/>
<path d="M1364.38 416.06V425.56" stroke="black" stroke-width="1.5" stroke-miterlimit="10"/>
<path d="M1367.93 416.06V425.56" stroke="black" stroke-width="1.5" stroke-miterlimit="10"/>
<path d="M1371.49 416.06V425.56" stroke="black" stroke-width="1.5" stroke-miterlimit="10"/>
<path d="M1371.48 408.02H1365.68V413.12H1371.48V408.02Z" stroke="black" stroke-width="1.5" stroke-miterlimit="10"/>
<path d="M1368.58 402.13V408.02" stroke="black" stroke-width="1.5" stroke-miterlimit="10"/>
<path d="M1259.61 330.94V310.67" stroke="black" stroke-width="1.5" stroke-miterlimit="10"/>
<path d="M1264.61 330.94V319.49" stroke="black" stroke-width="1.5" stroke-miterlimit="10"/>
<path d="M782.28 174.43C779.39 174.43 777.05 172.08 777.05 169.2C777.05 166.32 779.39 163.97 782.28 163.97C782.72 163.97 783.15 164.02 783.55 164.13C784.2 160.98 786.99 158.61 790.34 158.61C791.52 158.61 792.64 158.91 793.61 159.43C794.92 155.99 798.25 153.54 802.16 153.54C807.22 153.54 811.31 157.64 811.31 162.7V162.89C811.81 162.76 812.35 162.69 812.89 162.69C816.48 162.69 819.4 165.6 819.4 169.2C819.4 172.8 816.48 175.7 812.89 175.7H797.51" stroke="black" stroke-width="1.5" stroke-miterlimit="10"/>
<path d="M200.9 205.24C198.01 205.24 195.67 202.89 195.67 200.01C195.67 197.13 198.01 194.78 200.9 194.78C201.34 194.78 201.77 194.83 202.17 194.94C202.82 191.79 205.61 189.42 208.96 189.42C210.14 189.42 211.26 189.72 212.23 190.24C213.54 186.8 216.87 184.35 220.78 184.35C225.84 184.35 229.93 188.45 229.93 193.51V193.7C230.43 193.57 230.97 193.5 231.51 193.5C235.1 193.5 238.02 196.41 238.02 200.01C238.02 203.61 235.1 206.51 231.51 206.51H216.13" stroke="black" stroke-width="1.5" stroke-miterlimit="10"/>
<path d="M964.53 211.86C961.64 211.86 959.3 209.51 959.3 206.63C959.3 203.75 961.64 201.4 964.53 201.4C964.97 201.4 965.4 201.45 965.8 201.56C966.45 198.41 969.24 196.04 972.59 196.04C973.77 196.04 974.89 196.34 975.86 196.86C977.17 193.42 980.5 190.97 984.41 190.97C989.47 190.97 993.56 195.07 993.56 200.13V200.32C994.06 200.19 994.6 200.12 995.14 200.12C998.73 200.12 1001.65 203.03 1001.65 206.63C1001.65 210.23 998.73 213.13 995.14 213.13H979.76" stroke="black" stroke-width="1.5" stroke-miterlimit="10"/>
<path d="M1174.77 176.15C1171.88 176.15 1169.54 173.8 1169.54 170.92C1169.54 168.04 1171.88 165.69 1174.77 165.69C1175.21 165.69 1175.64 165.74 1176.04 165.85C1176.69 162.7 1179.48 160.33 1182.83 160.33C1184.01 160.33 1185.13 160.63 1186.1 161.15C1187.41 157.71 1190.74 155.26 1194.65 155.26C1199.71 155.26 1203.8 159.36 1203.8 164.42V164.61C1204.3 164.48 1204.84 164.41 1205.38 164.41C1208.97 164.41 1211.89 167.32 1211.89 170.92C1211.89 174.52 1208.97 177.42 1205.38 177.42H1190" stroke="black" stroke-width="1.5" stroke-miterlimit="10"/>
<path d="M457.42 198.79V206.51" stroke="black" stroke-width="1.5" stroke-miterlimit="10"/>
<path d="M461.28 202.65H453.56" stroke="black" stroke-width="1.5" stroke-miterlimit="10"/>
<path d="M108.57 219.13V226.85" stroke="black" stroke-width="1.5" stroke-miterlimit="10"/>
<path d="M112.43 222.99H104.71" stroke="black" stroke-width="1.5" stroke-miterlimit="10"/>
<path d="M303.17 184.56V192.28" stroke="black" stroke-width="1.5" stroke-miterlimit="10"/>
<path d="M307.03 188.42H299.31" stroke="black" stroke-width="1.5" stroke-miterlimit="10"/>
<path d="M1175.84 281.55V289.27" stroke="black" stroke-width="1.5" stroke-miterlimit="10"/>
<path d="M1179.7 285.41H1171.98" stroke="black" stroke-width="1.5" stroke-miterlimit="10"/>
<path d="M1270.09 173.56V181.28" stroke="black" stroke-width="1.5" stroke-miterlimit="10"/>
<path d="M1273.95 177.42H1266.23" stroke="black" stroke-width="1.5" stroke-miterlimit="10"/>
<path d="M810.64 234.93V242.65" stroke="black" stroke-width="1.5" stroke-miterlimit="10"/>
<path d="M814.5 238.79H806.78" stroke="black" stroke-width="1.5" stroke-miterlimit="10"/>
<path d="M602.78 213.06V220.78" stroke="black" stroke-width="1.5" stroke-miterlimit="10"/>
<path d="M606.64 216.92H598.92" stroke="black" stroke-width="1.5" stroke-miterlimit="10"/>
<path d="M732.4 142.22V149.94" stroke="black" stroke-width="1.5" stroke-miterlimit="10"/>
<path d="M736.26 146.08H728.54" stroke="black" stroke-width="1.5" stroke-miterlimit="10"/>
<path d="M1067.99 202.65V210.37" stroke="black" stroke-width="1.5" stroke-miterlimit="10"/>
<path d="M1071.85 206.51H1064.13" stroke="black" stroke-width="1.5" stroke-miterlimit="10"/>
<path d="M237.64 273.55V281.27" stroke="black" stroke-width="1.5" stroke-miterlimit="10"/>
<path d="M241.5 277.41H233.78" stroke="black" stroke-width="1.5" stroke-miterlimit="10"/>
<path d="M631.81 269.46C633.67 269.46 635.17 267.95 635.17 266.1C635.17 264.25 633.67 262.73 631.81 262.73C631.26 262.73 630.74 262.86 630.28 263.11C630.2 259.43 627.19 256.47 623.48 256.47C619.77 256.47 616.8 259.41 616.69 263.06C616.26 262.92 615.79 262.84 615.3 262.84C612.83 262.84 610.82 264.85 610.82 267.33C610.82 269.81 612.83 271.81 615.3 271.81H626.67" stroke="black" stroke-width="1.5" stroke-miterlimit="10"/>
<path d="M1307.6 301.28C1309.46 301.28 1310.96 299.77 1310.96 297.92C1310.96 296.07 1309.46 294.55 1307.6 294.55C1307.05 294.55 1306.53 294.68 1306.07 294.93C1305.99 291.25 1302.98 288.29 1299.27 288.29C1295.56 288.29 1292.59 291.23 1292.48 294.88C1292.05 294.74 1291.58 294.66 1291.09 294.66C1288.62 294.66 1286.61 296.67 1286.61 299.15C1286.61 301.63 1288.62 303.63 1291.09 303.63H1302.46" stroke="black" stroke-width="1.5" stroke-miterlimit="10"/>
<path d="M83.24 259.31C85.1 259.31 86.6 257.8 86.6 255.95C86.6 254.1 85.1 252.58 83.24 252.58C82.69 252.58 82.17 252.71 81.71 252.96C81.63 249.28 78.62 246.32 74.91 246.32C71.2 246.32 68.23 249.26 68.12 252.91C67.69 252.77 67.22 252.69 66.73 252.69C64.26 252.69 62.25 254.7 62.25 257.18C62.25 259.66 64.26 261.66 66.73 261.66H78.1" stroke="black" stroke-width="1.5" stroke-miterlimit="10"/>
<path d="M677.81 382.74C676.16 371.98 666.86 363.74 655.64 363.74C643.25 363.74 633.21 373.78 633.21 386.17C633.21 398.56 643.25 408.6 655.64 408.6C655.73 408.6 655.83 408.6 655.92 408.59C659.54 408.55 662.96 407.65 665.97 406.07" stroke="black" stroke-width="1.5" stroke-miterlimit="10"/>
<path d="M655.92 433.41V390.13" stroke="black" stroke-width="1.5" stroke-miterlimit="10"/>
<path d="M661.83 396.55L655.92 403.24" stroke="black" stroke-width="1.5" stroke-miterlimit="10"/>
<path d="M648.09 389.29L655.92 396.42" stroke="black" stroke-width="1.5" stroke-miterlimit="10"/>
<path d="M680.74 415.31C689.809 415.31 697.16 407.958 697.16 398.89C697.16 389.821 689.809 382.47 680.74 382.47C671.672 382.47 664.32 389.821 664.32 398.89C664.32 407.958 671.672 415.31 680.74 415.31Z" stroke="black" stroke-width="1.5" stroke-miterlimit="10"/>
<path d="M680.95 433.41V401.79" stroke="black" stroke-width="1.5" stroke-miterlimit="10"/>
<path d="M685.27 406.49L680.95 411.39" stroke="black" stroke-width="1.5" stroke-miterlimit="10"/>
<path d="M675.21 401.18L680.95 406.39" stroke="black" stroke-width="1.5" stroke-miterlimit="10"/>
<path d="M364.88 171.33C376.329 171.33 385.61 162.049 385.61 150.6C385.61 139.151 376.329 129.87 364.88 129.87C353.431 129.87 344.15 139.151 344.15 150.6C344.15 162.049 353.431 171.33 364.88 171.33Z" stroke="black" stroke-width="1.5" stroke-miterlimit="10"/>
<path d="M353.89 424.44H349.27V390.77H421.29V424.44H376.01" stroke="black" stroke-width="1.5" stroke-miterlimit="10"/>
<path d="M366.94 424.44H362.96" stroke="black" stroke-width="1.5" stroke-miterlimit="10"/>
<path d="M358.43 431.93C361.258 431.93 363.55 429.638 363.55 426.81C363.55 423.982 361.258 421.69 358.43 421.69C355.602 421.69 353.31 423.982 353.31 426.81C353.31 429.638 355.602 431.93 358.43 431.93Z" stroke="black" stroke-width="1.5" stroke-miterlimit="10"/>
<path d="M358.43 429.69C360.021 429.69 361.31 428.401 361.31 426.81C361.31 425.219 360.021 423.93 358.43 423.93C356.839 423.93 355.55 425.219 355.55 426.81C355.55 428.401 356.839 429.69 358.43 429.69Z" stroke="black" stroke-width="1.5" stroke-miterlimit="10"/>
<path d="M371.48 431.93C374.308 431.93 376.6 429.638 376.6 426.81C376.6 423.982 374.308 421.69 371.48 421.69C368.652 421.69 366.36 423.982 366.36 426.81C366.36 429.638 368.652 431.93 371.48 431.93Z" stroke="black" stroke-width="1.5" stroke-miterlimit="10"/>
<path d="M371.48 429.69C373.071 429.69 374.36 428.401 374.36 426.81C374.36 425.219 373.071 423.93 371.48 423.93C369.89 423.93 368.6 425.219 368.6 426.81C368.6 428.401 369.89 429.69 371.48 429.69Z" stroke="black" stroke-width="1.5" stroke-miterlimit="10"/>
<path d="M433.47 431.93C436.298 431.93 438.59 429.638 438.59 426.81C438.59 423.982 436.298 421.69 433.47 421.69C430.642 421.69 428.35 423.982 428.35 426.81C428.35 429.638 430.642 431.93 433.47 431.93Z" stroke="black" stroke-width="1.5" stroke-miterlimit="10"/>
<path d="M433.47 429.69C435.061 429.69 436.35 428.401 436.35 426.81C436.35 425.219 435.061 423.93 433.47 423.93C431.88 423.93 430.59 425.219 430.59 426.81C430.59 428.401 431.88 429.69 433.47 429.69Z" stroke="black" stroke-width="1.5" stroke-miterlimit="10"/>
<path d="M424.5 424.28V403.35H439.07L442.62 413.82V424.44H438" stroke="black" stroke-width="1.5" stroke-miterlimit="10"/>
<path d="M428.93 424.44H421.29" stroke="black" stroke-width="1.5" stroke-miterlimit="10"/>
<path d="M429.76 403.35V414.14H442.62" stroke="black" stroke-width="1.5" stroke-miterlimit="10"/>
<path d="M421.29 421.31H349.27" stroke="black" stroke-width="1.5" stroke-miterlimit="10"/>
<path d="M358.95 396.59V416.07" stroke="black" stroke-width="1.5" stroke-miterlimit="10"/>
<path d="M369.49 396.59V416.07" stroke="black" stroke-width="1.5" stroke-miterlimit="10"/>
<path d="M380.02 396.59V416.07" stroke="black" stroke-width="1.5" stroke-miterlimit="10"/>
<path d="M390.55 396.59V416.07" stroke="black" stroke-width="1.5" stroke-miterlimit="10"/>
<path d="M401.08 396.59V416.07" stroke="black" stroke-width="1.5" stroke-miterlimit="10"/>
<path d="M411.61 396.59V416.07" stroke="black" stroke-width="1.5" stroke-miterlimit="10"/>
<path d="M1152.07 424.44H1147.45V391.13H1219.47V424.44H1174.19" stroke="black" stroke-width="1.5" stroke-miterlimit="10"/>
<path d="M1165.12 424.44H1161.14" stroke="black" stroke-width="1.5" stroke-miterlimit="10"/>
<path d="M1156.6 431.93C1159.43 431.93 1161.72 429.638 1161.72 426.81C1161.72 423.982 1159.43 421.69 1156.6 421.69C1153.77 421.69 1151.48 423.982 1151.48 426.81C1151.48 429.638 1153.77 431.93 1156.6 431.93Z" stroke="black" stroke-width="1.5" stroke-miterlimit="10"/>
<path d="M1156.6 429.69C1158.19 429.69 1159.48 428.401 1159.48 426.81C1159.48 425.219 1158.19 423.93 1156.6 423.93C1155.01 423.93 1153.72 425.219 1153.72 426.81C1153.72 428.401 1155.01 429.69 1156.6 429.69Z" stroke="black" stroke-width="1.5" stroke-miterlimit="10"/>
<path d="M1169.66 431.93C1172.49 431.93 1174.78 429.638 1174.78 426.81C1174.78 423.982 1172.49 421.69 1169.66 421.69C1166.83 421.69 1164.54 423.982 1164.54 426.81C1164.54 429.638 1166.83 431.93 1169.66 431.93Z" stroke="black" stroke-width="1.5" stroke-miterlimit="10"/>
<path d="M1169.66 429.69C1171.25 429.69 1172.54 428.401 1172.54 426.81C1172.54 425.219 1171.25 423.93 1169.66 423.93C1168.07 423.93 1166.78 425.219 1166.78 426.81C1166.78 428.401 1168.07 429.69 1169.66 429.69Z" stroke="black" stroke-width="1.5" stroke-miterlimit="10"/>
<path d="M1231.65 431.93C1234.48 431.93 1236.77 429.638 1236.77 426.81C1236.77 423.982 1234.48 421.69 1231.65 421.69C1228.82 421.69 1226.53 423.982 1226.53 426.81C1226.53 429.638 1228.82 431.93 1231.65 431.93Z" stroke="black" stroke-width="1.5" stroke-miterlimit="10"/>
<path d="M1231.65 429.69C1233.24 429.69 1234.53 428.401 1234.53 426.81C1234.53 425.219 1233.24 423.93 1231.65 423.93C1230.06 423.93 1228.77 425.219 1228.77 426.81C1228.77 428.401 1230.06 429.69 1231.65 429.69Z" stroke="black" stroke-width="1.5" stroke-miterlimit="10"/>
<path d="M1222.68 424.28V403.35H1237.25L1240.8 413.82V424.44H1236.18" stroke="black" stroke-width="1.5" stroke-miterlimit="10"/>
<path d="M1227.11 424.44H1219.47" stroke="black" stroke-width="1.5" stroke-miterlimit="10"/>
<path d="M1227.94 403.35V414.14H1240.8" stroke="black" stroke-width="1.5" stroke-miterlimit="10"/>
<path d="M1219.47 421.31H1147.45" stroke="black" stroke-width="1.5" stroke-miterlimit="10"/>
<path d="M1157.13 396.59V416.07" stroke="black" stroke-width="1.5" stroke-miterlimit="10"/>
<path d="M1167.67 396.59V416.07" stroke="black" stroke-width="1.5" stroke-miterlimit="10"/>
<path d="M1178.2 396.59V416.07" stroke="black" stroke-width="1.5" stroke-miterlimit="10"/>
<path d="M1188.73 396.59V416.07" stroke="black" stroke-width="1.5" stroke-miterlimit="10"/>
<path d="M1199.26 396.59V416.07" stroke="black" stroke-width="1.5" stroke-miterlimit="10"/>
<path d="M1209.79 396.59V416.07" stroke="black" stroke-width="1.5" stroke-miterlimit="10"/>
<path d="M537.26 367.76H442.88V433.42H537.26V367.76Z" stroke="black" stroke-width="1.5" stroke-miterlimit="10"/>
<path d="M631.75 367.76H537.26V433.42H631.75V367.76Z" stroke="black" stroke-width="1.5" stroke-miterlimit="10"/>
<path d="M510.63 375.51H469.51V433.41H510.63V375.51Z" stroke="black" stroke-width="1.5" stroke-miterlimit="10"/>
<path d="M461.85 391.75H447.27V406.33H461.85V391.75Z" stroke="black" stroke-width="1.5" stroke-miterlimit="10"/>
<path d="M531.79 391.75H517.21V406.33H531.79V391.75Z" stroke="black" stroke-width="1.5" stroke-miterlimit="10"/>
<path d="M490.07 375.51V433.48" stroke="black" stroke-width="1.5" stroke-miterlimit="10"/>
<path d="M469.51 380.19H510.62" stroke="black" stroke-width="1.5" stroke-miterlimit="10"/>
<path d="M469.51 386.17H510.62" stroke="black" stroke-width="1.5" stroke-miterlimit="10"/>
<path d="M469.51 392.14H510.62" stroke="black" stroke-width="1.5" stroke-miterlimit="10"/>
<path d="M469.51 398.12H510.62" stroke="black" stroke-width="1.5" stroke-miterlimit="10"/>
<path d="M469.51 404.1H510.62" stroke="black" stroke-width="1.5" stroke-miterlimit="10"/>
<path d="M469.51 410.08H510.62" stroke="black" stroke-width="1.5" stroke-miterlimit="10"/>
<path d="M469.51 416.05H510.62" stroke="black" stroke-width="1.5" stroke-miterlimit="10"/>
<path d="M442.88 422.03H631.75" stroke="black" stroke-width="1.5" stroke-miterlimit="10"/>
<path d="M483.29 429.69H476.34V433.42H483.29V429.69Z" stroke="black" stroke-width="1.5" stroke-miterlimit="10"/>
<path d="M503.87 429.69H496.92V433.48H503.87V429.69Z" stroke="black" stroke-width="1.5" stroke-miterlimit="10"/>
<path d="M605.54 375.51H564.42V433.41H605.54V375.51Z" stroke="black" stroke-width="1.5" stroke-miterlimit="10"/>
<path d="M556.77 391.75H542.19V406.33H556.77V391.75Z" stroke="black" stroke-width="1.5" stroke-miterlimit="10"/>
<path d="M626.71 391.75H612.13V406.33H626.71V391.75Z" stroke="black" stroke-width="1.5" stroke-miterlimit="10"/>
<path d="M584.98 375.51V433.41" stroke="black" stroke-width="1.5" stroke-miterlimit="10"/>
<path d="M564.42 380.19H605.54" stroke="black" stroke-width="1.5" stroke-miterlimit="10"/>
<path d="M564.42 386.17H605.54" stroke="black" stroke-width="1.5" stroke-miterlimit="10"/>
<path d="M564.42 392.14H605.54" stroke="black" stroke-width="1.5" stroke-miterlimit="10"/>
<path d="M564.42 398.12H605.54" stroke="black" stroke-width="1.5" stroke-miterlimit="10"/>
<path d="M564.42 404.1H605.54" stroke="black" stroke-width="1.5" stroke-miterlimit="10"/>
<path d="M564.42 410.08H605.54" stroke="black" stroke-width="1.5" stroke-miterlimit="10"/>
<path d="M564.42 416.05H605.54" stroke="black" stroke-width="1.5" stroke-miterlimit="10"/>
<path d="M578.2 429.69H571.25V433.42H578.2V429.69Z" stroke="black" stroke-width="1.5" stroke-miterlimit="10"/>
<path d="M598.79 429.69H591.84V433.42H598.79V429.69Z" stroke="black" stroke-width="1.5" stroke-miterlimit="10"/>
<path d="M537.26 367.82L537.2 367.76C525.3 355.39 508.58 347.7 490.07 347.7C471.56 347.7 454.83 355.39 442.93 367.76C442.91 367.78 442.89 367.79 442.88 367.81" stroke="black" stroke-width="1.5" stroke-miterlimit="10"/>
<path d="M631.75 367.82L631.69 367.76C619.79 355.39 603.07 347.7 584.56 347.7C566.05 347.7 549.32 355.39 537.42 367.76C537.4 367.78 537.38 367.79 537.37 367.81" stroke="black" stroke-width="1.5" stroke-miterlimit="10"/>
<path d="M1098.33 428.14H1111.97" stroke="black" stroke-width="1.5" stroke-miterlimit="10"/>
<path d="M1090.17 428.14H1087.73V417.28H1101.57V421.48H1108.95L1113.23 414.67H1118.23V421.89" stroke="black" stroke-width="1.5" stroke-miterlimit="10"/>
<path d="M1115.68 414.67L1108.75 400.38H1091.28V417.28" stroke="black" stroke-width="1.5" stroke-miterlimit="10"/>
<path d="M1118.22 395.87V420.78H1136.47" stroke="black" stroke-width="1.5" stroke-miterlimit="10"/>
<path d="M1094.25 432.23C1096.5 432.23 1098.33 430.403 1098.33 428.15C1098.33 425.897 1096.5 424.07 1094.25 424.07C1092 424.07 1090.17 425.897 1090.17 428.15C1090.17 430.403 1092 432.23 1094.25 432.23Z" stroke="black" stroke-width="1.5" stroke-miterlimit="10"/>
<path d="M1094.25 429.86C1095.19 429.86 1095.96 429.095 1095.96 428.15C1095.96 427.206 1095.19 426.44 1094.25 426.44C1093.31 426.44 1092.54 427.206 1092.54 428.15C1092.54 429.095 1093.31 429.86 1094.25 429.86Z" stroke="black" stroke-width="1.5" stroke-miterlimit="10"/>
<path d="M1117.07 432.22C1119.96 432.22 1122.3 429.879 1122.3 426.99C1122.3 424.102 1119.96 421.76 1117.07 421.76C1114.18 421.76 1111.84 424.102 1111.84 426.99C1111.84 429.879 1114.18 432.22 1117.07 432.22Z" stroke="black" stroke-width="1.5" stroke-miterlimit="10"/>
<path d="M1117.07 429.71C1118.57 429.71 1119.79 428.492 1119.79 426.99C1119.79 425.488 1118.57 424.27 1117.07 424.27C1115.57 424.27 1114.35 425.488 1114.35 426.99C1114.35 428.492 1115.57 429.71 1117.07 429.71Z" stroke="black" stroke-width="1.5" stroke-miterlimit="10"/>
<path d="M1113.23 414.67L1108.99 411.2" stroke="black" stroke-width="1.5" stroke-miterlimit="10"/>
<path d="M1110.34 409.63L1107.63 412.72" stroke="black" stroke-width="1.5" stroke-miterlimit="10"/>
<path d="M1091.28 419.27V422.29" stroke="black" stroke-width="1.5" stroke-miterlimit="10"/>
<path d="M1094.09 419.27V422.29" stroke="black" stroke-width="1.5" stroke-miterlimit="10"/>
<path d="M1096.9 419.27V422.29" stroke="black" stroke-width="1.5" stroke-miterlimit="10"/>
<path d="M1100.73 413.61V417.28H1093.79V406.81H1097.46V413.61H1100.73Z" stroke="black" stroke-width="1.5" stroke-miterlimit="10"/>
<path d="M881.05 366.65L826.57 348.86L772.09 366.65V433.41H881.05V366.65Z" stroke="black" stroke-width="1.5" stroke-miterlimit="10"/>
<path d="M857.11 382.39H796.04V433.41H857.11V382.39Z" stroke="black" stroke-width="1.5" stroke-miterlimit="10"/>
<path d="M796.04 392.61H857.11" stroke="black" stroke-width="1.5" stroke-miterlimit="10"/>
<path d="M796.04 402.83H857.11" stroke="black" stroke-width="1.5" stroke-miterlimit="10"/>
<path d="M772.09 413.05H881.05" stroke="black" stroke-width="1.5" stroke-miterlimit="10"/>
<path d="M772.09 423.27H881.05" stroke="black" stroke-width="1.5" stroke-miterlimit="10"/>
<path d="M990.02 366.65L935.54 348.86L881.05 366.65V433.41H990.02V366.65Z" stroke="black" stroke-width="1.5" stroke-miterlimit="10"/>
<path d="M966.07 382.39H905V433.41H966.07V382.39Z" stroke="black" stroke-width="1.5" stroke-miterlimit="10"/>
<path d="M881.05 413.05H905" stroke="black" stroke-width="1.5" stroke-miterlimit="10"/>
<path d="M966.07 413.05H990.02" stroke="black" stroke-width="1.5" stroke-miterlimit="10"/>
<path d="M881.05 423.27H990.02" stroke="black" stroke-width="1.5" stroke-miterlimit="10"/>
<path d="M1059.09 403.48L1073.9 418.28" stroke="black" stroke-width="1.5" stroke-miterlimit="10"/>
<path d="M926.25 408.46H911.44V423.27H926.25V408.46Z" stroke="black" stroke-width="1.5" stroke-miterlimit="10"/>
<path d="M941.06 408.46H926.25V423.27H941.06V408.46Z" stroke="black" stroke-width="1.5" stroke-miterlimit="10"/>
<path d="M955.87 408.46H941.06V423.27H955.87V408.46Z" stroke="black" stroke-width="1.5" stroke-miterlimit="10"/>
<path d="M926.25 393.65H911.44V408.46H926.25V393.65Z" stroke="black" stroke-width="1.5" stroke-miterlimit="10"/>
<path d="M911.44 393.65L926.25 408.46" stroke="black" stroke-width="1.5" stroke-miterlimit="10"/>
<path d="M941.06 408.46V393.65H926.25V408.46H941.06Z" stroke="black" stroke-width="1.5" stroke-miterlimit="10"/>
<path d="M941.06 393.65L926.25 408.46" stroke="black" stroke-width="1.5" stroke-miterlimit="10"/>
<path d="M1231 357.4H1216.19V372.21H1231V357.4Z" stroke="black" stroke-width="1.5" stroke-miterlimit="10"/>
<path d="M1245.81 357.4H1231V372.21H1245.81V357.4Z" stroke="black" stroke-width="1.5" stroke-miterlimit="10"/>
<path d="M1238.41 342.59H1223.6V357.4H1238.41V342.59Z" stroke="black" stroke-width="1.5" stroke-miterlimit="10"/>
<path d="M1223.6 342.59L1238.4 357.4" stroke="black" stroke-width="1.5" stroke-miterlimit="10"/>
<path d="M1133.04 405.97H1118.23V420.78H1133.04V405.97Z" stroke="black" stroke-width="1.5" stroke-miterlimit="10"/>
<path d="M1118.23 405.97L1133.04 420.78" stroke="black" stroke-width="1.5" stroke-miterlimit="10"/>
<path d="M820.4 374.79H832.75" stroke="black" stroke-width="1.5" stroke-miterlimit="10"/>
<path d="M929.36 374.79H941.71" stroke="black" stroke-width="1.5" stroke-miterlimit="10"/>
<path d="M246.55 433.41H1395.36" stroke="#37CAE2" stroke-width="1.5" stroke-miterlimit="10"/>
<path d="M64.9701 447.96L56.5601 439.56V426.91L126.46 426.67V434.1H219.27V428.9L225.37 419.73H239V416.01H251.89V429.07L228.59 448.05" stroke="black" stroke-width="1.5" stroke-miterlimit="10"/>
<path d="M40.83 447.93C46.64 447.93 46.64 451 52.46 451C58.28 451 58.27 447.93 64.08 447.93C69.89 447.93 69.89 451 75.71 451C81.53 451 81.52 447.93 87.34 447.93C93.16 447.93 93.15 451 98.97 451C104.79 451 104.78 447.93 110.6 447.93C116.42 447.93 116.41 451 122.22 451C128.03 451 128.03 447.93 133.84 447.93C139.65 447.93 139.65 451 145.47 451C151.29 451 151.28 447.93 157.09 447.93C162.9 447.93 162.9 451 168.72 451C174.54 451 174.53 447.93 180.35 447.93C186.17 447.93 186.16 451 191.98 451C197.8 451 197.79 447.93 203.61 447.93C209.43 447.93 209.42 451 215.24 451C221.06 451 221.05 447.93 226.87 447.93C232.69 447.93 232.68 451 238.5 451C244.32 451 244.31 447.93 250.13 447.93C255.95 447.93 255.94 451 261.76 451C267.58 451 267.57 447.93 273.38 447.93C279.19 447.93 279.19 451 285.01 451C290.83 451 290.83 447.93 296.64 447.93C302.45 447.93 302.45 451 308.27 451C314.09 451 314.09 447.93 319.91 447.93C325.73 447.93 325.73 451 331.55 451" stroke="#37CAE2" stroke-width="1.5" stroke-miterlimit="10"/>
</svg>
