<svg width="24" height="24" viewBox="0 0 24 24" fill="none" xmlns="http://www.w3.org/2000/svg">
<path d="M18 8V4C18 3.72386 17.7761 3.5 17.5 3.5H16C15.7239 3.5 15.5 3.72386 15.5 4V6.5M9.51925 3.79698L5.37165 5.16955C4.55287 5.44051 4 6.20583 4 7.06828V18.75C4 19.8546 4.89543 20.75 6 20.75H18.5C19.6046 20.75 20.5 19.8546 20.5 18.75V10.9726C20.5 10.2864 20.1483 9.64821 19.5682 9.28174L11.2158 4.00489C10.7099 3.68525 10.0874 3.60897 9.51925 3.79698ZM8.5 11.75H10C10.2761 11.75 10.5 11.5261 10.5 11.25V9.75C10.5 9.47386 10.2761 9.25 10 9.25H8.5C8.22386 9.25 8 9.47386 8 9.75V11.25C8 11.5261 8.22386 11.75 8.5 11.75ZM17 20.5V14C17 13.7239 16.7761 13.5 16.5 13.5H14C13.7239 13.5 13.5 13.7239 13.5 14V20.5H17Z" stroke="black" stroke-width="1.25" stroke-linecap="round"/>
</svg>
