<svg width="21" height="21" viewBox="0 0 21 21" fill="none" xmlns="http://www.w3.org/2000/svg">
<g clip-path="url(#clip0_981_16486)">
<path d="M16.8008 10.4996C16.8008 11.4621 16.6008 12.3746 16.2383 13.2121H13.0758C13.2508 12.3871 13.3508 11.4621 13.3508 10.4996C13.3508 9.38711 13.2133 8.33711 12.9883 7.41211H16.0633C16.5383 8.33711 16.8133 9.38711 16.8133 10.4996H16.8008Z" stroke="#222222" stroke-width="0.7"/>
<path d="M13.0631 13.2129H16.2256C15.1881 15.5879 12.8131 17.2504 10.0381 17.2504C11.3881 17.2504 12.5506 15.5879 13.0631 13.2129Z" stroke="#222222" stroke-width="0.7"/>
<path d="M16.0508 7.4125H12.9758C12.4258 5.2375 11.3258 3.75 10.0508 3.75C12.6633 3.75 14.9383 5.2375 16.0508 7.4125Z" stroke="#222222" stroke-width="0.7"/>
<path d="M13.3508 10.4996C13.3508 11.4621 13.2508 12.3746 13.0758 13.2121H10.0508V7.41211H12.9758C13.2133 8.33711 13.3383 9.38711 13.3383 10.4996H13.3508Z" stroke="#222222" stroke-width="0.7"/>
<path d="M10.0508 13.2129H13.0758C12.5633 15.5879 11.4133 17.2504 10.0508 17.2504V13.2129Z" stroke="#222222" stroke-width="0.7"/>
<path d="M12.9758 7.4125H10.0508V3.75C11.3258 3.75 12.4383 5.2375 12.9758 7.4125Z" stroke="#222222" stroke-width="0.7"/>
<path d="M10.0506 13.2129V17.2504C8.70059 17.2504 7.53809 15.5879 7.03809 13.2129H10.0506Z" stroke="#222222" stroke-width="0.7"/>
<path d="M10.0507 7.41211V13.2121H7.03818C6.86318 12.3871 6.76318 11.4621 6.76318 10.4996C6.76318 9.38711 6.90068 8.33711 7.12568 7.41211H10.0507Z" stroke="#222222" stroke-width="0.7"/>
<path d="M10.051 3.75V7.4125H7.12598C7.67598 5.2375 8.77598 3.75 10.051 3.75Z" stroke="#222222" stroke-width="0.7"/>
<path d="M10.0508 3.75C8.77578 3.75 7.67578 5.2375 7.12578 7.4125H4.05078C5.16328 5.2375 7.42578 3.75 10.0508 3.75Z" stroke="#222222" stroke-width="0.7"/>
<path d="M7.03848 13.2129C7.55098 15.5879 8.70098 17.2504 10.051 17.2504C7.28848 17.2504 4.91348 15.5879 3.87598 13.2129H7.03848Z" stroke="#222222" stroke-width="0.7"/>
<path d="M4.05078 7.41211H7.12578C6.88828 8.33711 6.76328 9.38711 6.76328 10.4996C6.76328 11.4621 6.86328 12.3746 7.03828 13.2121H3.86328C3.50078 12.3871 3.30078 11.4621 3.30078 10.4996C3.30078 9.38711 3.56328 8.33711 4.05078 7.41211Z" stroke="#222222" stroke-width="0.7"/>
<path d="M10.0508 17.25C13.7787 17.25 16.8008 14.2279 16.8008 10.5C16.8008 6.77208 13.7787 3.75 10.0508 3.75C6.32286 3.75 3.30078 6.77208 3.30078 10.5C3.30078 14.2279 6.32286 17.25 10.0508 17.25Z" stroke="#222222" stroke-width="0.7"/>
<path d="M10.0507 17.25C11.8663 17.25 13.3382 14.2279 13.3382 10.5C13.3382 6.77208 11.8663 3.75 10.0507 3.75C8.23505 3.75 6.76318 6.77208 6.76318 10.5C6.76318 14.2279 8.23505 17.25 10.0507 17.25Z" stroke="#222222" stroke-width="0.7"/>
<path d="M10.0508 3.75V17.25" stroke="#222222" stroke-width="0.7"/>
<path d="M4.05078 7.41211H16.0508" stroke="#222222" stroke-width="0.7"/>
<path d="M3.86328 13.2129H16.2383" stroke="#222222" stroke-width="0.7"/>
</g>
<defs>
<clipPath id="clip0_981_16486">
<rect width="20" height="20" fill="white" transform="translate(0.0507812 0.5)"/>
</clipPath>
</defs>
</svg>
