<svg width="104" height="104" viewBox="0 0 104 104" fill="none" xmlns="http://www.w3.org/2000/svg">
<g clip-path="url(#clip0_1459_31048)">
<path d="M7.37012 100.029H96.8701" stroke="#37CAE2" stroke-width="2"/>
<path d="M33.5928 59.3828L42.8576 56.3778L52.7148 86.7693C53.1159 88.0058 52.4346 89.3412 51.198 89.7422L46.4229 91.291C45.1863 91.6921 43.851 91.0108 43.45 89.7742L33.5928 59.3828Z" stroke="black" stroke-width="2"/>
<path d="M19.9653 35.4355L38.8185 29.3207L47.1454 54.994L28.2923 61.1089C23.6123 62.6268 18.5733 60.056 17.0554 55.376L14.2325 46.6724C12.7145 41.9924 15.2853 36.9534 19.9653 35.4355Z" stroke="black" stroke-width="2"/>
<path d="M77.1203 54.281L47.1403 54.981L38.8203 29.311L63.5003 12.291L77.1203 54.281Z" stroke="black" stroke-width="2"/>
<path d="M62.0908 7.92969L78.5408 58.6297" stroke="black" stroke-width="2"/>
<path d="M67.9707 26.0704C71.9507 24.7804 76.2307 26.9604 77.5207 30.9404C78.8107 34.9204 76.6307 39.2004 72.6507 40.4904" stroke="black" stroke-width="2"/>
<path d="M82.1201 29.4505L95.9001 24.9805" stroke="black" stroke-width="2"/>
<path d="M82.5508 40.5195L95.4608 47.0995" stroke="black" stroke-width="2"/>
<path d="M75.9707 20.2401L82.5607 7.33008" stroke="black" stroke-width="2"/>
</g>
<defs>
<clipPath id="clip0_1459_31048">
<rect width="104" height="104" fill="white"/>
</clipPath>
</defs>
</svg>
