<svg width="78" height="74" viewBox="0 0 78 74" fill="none" xmlns="http://www.w3.org/2000/svg">
<path d="M4 69H68" stroke="#37CAE2" stroke-width="1.3"/>
<path d="M61.5139 49.1391V35M44.5 15.293H17.9583C14.5219 15.293 11.7361 18.0481 11.7361 21.4468V49.1391M12.7731 55.293H60.477C62.7677 55.293 64.625 53.456 64.625 51.1905C64.625 50.0576 63.6963 49.1391 62.5508 49.1391H10.6991C9.5536 49.1391 8.625 50.0576 8.625 51.1905C8.625 53.456 10.4822 55.293 12.7731 55.293Z" stroke="black" stroke-width="1.25" stroke-linecap="round"/>
<path d="M34.625 21.293H37.625" stroke="black" stroke-width="1.25" stroke-linecap="round"/>
<path d="M60.1029 19.3352C61.5737 20.8061 61.5898 23.2069 60.119 24.6777L57.5068 27.2899C56.0182 28.7784 53.6049 28.7784 52.1164 27.2899C50.6279 25.8013 50.6279 23.388 52.1164 21.8996L53.7597 20.2562M63.9446 18.5057V14.8116C63.9446 12.7065 62.2381 11 60.133 11C58.028 11 56.3215 12.7065 56.3215 14.8116V18.5057C56.3215 19.6831 56.9961 20.7029 57.9799 21.1996M64.7002 21.0288H68.1503M63.7144 23.4931L65.6859 26.4503" stroke="black" stroke-width="1.25" stroke-linecap="round"/>
<circle cx="59.5" cy="19.5" r="15.5" stroke="black" stroke-width="1.25" stroke-linecap="round"/>
<path d="M35.2202 28.4702C35.9637 27.0204 38.036 27.0204 38.7795 28.4702L45.5062 41.5873C46.1887 42.9182 45.2223 44.4999 43.7266 44.4999H30.2732C28.7775 44.4999 27.811 42.9182 28.4935 41.5873L35.2202 28.4702Z" stroke="black" stroke-width="1.25" stroke-linecap="round"/>
<path d="M36.519 37.3173L35.5492 33.9231C35.2739 32.9593 35.9975 32 36.9998 32C38.002 32 38.7257 32.9593 38.4503 33.9231L37.4805 37.3173C37.3424 37.8009 36.6572 37.8009 36.519 37.3173Z" stroke="black" stroke-width="1.25" stroke-linecap="round"/>
<path d="M38 41C38 41.5523 37.5523 42 37 42C36.4477 42 36 41.5523 36 41C36 40.4477 36.4477 40 37 40C37.5523 40 38 40.4477 38 41Z" stroke="black" stroke-width="1.25" stroke-linecap="round"/>
</svg>
