<svg width="20" height="20" viewBox="0 0 20 20" fill="none" xmlns="http://www.w3.org/2000/svg">
<g clip-path="url(#clip0_981_6248)">
<path d="M14.5375 7.175C15.4832 7.175 16.25 6.40829 16.25 5.4625C16.25 4.51671 15.4832 3.75 14.5375 3.75C13.5917 3.75 12.825 4.51671 12.825 5.4625C12.825 6.40829 13.5917 7.175 14.5375 7.175Z" stroke="#222222" stroke-width="0.75"/>
<path d="M14.5375 16.2492C15.4832 16.2492 16.25 15.4825 16.25 14.5367C16.25 13.5909 15.4832 12.8242 14.5375 12.8242C13.5917 12.8242 12.825 13.5909 12.825 14.5367C12.825 15.4825 13.5917 16.2492 14.5375 16.2492Z" stroke="#222222" stroke-width="0.75"/>
<path d="M5.4625 7.175C6.40829 7.175 7.175 6.40829 7.175 5.4625C7.175 4.51671 6.40829 3.75 5.4625 3.75C4.51671 3.75 3.75 4.51671 3.75 5.4625C3.75 6.40829 4.51671 7.175 5.4625 7.175Z" stroke="#222222" stroke-width="0.75"/>
<path d="M5.4625 16.2492C6.40829 16.2492 7.175 15.4825 7.175 14.5367C7.175 13.5909 6.40829 12.8242 5.4625 12.8242C4.51671 12.8242 3.75 13.5909 3.75 14.5367C3.75 15.4825 4.51671 16.2492 5.4625 16.2492Z" stroke="#222222" stroke-width="0.75"/>
<path d="M14.5376 12.8258V7.17578" stroke="#222222" stroke-width="0.75"/>
<path d="M7.17505 14.5371H12.825" stroke="#222222" stroke-width="0.75"/>
<path d="M5.4624 7.17578V12.8258" stroke="#222222" stroke-width="0.75"/>
<path d="M12.825 5.46289H7.17505" stroke="#222222" stroke-width="0.75"/>
</g>
<defs>
<clipPath id="clip0_981_6248">
<rect width="20" height="20" fill="white"/>
</clipPath>
</defs>
</svg>
