<svg width="49" height="49" viewBox="0 0 49 49" fill="none" xmlns="http://www.w3.org/2000/svg">
<g clip-path="url(#clip0_338_40580)">
<path d="M9.7207 48.4004H37.2807" stroke="#37CAE2" stroke-width="2"/>
<path d="M16.54 2.91992H32.21V16.0099C32.21 20.0599 28.92 23.3499 24.87 23.3499H23.88C19.83 23.3499 16.54 20.0599 16.54 16.0099V2.91992Z" stroke="white" stroke-width="1.3"/>
<path d="M32.21 5.15039H33.06C35.89 5.15039 38.2 7.45039 38.2 10.2904V10.9804C38.2 13.8104 35.9 16.1204 33.06 16.1204H32.21V5.15039Z" stroke="white" stroke-width="1.3"/>
<path d="M15.6898 5.15063H16.5398V16.1106H15.6898C12.8598 16.1106 10.5498 13.8106 10.5498 10.9706V10.2806C10.5498 7.45062 12.8498 5.14062 15.6898 5.14062V5.15063Z" stroke="white" stroke-width="1.3"/>
<path d="M24.3701 23.3496V41.5096" stroke="white" stroke-width="1.3"/>
<path d="M18.8896 41.5098H29.8596" stroke="white" stroke-width="1.3"/>
<path d="M24.3704 6.31055L26.3404 9.61055L30.1004 10.4605L27.5604 13.3605L27.9104 17.1905L24.3704 15.6805L20.8404 17.1905L21.1804 13.3605L18.6504 10.4605L22.4004 9.61055L24.3704 6.31055Z" stroke="white" stroke-width="1.3"/>
</g>
<defs>
<clipPath id="clip0_338_40580">
<rect width="49" height="49" fill="white"/>
</clipPath>
</defs>
</svg>
