<svg width="104" height="104" viewBox="0 0 104 104" fill="none" xmlns="http://www.w3.org/2000/svg">
<g clip-path="url(#clip0_1093_57365)">
<path d="M7.37012 100.029H96.8701" stroke="#37CAE2" stroke-width="2"/>
<path d="M30.5596 75.6302L35.4596 73.0502L63.0696 82.6002L96.8696 62.2202L95.5496 60.1402C93.2696 56.5502 88.5496 55.4202 84.8796 57.5702L67.7196 67.0002" stroke="black" stroke-width="2"/>
<path d="M21.5303 59.1095L41.1403 48.2695L67.2703 57.4895C69.8403 58.3995 71.2503 61.1495 70.4803 63.7595C69.6803 66.4695 66.8403 68.0295 64.1203 67.2295L49.6603 62.9795" stroke="black" stroke-width="2"/>
<path d="M19.6866 55.7257L7.12109 62.5938L19.2696 84.8204L31.8352 77.9523L19.6866 55.7257Z" stroke="black" stroke-width="2"/>
<path d="M21.0498 79.1606L26.1098 76.3906" stroke="black" stroke-width="2"/>
<path d="M54.8203 31.6304L60.4503 37.2604L73.0103 18.6504" stroke="black" stroke-width="2"/>
<path d="M63.7197 49.4705C74.8095 49.4705 83.7997 40.4804 83.7997 29.3905C83.7997 18.3007 74.8095 9.31055 63.7197 9.31055C52.6298 9.31055 43.6396 18.3007 43.6396 29.3905C43.6396 40.4804 52.6298 49.4705 63.7197 49.4705Z" stroke="black" stroke-width="2"/>
</g>
<defs>
<clipPath id="clip0_1093_57365">
<rect width="104" height="104" fill="white"/>
</clipPath>
</defs>
</svg>
