<svg width="20" height="20" viewBox="0 0 20 20" fill="none" xmlns="http://www.w3.org/2000/svg">
<g clip-path="url(#clip0_722_19254)">
<path d="M10.9378 9.16094C10.8753 9.18594 10.8128 9.19844 10.7378 9.19844C10.4253 9.22344 10.1378 9.03594 9.90029 8.87344C9.72529 8.76094 9.57529 8.66094 9.42529 8.63594C9.27529 8.61094 9.07529 8.63594 8.87529 8.68594C8.57529 8.74844 8.27529 8.81094 8.00029 8.68594C7.81279 8.59844 7.68779 8.44844 7.58779 8.27344L5.17529 17.6484C5.17529 17.6484 5.17529 17.6859 5.18779 17.6984C5.20029 17.6984 5.21279 17.7109 5.23779 17.6984L6.87529 16.7859C7.07529 16.6734 7.32529 16.7359 7.45029 16.9359L8.45029 18.5234C8.45029 18.5234 8.47529 18.5484 8.48779 18.5484C8.50029 18.5484 8.51279 18.5359 8.52529 18.5109L10.9253 9.14844L10.9378 9.16094Z" fill="white" stroke="#222222" stroke-width="0.75" stroke-linecap="round" stroke-linejoin="round"/>
<path d="M9.06299 9.16094C9.12549 9.18594 9.18799 9.19844 9.26299 9.19844C9.57549 9.22344 9.86299 9.03594 10.1005 8.87344C10.2755 8.76094 10.4255 8.66094 10.5755 8.63594C10.7255 8.61094 10.9255 8.63594 11.1255 8.68594C11.4255 8.74844 11.7255 8.81094 12.0005 8.68594C12.188 8.59844 12.313 8.44844 12.413 8.27344L14.8255 17.6484C14.8255 17.6484 14.8255 17.6859 14.813 17.6984C14.8005 17.6984 14.788 17.7109 14.763 17.6984L13.1255 16.7859C12.9255 16.6734 12.6755 16.7359 12.5505 16.9359L11.5505 18.5234C11.5505 18.5234 11.5255 18.5484 11.513 18.5484C11.5005 18.5484 11.488 18.5359 11.4755 18.5109L9.07549 9.14844L9.06299 9.16094Z" fill="white" stroke="#222222" stroke-width="0.75" stroke-linecap="round" stroke-linejoin="round"/>
<path d="M15.3001 8.43672C15.4751 8.21172 15.6376 7.98672 15.6376 7.78672C15.6376 7.58672 15.4751 7.36172 15.3001 7.13672C15.1376 6.92422 14.9751 6.71172 14.9126 6.47422C14.8501 6.22422 14.8751 5.94922 14.9126 5.67422C14.9501 5.39922 14.9876 5.13672 14.8876 4.96172C14.7876 4.78672 14.5376 4.68672 14.2751 4.57422C14.0251 4.47422 13.7751 4.36172 13.5876 4.18672C13.4001 4.01172 13.3001 3.74922 13.2001 3.49922C13.0876 3.23672 12.9876 2.98672 12.8126 2.88672C12.6501 2.78672 12.3876 2.82422 12.1001 2.86172C11.8376 2.89922 11.5626 2.93672 11.3001 2.86172C11.0626 2.79922 10.8376 2.63672 10.6376 2.47422C10.4126 2.29922 10.1876 2.13672 9.9876 2.13672C9.7876 2.13672 9.5626 2.29922 9.3376 2.47422C9.1251 2.63672 8.9126 2.79922 8.6751 2.86172C8.4251 2.92422 8.1501 2.89922 7.8751 2.86172C7.6001 2.82422 7.3376 2.78672 7.1626 2.88672C6.9876 2.98672 6.8876 3.23672 6.7751 3.49922C6.6751 3.74922 6.5626 3.99922 6.3876 4.18672C6.2001 4.37422 5.9501 4.47422 5.7126 4.57422C5.4501 4.68672 5.2001 4.78672 5.1001 4.96172C5.0001 5.12422 5.0376 5.38672 5.0751 5.67422C5.1126 5.93672 5.1501 6.21172 5.0751 6.47422C5.0126 6.71172 4.8501 6.93672 4.6876 7.13672C4.5126 7.36172 4.3501 7.58672 4.3501 7.78672C4.3501 7.98672 4.5126 8.21172 4.6876 8.43672C4.8501 8.64922 5.0126 8.86172 5.0751 9.09922C5.1376 9.34922 5.1126 9.62422 5.0751 9.89922C5.0376 10.1742 5.0001 10.4367 5.1001 10.6117C5.2001 10.7867 5.4501 10.8867 5.7126 10.9992C5.9626 11.0992 6.2126 11.1992 6.3876 11.3867C6.5751 11.5742 6.6751 11.8242 6.7751 12.0742C6.8876 12.3367 6.9876 12.5867 7.1626 12.6867C7.3251 12.7867 7.6001 12.7492 7.8751 12.7117C8.0251 12.6867 8.1876 12.6742 8.3501 12.6742C8.4626 12.6742 8.5751 12.6742 8.6751 12.7117C8.9251 12.7742 9.1376 12.9367 9.3376 13.0992C9.5626 13.2742 9.7876 13.4367 9.9876 13.4367C10.1876 13.4367 10.4126 13.2742 10.6376 13.0992C10.8501 12.9367 11.0626 12.7742 11.3001 12.7117C11.5501 12.6492 11.8251 12.6742 12.1001 12.7117C12.3751 12.7492 12.6376 12.7867 12.8126 12.6867C12.9876 12.5867 13.0876 12.3367 13.2001 12.0742C13.3001 11.8242 13.4001 11.5742 13.5876 11.3867C13.7751 11.1992 14.0251 11.0992 14.2751 10.9992C14.5376 10.8867 14.7876 10.7867 14.8876 10.6117C14.9876 10.4492 14.9501 10.1742 14.9126 9.89922C14.8751 9.63672 14.8376 9.36172 14.9126 9.09922C14.9751 8.84922 15.1376 8.63672 15.3001 8.43672Z" fill="white" stroke="#222222" stroke-width="0.75" stroke-linecap="round" stroke-linejoin="round"/>
<path d="M10 10.4121C11.4497 10.4121 12.625 9.23686 12.625 7.78711C12.625 6.33736 11.4497 5.16211 10 5.16211C8.55025 5.16211 7.375 6.33736 7.375 7.78711C7.375 9.23686 8.55025 10.4121 10 10.4121Z" stroke="#222222" stroke-width="0.75"/>
</g>
<defs>
<clipPath id="clip0_722_19254">
<rect width="20" height="20" fill="white"/>
</clipPath>
</defs>
</svg>
