<svg width="21" height="21" viewBox="0 0 21 21" fill="none" xmlns="http://www.w3.org/2000/svg">
<g clip-path="url(#clip0_981_16477)">
<path d="M10.7484 13.0359C12.1499 13.0359 13.2859 11.8999 13.2859 10.4984C13.2859 9.09702 12.1499 7.96094 10.7484 7.96094C9.34702 7.96094 8.21094 9.09702 8.21094 10.4984C8.21094 11.8999 9.34702 13.0359 10.7484 13.0359Z" stroke="#222222" stroke-width="0.8"/>
<path d="M11.9358 17.9242H9.56077C9.08577 17.9242 8.68577 17.5367 8.68577 17.0492V16.6117C8.68577 16.3367 8.52327 16.0742 8.26077 15.9617C7.91077 15.7992 7.57327 15.5992 7.26077 15.3742C7.03577 15.2117 6.73577 15.1992 6.48577 15.3367L6.11077 15.5492C5.91077 15.6617 5.67327 15.6992 5.44827 15.6367C5.22327 15.5742 5.03577 15.4367 4.92327 15.2242L3.73577 13.1742C3.62327 12.9742 3.58577 12.7367 3.64827 12.5117C3.71077 12.2867 3.84827 12.0992 4.06077 11.9867L4.43577 11.7742C4.68577 11.6367 4.82327 11.3617 4.79827 11.0867C4.77327 10.8867 4.77327 10.6992 4.77327 10.4992C4.77327 10.2992 4.77327 10.1117 4.79827 9.91172C4.82327 9.63672 4.68577 9.36172 4.43577 9.22422L4.06077 9.01172C3.86077 8.89922 3.71077 8.71172 3.64827 8.48672C3.58577 8.26172 3.62327 8.02422 3.73577 7.82422L4.92327 5.77422C5.03577 5.57422 5.22327 5.42422 5.44827 5.36172C5.67327 5.29922 5.91077 5.33672 6.11077 5.44922L6.48577 5.66172C6.73577 5.79922 7.03577 5.78672 7.26077 5.62422C7.57327 5.39922 7.91077 5.19922 8.26077 5.03672C8.52327 4.92422 8.68577 4.66172 8.68577 4.38672V3.94922C8.68577 3.47422 9.07327 3.07422 9.56077 3.07422H11.9358C12.4108 3.07422 12.8108 3.46172 12.8108 3.94922V4.38672C12.8108 4.66172 12.9733 4.92422 13.2358 5.03672C13.5858 5.19922 13.9233 5.39922 14.2358 5.62422C14.4608 5.78672 14.7608 5.79922 15.0108 5.66172L15.3858 5.44922C15.5858 5.33672 15.8233 5.29922 16.0483 5.36172C16.2733 5.42422 16.4608 5.56172 16.5733 5.77422L17.7608 7.82422C17.9983 8.23672 17.8608 8.77422 17.4358 9.01172L17.0608 9.22422C16.8108 9.36172 16.6733 9.63672 16.6983 9.91172C16.7233 10.1117 16.7233 10.2992 16.7233 10.4992C16.7233 10.6992 16.7233 10.8867 16.6983 11.0867C16.6733 11.3617 16.8108 11.6367 17.0608 11.7742L17.4358 11.9867C17.6358 12.0992 17.7858 12.2867 17.8483 12.5117C17.9108 12.7367 17.8733 12.9742 17.7608 13.1742L16.5733 15.2242C16.3358 15.6367 15.7983 15.7867 15.3858 15.5492L15.0108 15.3367C14.7608 15.1992 14.4608 15.2117 14.2358 15.3742C13.9233 15.5992 13.5858 15.7992 13.2358 15.9617C12.9733 16.0742 12.8108 16.3367 12.8108 16.6117V17.0492C12.8108 17.5242 12.4233 17.9242 11.9358 17.9242Z" stroke="#222222" stroke-width="0.8"/>
</g>
<defs>
<clipPath id="clip0_981_16477">
<rect width="20" height="20" fill="white" transform="translate(0.748047 0.5)"/>
</clipPath>
</defs>
</svg>
