<svg width="76" height="76" viewBox="0 0 76 76" fill="none" xmlns="http://www.w3.org/2000/svg">
<g clip-path="url(#clip0_1459_31410)">
<path d="M12.1602 71.6309H66.4302" stroke="#37CAE2" stroke-width="1.3"/>
<path d="M36.3302 29.1797H40.4302C45.8702 29.1797 50.2802 33.5897 50.2802 39.0297V64.2097H13.4502V39.0297C13.4502 33.5897 17.8602 29.1797 23.3002 29.1797H27.3802" stroke="#222222" stroke-width="1.3" stroke-miterlimit="10"/>
<path d="M40.1503 14.7297V18.8797C40.1503 23.4797 36.4403 27.1997 31.8503 27.1997C27.2603 27.1997 23.5303 23.4897 23.5303 18.8797V14.7297C23.5303 12.2897 24.5903 10.1097 26.2603 8.59969C27.7303 7.24969 29.7003 6.42969 31.8503 6.42969C34.1403 6.42969 36.2203 7.35969 37.7303 8.84969C38.8903 10.0297 39.7103 11.5397 40.0203 13.2497C40.1103 13.7197 40.1503 14.2097 40.1503 14.7197V14.7297Z" stroke="#222222" stroke-width="1.3" stroke-miterlimit="10"/>
<path d="M27.3701 29.1797L31.8601 39.4697L36.3301 29.1797" stroke="#222222" stroke-width="1.3" stroke-miterlimit="10"/>
<path d="M27.3701 25.8906V29.1806" stroke="#222222" stroke-width="1.3" stroke-miterlimit="10"/>
<path d="M36.3301 25.8906V29.1806" stroke="#222222" stroke-width="1.3" stroke-miterlimit="10"/>
<path d="M21.1797 64.2005V45.2305" stroke="#222222" stroke-width="1.3" stroke-miterlimit="10"/>
<path d="M42.54 64.2005V45.2305" stroke="#222222" stroke-width="1.3" stroke-miterlimit="10"/>
<path d="M40.0198 13.2499C38.5798 14.1599 36.8698 14.6699 35.0698 14.6699C31.0498 14.6699 27.6098 12.1599 26.2598 8.58992C27.7298 7.23992 29.6998 6.41992 31.8498 6.41992C34.1398 6.41992 36.2198 7.34992 37.7298 8.83992C38.8898 10.0199 39.7098 11.5299 40.0198 13.2399V13.2499Z" stroke="#222222" stroke-width="1.3" stroke-miterlimit="10"/>
<path d="M31.8604 39.4697L23.9404 33.1097L27.3704 29.1797" stroke="#222222" stroke-width="1.3" stroke-miterlimit="10"/>
<path d="M31.8604 39.4697L39.7803 33.1097L36.3503 29.1797" stroke="#222222" stroke-width="1.3" stroke-miterlimit="10"/>
<path d="M31.8604 39.4707V64.2007" stroke="#222222" stroke-width="1.3" stroke-miterlimit="10"/>
<path d="M28.2803 31.2402H35.4003" stroke="#222222" stroke-width="1.3" stroke-miterlimit="10"/>
<path d="M52.4297 20.9299L55.1497 23.6499L61.2197 14.6699" stroke="#222222" stroke-width="1.3" stroke-miterlimit="10"/>
<path d="M56.7303 29.5504C62.0874 29.5504 66.4303 25.2076 66.4303 19.8504C66.4303 14.4932 62.0874 10.1504 56.7303 10.1504C51.3731 10.1504 47.0303 14.4932 47.0303 19.8504C47.0303 25.2076 51.3731 29.5504 56.7303 29.5504Z" stroke="#222222" stroke-width="1.3" stroke-miterlimit="10"/>
</g>
<defs>
<clipPath id="clip0_1459_31410">
<rect width="76" height="76" fill="white"/>
</clipPath>
</defs>
</svg>
