<svg width="35" height="39" viewBox="0 0 35 39" fill="none" xmlns="http://www.w3.org/2000/svg">
<path d="M2.23913 16.2351L12.6139 25.7263L2.23913 16.2351ZM33.0264 16.5206L22.4485 25.7263L33.0264 16.5206ZM2.23913 37.1927C2.88434 37.6944 3.7319 37.9988 4.66016 37.9988H30.2812C31.3743 37.9988 32.3556 37.5766 33.0264 36.9072M2.23913 37.1927L12.6139 25.7263L2.23913 37.1927ZM12.6139 25.7263L14.9734 27.8848C16.3796 29.041 18.562 29.041 19.9682 27.8848L22.4485 25.7263M22.4485 25.7263L33.0264 36.9072L22.4485 25.7263Z" fill="white"/>
<path d="M2.23913 16.2351L12.6139 25.7263M12.6139 25.7263L2.23913 37.1927M12.6139 25.7263L14.9734 27.8848C16.3796 29.041 18.562 29.041 19.9682 27.8848L22.4485 25.7263M33.0264 16.5206L22.4485 25.7263M22.4485 25.7263L33.0264 36.9072M2.23913 37.1927C2.88434 37.6944 3.7319 37.9988 4.66016 37.9988H30.2812C31.3744 37.9988 32.3556 37.5766 33.0264 36.9072M2.23913 37.1927C1.47926 36.6019 1 35.7375 1 34.7746V18.6533C1 17.4675 1.72669 16.4312 2.80918 15.8711M33.0264 36.9072C33.5959 36.3388 33.9414 35.5922 33.9414 34.7746V18.6533C33.9414 17.4675 33.2147 16.4312 32.1322 15.8711" stroke="black" stroke-width="1.25" stroke-linecap="round"/>
<path d="M33.0254 16.6621L22.6506 7.17087L33.0254 16.6621ZM2.23816 16.3766L12.816 7.17086L2.23816 16.3766ZM22.6506 7.17087L20.2911 5.01239C18.8849 3.85617 16.7025 3.85617 15.2963 5.01239L12.816 7.17086" fill="white"/>
<path d="M33.0254 16.6621L22.6506 7.17087L20.2911 5.01239C18.8849 3.85617 16.7025 3.85617 15.2963 5.01239L12.816 7.17086L2.23816 16.3766" stroke="black" stroke-width="1.25" stroke-linecap="round"/>
<rect x="7.58789" y="3.17578" width="20.5884" height="12.3328" fill="white"/>
<path d="M28.1763 10.0682H21.3135C19.4183 10.0682 17.8821 8.7149 17.8821 7.04548V1M12.735 18.411H23.0292H12.735ZM12.735 14.9651H17.8821H12.735Z" fill="white"/>
<path d="M28.1763 10.0682H21.3135C19.4183 10.0682 17.8821 8.7149 17.8821 7.04548V1M12.735 18.411H23.0292M12.735 14.9651H17.8821M28.1763 20.5874L28.1763 9.80892C28.1763 9.00722 27.8148 8.23839 27.1712 7.67151L20.6028 1.88535C19.9593 1.31846 19.0865 1 18.1765 1H11.0193C9.12418 1 7.58789 2.35333 7.58789 4.02274V20.5874" stroke="black" stroke-width="1.25" stroke-linecap="round"/>
</svg>
