<?xml version="1.0" encoding="UTF-8"?>
<svg id="Layer_1" xmlns="http://www.w3.org/2000/svg" version="1.1" viewBox="0 0 67 67">
  <!-- Generator: Adobe Illustrator 29.5.1, SVG Export Plug-In . SVG Version: 2.1.0 Build 141)  -->
  <defs>
    <style>
      .st0 {
        fill: #fff;
      }

      .st1 {
        fill: #3666af;
      }
    </style>
  </defs>
  <path class="st0" d="M30.1,5c-11.4,1.3-20.6,10.3-22,21.7-1.3,10.3,3.7,19.6,11.6,24.5,1.8,1.1,3.4,2.5,4.8,4.1l5,5.4c1.9,2,5.1,2,7,0l5-5.4c1.5-1.6,3.1-3,5-4.2,7-4.5,11.6-12.3,11.6-21.2,0-14.8-12.8-26.6-28-24.9Z"/>
  <path class="st1" d="M32.9,50.6c-11.4,0-20.7-9.3-20.7-20.7s9.3-20.7,20.7-20.7,20.7,9.3,20.7,20.7-9.3,20.7-20.7,20.7Z"/>
  <rect class="st0" x="23" y="32" width="3.5" height="8.4"/>
  <rect class="st0" x="31.1" y="26.2" width="3.5" height="14.2"/>
  <rect class="st0" x="39.2" y="19.4" width="3.5" height="21"/>
</svg>