<svg width="76" height="76" viewBox="0 0 76 76" fill="none" xmlns="http://www.w3.org/2000/svg">
<g clip-path="url(#clip0_338_40616)">
<path d="M3.37012 73.4707H72.6601" stroke="#37CAE2" stroke-width="1.3"/>
<path d="M71.5697 19.3203H4.46973V66.0003H71.5697V19.3203Z" stroke="black" stroke-width="1.3" stroke-miterlimit="10"/>
<path d="M61.4298 24.8398H14.5898V65.9998H61.4298V24.8398Z" stroke="black" stroke-width="1.3" stroke-miterlimit="10"/>
<path d="M37.3594 24.8398V32.4098" stroke="black" stroke-width="1.3" stroke-miterlimit="10"/>
<path d="M14.5898 28.1602H61.4398" stroke="black" stroke-width="1.3" stroke-miterlimit="10"/>
<path d="M14.5898 32.4102H61.4398" stroke="black" stroke-width="1.3" stroke-miterlimit="10"/>
<path d="M4.46973 60.6309H71.5597" stroke="black" stroke-width="1.3" stroke-miterlimit="10"/>
<path d="M29.2095 63.3496H24.2695V65.9996H29.2095V63.3496Z" stroke="black" stroke-width="1.3" stroke-miterlimit="10"/>
<path d="M51.7095 63.3105H46.7695V66.0105H51.7095V63.3105Z" stroke="black" stroke-width="1.3" stroke-miterlimit="10"/>
<path d="M71.56 19.3703L71.52 19.3303C63.06 10.5403 51.17 5.07031 38.01 5.07031C24.85 5.07031 12.96 10.5303 4.49996 19.3203C4.48996 19.3303 4.46996 19.3403 4.45996 19.3603" stroke="black" stroke-width="1.3" stroke-miterlimit="10"/>
<path d="M31.7898 49.8496H21.0098V60.6296H31.7898V49.8496Z" stroke="black" stroke-width="1.3" stroke-miterlimit="10"/>
<path d="M42.57 49.8496H31.79V60.6296H42.57V49.8496Z" stroke="black" stroke-width="1.3" stroke-miterlimit="10"/>
<path d="M37.1804 39.0605H26.4004V49.8405H37.1804V39.0605Z" stroke="black" stroke-width="1.3" stroke-miterlimit="10"/>
</g>
<defs>
<clipPath id="clip0_338_40616">
<rect width="76" height="76" fill="white"/>
</clipPath>
</defs>
</svg>
