<svg width="21" height="21" viewBox="0 0 21 21" fill="none" xmlns="http://www.w3.org/2000/svg">
<g clip-path="url(#clip0_981_16513)">
<path d="M10.6056 7.04883C11.5181 7.04883 12.2556 7.77383 12.2556 8.69883C12.2556 9.62383 11.5056 10.3488 10.6056 10.3488C9.70557 10.3488 8.95557 9.59883 8.95557 8.69883C8.95557 7.79883 9.70557 7.04883 10.6056 7.04883Z" stroke="#222222" stroke-width="0.8"/>
<path d="M14.3805 11.0242L10.6055 16.7367L6.83047 11.0242C6.41797 10.3492 6.16797 9.54922 6.16797 8.69922C6.18047 6.24922 8.15547 4.27422 10.6055 4.26172H10.618C13.068 4.27422 15.043 6.24922 15.043 8.69922C15.043 9.54922 14.793 10.3492 14.3805 11.0242ZM10.6055 10.3492C11.518 10.3492 12.2555 9.59922 12.2555 8.69922C12.2555 7.79922 11.5055 7.04922 10.6055 7.04922C9.70547 7.04922 8.95547 7.77422 8.95547 8.69922C8.95547 9.62422 9.70547 10.3492 10.6055 10.3492Z" stroke="#222222" stroke-width="0.8"/>
<path d="M8.10547 17.2109H13.1055" stroke="#222222" stroke-width="0.8"/>
</g>
<defs>
<clipPath id="clip0_981_16513">
<rect width="20" height="20" fill="white" transform="translate(0.605469 0.5)"/>
</clipPath>
</defs>
</svg>
