<?xml version="1.0" encoding="UTF-8"?>
<svg id="Layer_1" xmlns="http://www.w3.org/2000/svg" version="1.1" viewBox="0 0 67 67">
  <!-- Generator: Adobe Illustrator 29.5.1, SVG Export Plug-In . SVG Version: 2.1.0 Build 141)  -->
  <defs>
    <style>
      .st0 {
        fill: #fff;
      }

      .st1 {
        fill: #5aae50;
      }
    </style>
  </defs>
  <path class="st0" d="M30.1,5c-11.4,1.3-20.6,10.3-22,21.7-1.3,10.3,3.7,19.6,11.6,24.5,1.8,1.1,3.4,2.5,4.8,4.1l5,5.4c1.9,2,5.1,2,7,0l5-5.4c1.5-1.6,3.1-3,5-4.2,7-4.5,11.6-12.3,11.6-21.2,0-14.8-12.8-26.6-28-24.9Z"/>
  <path class="st1" d="M32.9,50.6c-11.4,0-20.7-9.3-20.7-20.7s9.3-20.7,20.7-20.7,20.7,9.3,20.7,20.7-9.3,20.7-20.7,20.7Z"/>
  <g>
    <path class="st0" d="M40.7,22.5c-.8-.5-1.8-.8-2.8-.8h-3.8c-.9,0-1.7.4-2.3,1.1h0l-6,6.7c-.2.3-.2.7,0,.9,1.6,1.6,4.1,1.6,5.7,0l1.6-1.6c.2-.2.5-.3.8-.4.3,0,.7,0,1,.4l9.1,9,5.5-4.3c.3-1.2.4-2.4.4-3.6,0-3.6-1.1-6.9-3-9.7l-5.1,3.1-1.2-.8h0Z"/>
    <path class="st0" d="M16.1,33.4l10.1,8.3c1.2,1,2.7,1.5,4.2,1.5h.8l-.4-.4c-.5-.5-.5-1.3,0-1.8s1.3-.5,1.7,0l2.1,2.1h.5c1,0,2-.2,2.8-.6l-1.4-1.4c-.5-.5-.5-1.3,0-1.8s1.3-.5,1.8,0l1.7,1.7.9-.9c.5-.5.6-1.1.4-1.7l-7.1-7.1-.8.8c-2.5,2.5-6.7,2.5-9.2,0s-1.2-3.1,0-4.3l5.5-6.1h-2c-1.3,0-2.6.5-3.5,1.5l-.2.2-5.1-3.2c-1.9,2.8-3,6.1-3,9.7s.1,2.3.4,3.5h-.2Z"/>
  </g>
</svg>