<svg width="51" height="51" viewBox="0 0 51 51" fill="none" xmlns="http://www.w3.org/2000/svg">
<g clip-path="url(#clip0_338_40589)">
<path d="M10.1172 50.293H38.8021" stroke="#37CAE2" stroke-width="2"/>
<path d="M28.3724 18.8496H31.2243C35.0024 18.8496 38.0728 21.9096 38.0728 25.6982V43.2047H12.4688V25.6982C12.4688 21.92 15.5287 18.8496 19.3173 18.8496H22.1588" stroke="white" stroke-width="1.3" stroke-miterlimit="10"/>
<path d="M31.027 8.80583V11.6889C31.027 14.8946 28.4458 17.4654 25.2609 17.4654C22.076 17.4654 19.4844 14.8842 19.4844 11.6889V8.80583C19.4844 7.1093 20.2129 5.58971 21.3787 4.53848C22.3987 3.60175 23.7725 3.0293 25.2609 3.0293C26.8534 3.0293 28.3001 3.6746 29.3513 4.71542C30.1632 5.53766 30.7252 6.58889 30.9438 7.77542C31.0062 8.10848 31.0374 8.44154 31.0374 8.79542L31.027 8.80583Z" stroke="white" stroke-width="1.3" stroke-miterlimit="10"/>
<path d="M22.1484 18.8496L25.2709 26.0104L28.3725 18.8496" stroke="white" stroke-width="1.3" stroke-miterlimit="10"/>
<path d="M22.1484 16.5703V18.8497" stroke="white" stroke-width="1.3" stroke-miterlimit="10"/>
<path d="M28.373 16.5703V18.8497" stroke="white" stroke-width="1.3" stroke-miterlimit="10"/>
<path d="M17.8398 43.2047V30.0176" stroke="white" stroke-width="1.3" stroke-miterlimit="10"/>
<path d="M32.6924 43.2047V30.0176" stroke="white" stroke-width="1.3" stroke-miterlimit="10"/>
<path d="M30.943 7.78519C29.9438 8.42008 28.7573 8.77396 27.4979 8.77396C24.6981 8.77396 22.3147 7.02539 21.3779 4.54825C22.3979 3.61151 23.7718 3.03906 25.2602 3.03906C26.8526 3.03906 28.2994 3.68437 29.3506 4.72518C30.1624 5.54743 30.7245 6.59865 30.943 7.78519Z" stroke="white" stroke-width="1.3" stroke-miterlimit="10"/>
<path d="M25.2706 26.0104L19.7646 21.5974L22.1481 18.8496" stroke="white" stroke-width="1.3" stroke-miterlimit="10"/>
<path d="M25.2715 26.0104L30.7774 21.5974L28.3835 18.8496" stroke="white" stroke-width="1.3" stroke-miterlimit="10"/>
<path d="M25.2715 26.0098V43.204" stroke="white" stroke-width="1.3" stroke-miterlimit="10"/>
<path d="M22.7734 20.2969H27.7277" stroke="white" stroke-width="1.3" stroke-miterlimit="10"/>
</g>
<defs>
<clipPath id="clip0_338_40589">
<rect width="51" height="51" fill="white"/>
</clipPath>
</defs>
</svg>
