<svg width="205" height="71" viewBox="0 0 205 71" fill="none" xmlns="http://www.w3.org/2000/svg">
<g clip-path="url(#clip0_377_22830)">
<path d="M16.7576 25.7014C20.3774 26.5394 24.0113 27.6988 27.5892 29.2632C31.1671 27.6848 34.815 26.5394 38.4208 25.7014L29.504 7.19359H45.2692C40.5313 2.72379 34.1441 0 27.114 0C20.0839 0 13.6968 2.72378 8.94482 7.17962H25.6605L16.7436 25.6874L16.7576 25.7014Z" fill="white"/>
<path d="M22.8652 31.6239C20.4892 30.7439 17.8617 29.9756 14.9966 29.375L7.64502 44.6561C12.1454 38.9432 17.3586 34.7248 22.8792 31.6239" fill="white"/>
<path d="M44.794 28.5789L50.133 39.8651C52.1875 36.3172 53.4453 32.2525 53.655 27.9224C50.4824 27.9782 47.5334 28.2157 44.78 28.5928" fill="white"/>
<path d="M10.3844 28.5787C7.36548 28.1736 4.09503 27.9222 0.572998 27.8943C0.796619 32.6015 2.26413 36.9875 4.62612 40.731L10.3844 28.5648V28.5787Z" fill="white"/>
<path d="M27.5892 33.6353C17.68 38.5241 13.0259 45.1729 11.4047 47.9945C15.8072 51.2211 21.23 53.1348 27.114 53.1348C33.2916 53.1348 38.9659 51.0256 43.4803 47.5056C41.6214 44.4606 36.9673 38.2587 27.5892 33.6353Z" fill="white"/>
<path d="M18.4627 11.4958L5.15729 11.5797C2.73939 15.1276 1.13212 19.304 0.670898 23.8018C4.30474 23.8576 8.19015 24.151 12.1594 24.7935L18.4627 11.4958Z" fill="white"/>
<path d="M40.1819 29.3611C37.3028 29.9617 34.6892 30.73 32.3132 31.61C37.6522 34.5991 42.6976 38.6499 47.1002 44.0835C47.2539 44.2651 47.4076 44.4606 47.5474 44.6422L47.212 43.9578L40.1819 29.3611Z" fill="white"/>
<path d="M43.0051 24.7935C46.6389 24.2068 50.1889 23.9135 53.5572 23.8157C53.096 19.304 51.4887 15.1136 49.0568 11.5657L36.7018 11.4958L43.0051 24.7935Z" fill="white"/>
<path d="M121.035 53.2326C121.482 52.185 126.975 40.1165 143.397 32.462L143.439 53.2326H148.876V30.2271C154.019 28.4252 160.015 27.0843 167.017 26.4976L154.438 53.2326H160.686L172.845 26.2043C176.94 26.1205 181.343 26.302 186.053 26.777L198.366 53.1907H203.97L191.867 27.5033C195.584 28.0481 199.498 28.7744 203.593 29.6963L201.552 24.2487C201.552 24.2487 196.744 22.8519 189.211 21.8881L179.19 -0.013916L169.505 21.1897C162.936 21.5948 155.892 22.6983 148.862 24.989V5.62921L164.264 5.51746L169.029 0.0838609H143.327L143.383 27.0423C133.921 31.0233 124.78 37.4067 117.303 47.366L139.064 0.0419565H111.279V5.61524L130.385 5.48953L108.778 53.2466H121.049L121.035 53.2326ZM179.204 12.0825L183.509 21.3154C180.909 21.1199 178.114 21.0081 175.179 21.0221L179.204 12.0825Z" fill="white"/>
<path d="M75.1785 29.6684H91.4749L102.321 53.2326H107.925L83.187 0.0419922L71.6984 24.7516L71.4609 25.2684L58.4629 53.2326H64.7103L75.1925 29.6684H75.1785ZM83.187 11.6635L89.2108 24.7516H77.3588L83.173 11.6635H83.187Z" fill="white"/>
<path d="M203.844 59.9792H57.6243V60.3424H203.844V59.9792Z" fill="white"/>
<path d="M2.34802 65.1892L0 70.9301H0.614957C0.614957 70.9301 0.740744 70.9161 0.782673 70.8742C0.824602 70.8323 0.866531 70.7904 0.880507 70.7485L1.42558 69.3657H4.0671L4.61218 70.7485C4.61218 70.7485 4.66809 70.8463 4.71001 70.8742C4.75194 70.9161 4.80785 70.9301 4.87773 70.9301H5.49269L3.14467 65.1892H2.33404H2.34802ZM1.6492 68.793L2.57164 66.4603C2.62755 66.3206 2.69743 66.139 2.75333 65.9156C2.78128 66.0133 2.80924 66.1111 2.83719 66.2089C2.86514 66.3067 2.89309 66.3765 2.92105 66.4463L3.84348 68.779H1.6492V68.793Z" fill="white"/>
<path d="M9.18238 68.1785C9.05659 68.0668 8.90285 67.969 8.73513 67.8992C8.56742 67.8293 8.3997 67.7595 8.21801 67.7036C8.03632 67.6478 7.8686 67.5919 7.70089 67.536C7.53317 67.4801 7.37943 67.4103 7.25365 67.3405C7.12786 67.2706 7.01605 67.1728 6.93219 67.0751C6.84833 66.9633 6.8064 66.8376 6.8064 66.67C6.8064 66.5443 6.83436 66.4325 6.87629 66.3208C6.91822 66.209 6.9881 66.1252 7.08593 66.0414C7.18376 65.9576 7.29558 65.9017 7.42136 65.8459C7.56112 65.804 7.71486 65.776 7.89656 65.776C8.07825 65.776 8.24596 65.804 8.37175 65.8459C8.49754 65.8878 8.62332 65.9436 8.70718 65.9995C8.80502 66.0554 8.8749 66.0973 8.94478 66.1532C9.01466 66.209 9.05659 66.223 9.11249 66.223C9.15442 66.223 9.18238 66.223 9.2243 66.1951C9.25226 66.1811 9.28021 66.1392 9.30816 66.1113L9.50383 65.7481C9.29419 65.5525 9.05659 65.4129 8.79104 65.3011C8.52549 65.1894 8.21801 65.1475 7.89656 65.1475C7.60305 65.1475 7.3375 65.1894 7.11388 65.2871C6.89026 65.371 6.69459 65.4967 6.54085 65.6363C6.38712 65.79 6.2753 65.9436 6.19145 66.1392C6.10759 66.3348 6.06566 66.5303 6.06566 66.7259C6.06566 66.9773 6.10759 67.1868 6.19145 67.3684C6.2753 67.536 6.37314 67.6897 6.5129 67.8014C6.63869 67.9132 6.79243 68.0109 6.96014 68.0808C7.12786 68.1506 7.30955 68.2205 7.47727 68.2763C7.65896 68.3322 7.82667 68.3881 7.99439 68.43C8.16211 68.4858 8.31585 68.5417 8.44163 68.6255C8.56742 68.6954 8.67923 68.7931 8.76309 68.9049C8.84694 69.0166 8.88887 69.1563 8.88887 69.3379C8.88887 69.4915 8.86092 69.6312 8.80502 69.7709C8.74911 69.8966 8.67923 70.0084 8.56742 70.1061C8.46958 70.2039 8.3438 70.2738 8.19006 70.3157C8.03632 70.3715 7.8686 70.3855 7.68691 70.3855C7.53317 70.3855 7.40739 70.3855 7.2816 70.3436C7.15581 70.3157 7.05798 70.2738 6.96014 70.2319C6.86231 70.19 6.77845 70.1481 6.70857 70.0922C6.63869 70.0363 6.56881 69.9944 6.5129 69.9525C6.457 69.9106 6.40109 69.8687 6.35916 69.8408C6.31723 69.8128 6.27531 69.7989 6.23338 69.7989C6.19145 69.7989 6.16349 69.7989 6.12157 69.8268C6.09361 69.8408 6.06566 69.8687 6.03771 69.8966L5.81409 70.2598C6.03771 70.4833 6.30326 70.6649 6.61074 70.8046C6.91822 70.9442 7.26762 71.0141 7.65896 71.0141C7.96644 71.0141 8.24596 70.9722 8.49754 70.8744C8.74911 70.7766 8.94478 70.6509 9.11249 70.4833C9.28021 70.3157 9.406 70.1341 9.48985 69.9106C9.57371 69.6871 9.61564 69.4496 9.61564 69.1982C9.61564 68.9608 9.57371 68.7652 9.48985 68.5976C9.406 68.43 9.30816 68.2903 9.1684 68.1925" fill="white"/>
<path d="M15.3739 65.9576C15.1223 65.6922 14.8148 65.4967 14.4514 65.357C14.0881 65.2173 13.6967 65.1475 13.2635 65.1475C12.8302 65.1475 12.4389 65.2173 12.0755 65.357C11.7261 65.4967 11.4186 65.7062 11.167 65.9576C10.9154 66.223 10.7198 66.5303 10.58 66.8935C10.4402 67.2566 10.3704 67.6478 10.3704 68.0808C10.3704 68.5138 10.4402 68.9049 10.58 69.2681C10.7198 69.6312 10.9154 69.9385 11.167 70.19C11.4186 70.4414 11.7261 70.6509 12.0755 70.7906C12.4249 70.9303 12.8302 71.0001 13.2635 71.0001C13.6967 71.0001 14.0881 70.9303 14.4514 70.7906C14.8148 70.6509 15.1083 70.4414 15.3739 70.19C15.6255 69.9246 15.8211 69.6173 15.9609 69.2681C16.1006 68.9049 16.1705 68.5138 16.1705 68.0808C16.1705 67.6478 16.1006 67.2566 15.9609 66.8935C15.8211 66.5303 15.6255 66.223 15.3739 65.9576ZM15.2062 69.0166C15.1083 69.296 14.9686 69.5335 14.7869 69.729C14.6052 69.9246 14.3816 70.0782 14.13 70.176C13.8784 70.2738 13.5849 70.3296 13.2635 70.3296C12.942 70.3296 12.6625 70.2738 12.4109 70.176C12.1593 70.0782 11.9357 69.9246 11.754 69.729C11.5723 69.5335 11.4326 69.296 11.3347 69.0166C11.2369 68.7373 11.181 68.416 11.181 68.0668C11.181 67.7176 11.2369 67.3963 11.3347 67.117C11.4326 66.8376 11.5723 66.6001 11.754 66.4046C11.9357 66.209 12.1593 66.0554 12.4109 65.9576C12.6625 65.8598 12.956 65.804 13.2635 65.804C13.5709 65.804 13.8644 65.8598 14.13 65.9576C14.3816 66.0554 14.6052 66.209 14.7869 66.4046C14.9686 66.6001 15.1083 66.8376 15.2062 67.117C15.304 67.3963 15.3599 67.7176 15.3599 68.0668C15.3599 68.416 15.304 68.7373 15.2062 69.0166Z" fill="white"/>
<path d="M21.4396 69.7428C21.4396 69.7428 21.3418 69.7568 21.2999 69.7987C21.202 69.8825 21.0902 69.9663 20.9924 70.0361C20.8946 70.106 20.7828 70.1618 20.657 70.2037C20.5312 70.2456 20.4054 70.2736 20.2656 70.3015C20.1259 70.3155 19.9721 70.3294 19.7904 70.3294C19.4969 70.3294 19.2314 70.2736 18.9938 70.1758C18.7422 70.078 18.5326 69.9244 18.3509 69.7288C18.1692 69.5333 18.0294 69.2958 17.9176 69.0164C17.8058 68.7371 17.7639 68.4158 17.7639 68.0666C17.7639 67.7174 17.8198 67.3961 17.9176 67.1168C18.0154 66.8374 18.1552 66.6 18.3369 66.4044C18.5186 66.2088 18.7282 66.0552 18.9938 65.9574C19.2593 65.8596 19.5249 65.8038 19.8324 65.8038C20.0839 65.8038 20.2936 65.8317 20.4753 65.8876C20.643 65.9434 20.7967 65.9993 20.9085 66.0552C21.0204 66.125 21.1182 66.1809 21.1881 66.2228C21.2579 66.2787 21.3139 66.3066 21.3698 66.3066C21.4117 66.3066 21.4536 66.3066 21.4816 66.2787C21.5095 66.2647 21.5235 66.2368 21.5515 66.2088L21.817 65.8596C21.5794 65.6362 21.2859 65.4546 20.9644 65.3289C20.643 65.2031 20.2796 65.1333 19.8603 65.1333C19.441 65.1333 19.0497 65.2031 18.6863 65.3428C18.3369 65.4825 18.0294 65.692 17.7779 65.9434C17.5263 66.2088 17.3306 66.5161 17.1908 66.8653C17.0511 67.2285 16.9812 67.6196 16.9812 68.0526C16.9812 68.4857 17.0511 68.8768 17.1769 69.2399C17.3166 69.6031 17.4983 69.9104 17.7359 70.1618C17.9735 70.4133 18.281 70.6228 18.6164 70.7625C18.9658 70.9021 19.3432 70.972 19.7625 70.972C20.2517 70.972 20.6709 70.9021 21.0064 70.7485C21.3558 70.5948 21.6493 70.3853 21.8869 70.106L21.5654 69.7707C21.5654 69.7707 21.4955 69.7148 21.4536 69.7148" fill="white"/>
<path d="M23.5919 65.1892H22.7953V70.9301H23.5919V65.1892Z" fill="white"/>
<path d="M26.7227 65.1892L24.3746 70.9301H24.9896C24.9896 70.9301 25.1154 70.9161 25.1573 70.8742C25.1992 70.8323 25.2412 70.7904 25.2551 70.7485L25.8002 69.3657H28.4417L28.9868 70.7485C28.9868 70.7485 29.0427 70.8463 29.0846 70.8742C29.1266 70.9161 29.1825 70.9301 29.2524 70.9301H29.8673L27.5193 65.1892H26.7087H26.7227ZM26.0238 68.793L26.9463 66.4603C27.0022 66.3206 27.0581 66.139 27.128 65.9156C27.1559 66.0133 27.1839 66.1111 27.2118 66.2089C27.2398 66.3067 27.2677 66.3765 27.2957 66.4463L28.2181 68.779H26.0238V68.793Z" fill="white"/>
<path d="M34.6332 69.7428C34.6332 69.7428 34.5354 69.7568 34.4935 69.7987C34.3956 69.8825 34.2838 69.9663 34.186 70.0361C34.0882 70.106 33.9764 70.1618 33.8506 70.2037C33.7248 70.2456 33.599 70.2736 33.4592 70.3015C33.3195 70.3155 33.1657 70.3294 32.984 70.3294C32.6905 70.3294 32.425 70.2736 32.1874 70.1758C31.9358 70.078 31.7262 69.9244 31.5445 69.7288C31.3628 69.5333 31.223 69.2958 31.1112 69.0164C30.9994 68.7371 30.9575 68.4158 30.9575 68.0666C30.9575 67.7174 31.0134 67.3961 31.1112 67.1168C31.2091 66.8374 31.3488 66.6 31.5305 66.4044C31.7122 66.2088 31.9218 66.0552 32.1874 65.9574C32.4529 65.8596 32.7185 65.8038 33.026 65.8038C33.2775 65.8038 33.4872 65.8317 33.6689 65.8876C33.8366 65.9434 33.9903 65.9993 34.1021 66.0552C34.214 66.125 34.3118 66.1809 34.3817 66.2228C34.4516 66.2787 34.5075 66.3066 34.5634 66.3066C34.6053 66.3066 34.6472 66.3066 34.6752 66.2787C34.7031 66.2647 34.7171 66.2368 34.7451 66.2088L35.0106 65.8596C34.773 65.6362 34.4795 65.4546 34.1581 65.3289C33.8366 65.2031 33.4732 65.1333 33.0539 65.1333C32.6346 65.1333 32.2433 65.2031 31.8799 65.3428C31.5305 65.4825 31.223 65.692 30.9715 65.9434C30.7199 66.2088 30.5242 66.5161 30.3844 66.8653C30.2447 67.2285 30.1748 67.6196 30.1748 68.0526C30.1748 68.4857 30.2447 68.8768 30.3705 69.2399C30.5102 69.6031 30.6919 69.9104 30.9295 70.1618C31.1671 70.4133 31.4746 70.6228 31.81 70.7625C32.1594 70.9021 32.5368 70.972 32.9561 70.972C33.4453 70.972 33.8645 70.9021 34.2 70.7485C34.5494 70.5948 34.8429 70.3853 35.0805 70.106L34.759 69.7707C34.759 69.7707 34.6892 69.7148 34.6472 69.7148" fill="white"/>
<path d="M36.7857 65.1892H35.989V70.9301H36.7857V65.1892Z" fill="white"/>
<path d="M42.9212 65.9576C42.6697 65.6922 42.3622 65.4967 41.9988 65.357C41.6354 65.2173 41.2441 65.1475 40.8108 65.1475C40.3776 65.1475 39.9862 65.2173 39.6228 65.357C39.2734 65.4967 38.9659 65.7062 38.7144 65.9576C38.4628 66.223 38.2671 66.5303 38.1274 66.8935C37.9876 67.2566 37.9177 67.6478 37.9177 68.0808C37.9177 68.5138 37.9876 68.9049 38.1274 69.2681C38.2671 69.6312 38.4628 69.9385 38.7144 70.19C38.9659 70.4414 39.2734 70.6509 39.6228 70.7906C39.9722 70.9303 40.3776 71.0001 40.8108 71.0001C41.2441 71.0001 41.6354 70.9303 41.9988 70.7906C42.3622 70.6509 42.6557 70.4414 42.9212 70.19C43.1728 69.9246 43.3685 69.6173 43.5082 69.2681C43.648 68.9049 43.7179 68.5138 43.7179 68.0808C43.7179 67.6478 43.648 67.2566 43.5082 66.8935C43.3685 66.5303 43.1728 66.223 42.9212 65.9576ZM42.7535 69.0166C42.6557 69.296 42.5159 69.5335 42.3342 69.729C42.1525 69.9246 41.9289 70.0782 41.6774 70.176C41.4258 70.2738 41.1323 70.3296 40.8108 70.3296C40.4894 70.3296 40.2098 70.2738 39.9583 70.176C39.7067 70.0782 39.4831 69.9246 39.3014 69.729C39.1197 69.5335 38.9799 69.296 38.8821 69.0166C38.7843 68.7373 38.7283 68.416 38.7283 68.0668C38.7283 67.7176 38.7843 67.3963 38.8821 67.117C38.9799 66.8376 39.1197 66.6001 39.3014 66.4046C39.4831 66.209 39.7067 66.0554 39.9583 65.9576C40.2098 65.8598 40.5033 65.804 40.8108 65.804C41.1183 65.804 41.4118 65.8598 41.6774 65.9576C41.9289 66.0554 42.1525 66.209 42.3342 66.4046C42.5159 66.6001 42.6557 66.8376 42.7535 67.117C42.8514 67.3963 42.9073 67.7176 42.9073 68.0668C42.9073 68.416 42.8514 68.7373 42.7535 69.0166Z" fill="white"/>
<path d="M41.2021 63.6389L40.2517 64.7284H40.7828C40.7828 64.7284 40.8806 64.7284 40.9226 64.7284C40.9645 64.7284 41.0064 64.7005 41.0484 64.6586L42.3901 63.5132H41.5655C41.4816 63.5132 41.4117 63.5132 41.3558 63.5271C41.3139 63.5271 41.258 63.5691 41.2161 63.6389" fill="white"/>
<path d="M48.931 69.254C48.931 69.254 48.931 69.3797 48.931 69.4356C48.931 69.5054 48.931 69.5613 48.945 69.6311L45.5348 65.315C45.5348 65.315 45.4928 65.2731 45.4789 65.2451C45.4649 65.2312 45.4369 65.2172 45.4229 65.2032C45.409 65.2032 45.381 65.1893 45.3531 65.1893C45.3251 65.1893 45.2972 65.1893 45.2692 65.1893H44.8639V70.9302H45.5627V66.8375C45.5627 66.8375 45.5627 66.7258 45.5627 66.6559C45.5627 66.5861 45.5627 66.5302 45.5627 66.4604L48.9589 70.7765C48.9589 70.7765 49.0428 70.8603 49.0847 70.8883C49.1267 70.9022 49.1826 70.9162 49.2385 70.9162H49.6298V65.1753H48.931V69.24V69.254Z" fill="white"/>
<path d="M57.5265 65.9854C57.2749 65.734 56.9674 65.5384 56.6041 65.3987C56.2407 65.2591 55.8493 65.1892 55.4161 65.1892H53.2218V70.9301H55.4161C55.8493 70.9301 56.2407 70.8603 56.6041 70.7206C56.9674 70.5809 57.261 70.3854 57.5265 70.1339C57.7781 69.8825 57.9737 69.5752 58.1135 69.226C58.2533 68.8768 58.3231 68.4857 58.3231 68.0527C58.3231 67.6197 58.2533 67.2286 58.1135 66.8794C57.9737 66.5302 57.7781 66.2229 57.5265 65.9714M57.3728 69.0025C57.2749 69.2819 57.1352 69.5193 56.9535 69.7009C56.7718 69.8965 56.5482 70.0362 56.2966 70.1339C56.045 70.2317 55.7515 70.2876 55.4301 70.2876H54.0324V65.8038H55.4301C55.7515 65.8038 56.031 65.8597 56.2966 65.9575C56.5482 66.0552 56.7718 66.2089 56.9535 66.4044C57.1352 66.6 57.2749 66.8375 57.3728 67.1028C57.4706 67.3822 57.5265 67.6895 57.5265 68.0527C57.5265 68.4159 57.4706 68.7232 57.3728 69.0025Z" fill="white"/>
<path d="M60.2798 68.332H62.5719V67.7314H60.2798V65.8317H63.103V65.1892H59.4832V70.9301H63.103V70.3015H60.2798V68.332Z" fill="white"/>
<path d="M65.9402 65.8319H69.1967L65.8563 70.3995C65.8563 70.3995 65.8144 70.4693 65.8004 70.5112C65.7864 70.5531 65.7725 70.595 65.7725 70.6369V70.9442H70.189V70.3157H66.8207L70.147 65.762C70.2029 65.6782 70.2309 65.5944 70.2309 65.5106V65.2173H65.9262V65.8459L65.9402 65.8319Z" fill="white"/>
<path d="M75.7655 65.9576C75.5139 65.6922 75.2064 65.4967 74.843 65.357C74.4797 65.2173 74.0883 65.1475 73.6551 65.1475C73.2218 65.1475 72.8305 65.2173 72.4671 65.357C72.1177 65.4967 71.8102 65.7062 71.5586 65.9576C71.307 66.223 71.1114 66.5303 70.9716 66.8935C70.8318 67.2566 70.762 67.6478 70.762 68.0808C70.762 68.5138 70.8318 68.9049 70.9716 69.2681C71.1114 69.6312 71.307 69.9385 71.5586 70.19C71.8102 70.4414 72.1177 70.6509 72.4671 70.7906C72.8165 70.9303 73.2218 71.0001 73.6551 71.0001C74.0883 71.0001 74.4797 70.9303 74.843 70.7906C75.2064 70.6509 75.4999 70.4414 75.7655 70.19C76.017 69.9246 76.2127 69.6173 76.3525 69.2681C76.4922 68.9049 76.5621 68.5138 76.5621 68.0808C76.5621 67.6478 76.4922 67.2566 76.3525 66.8935C76.2127 66.5303 76.017 66.223 75.7655 65.9576ZM75.5978 69.0166C75.4999 69.296 75.3602 69.5335 75.1785 69.729C74.9968 69.9246 74.7732 70.0782 74.5216 70.176C74.27 70.2738 73.9765 70.3296 73.6551 70.3296C73.3336 70.3296 73.0541 70.2738 72.8025 70.176C72.5509 70.0782 72.3273 69.9246 72.1456 69.729C71.9639 69.5335 71.8242 69.296 71.7263 69.0166C71.6285 68.7373 71.5726 68.416 71.5726 68.0668C71.5726 67.7176 71.6285 67.3963 71.7263 67.117C71.8242 66.8376 71.9639 66.6001 72.1456 66.4046C72.3273 66.209 72.5509 66.0554 72.8025 65.9576C73.0541 65.8598 73.3476 65.804 73.6551 65.804C73.9625 65.804 74.256 65.8598 74.5216 65.9576C74.7732 66.0554 74.9968 66.209 75.1785 66.4046C75.3602 66.6001 75.4999 66.8376 75.5978 67.117C75.6956 67.3963 75.7515 67.7176 75.7515 68.0668C75.7515 68.416 75.6956 68.7373 75.5978 69.0166Z" fill="white"/>
<path d="M81.7754 69.254C81.7754 69.254 81.7754 69.3797 81.7754 69.4356C81.7754 69.5054 81.7754 69.5613 81.7893 69.6311L78.3791 65.315C78.3791 65.315 78.3372 65.2731 78.3232 65.2451C78.3092 65.2312 78.2813 65.2172 78.2673 65.2032C78.2533 65.2032 78.2254 65.1893 78.1974 65.1893C78.1695 65.1893 78.1415 65.1893 78.1136 65.1893H77.7083V70.9302H78.4071V66.8375C78.4071 66.8375 78.4071 66.7258 78.4071 66.6559C78.4071 66.5861 78.4071 66.5302 78.4071 66.4604L81.8033 70.7765C81.8033 70.7765 81.8872 70.8603 81.9291 70.8883C81.971 70.9022 82.0269 70.9162 82.0828 70.9162H82.4742V65.1753H81.7754V69.24V69.254Z" fill="white"/>
<path d="M85.5909 65.1892L83.2429 70.9301H83.8579C83.8579 70.9301 83.9837 70.9161 84.0256 70.8742C84.0675 70.8323 84.1094 70.7904 84.1234 70.7485L84.6685 69.3657H87.31L87.8551 70.7485C87.8551 70.7485 87.911 70.8463 87.9529 70.8742C87.9949 70.9161 88.0508 70.9301 88.1206 70.9301H88.7356L86.3876 65.1892H85.577H85.5909ZM84.9061 68.793L85.8285 66.4603C85.8844 66.3206 85.9543 66.139 86.0102 65.9156C86.0382 66.0133 86.0661 66.1111 86.0941 66.2089C86.122 66.3067 86.15 66.3765 86.1779 66.4463L87.1004 68.779H84.9061V68.793Z" fill="white"/>
<path d="M92.4252 68.1785C92.2994 68.0668 92.1456 67.969 91.9779 67.8992C91.8102 67.8293 91.6425 67.7595 91.4608 67.7036C91.2791 67.6478 91.1114 67.5919 90.9437 67.536C90.776 67.4801 90.6222 67.4103 90.4964 67.3405C90.3707 67.2706 90.2588 67.1728 90.175 67.0751C90.0911 66.9633 90.0492 66.8376 90.0492 66.67C90.0492 66.5443 90.0772 66.4325 90.1191 66.3208C90.161 66.209 90.2309 66.1252 90.3287 66.0414C90.4266 65.9576 90.5384 65.9017 90.6642 65.8459C90.8039 65.804 90.9577 65.776 91.1394 65.776C91.321 65.776 91.4888 65.804 91.6146 65.8459C91.7403 65.8878 91.8661 65.9436 91.95 65.9995C92.0478 66.0554 92.1177 66.0973 92.1876 66.1532C92.2575 66.209 92.2994 66.223 92.3553 66.223C92.3972 66.223 92.4252 66.223 92.4671 66.1951C92.4951 66.1811 92.523 66.1392 92.551 66.1113L92.7466 65.7481C92.537 65.5525 92.2994 65.4129 92.0338 65.3011C91.7683 65.2033 91.4608 65.1475 91.1394 65.1475C90.8458 65.1475 90.5803 65.1894 90.3567 65.2871C90.1331 65.371 89.9374 65.4967 89.7836 65.6363C89.6299 65.79 89.5041 65.9436 89.4342 66.1392C89.3504 66.3348 89.3085 66.5303 89.3085 66.7259C89.3085 66.9773 89.3504 67.1868 89.4342 67.3684C89.5181 67.536 89.6159 67.6897 89.7557 67.8014C89.8815 67.9132 90.0352 68.0109 90.2029 68.0808C90.3707 68.1506 90.5524 68.2205 90.7201 68.2763C90.9018 68.3322 91.0695 68.3881 91.2372 68.43C91.4049 68.4858 91.5586 68.5417 91.6844 68.6255C91.8102 68.6954 91.922 68.7931 92.0059 68.9049C92.0897 69.0166 92.1317 69.1563 92.1317 69.3379C92.1317 69.4915 92.1037 69.6312 92.0478 69.7709C91.9919 69.8966 91.922 70.0084 91.8102 70.1061C91.7124 70.2039 91.5866 70.2738 91.4329 70.3157C91.2791 70.3715 91.1114 70.3855 90.9297 70.3855C90.776 70.3855 90.6502 70.3855 90.5244 70.3436C90.3986 70.3157 90.3008 70.2738 90.2029 70.2319C90.1051 70.19 90.0212 70.1481 89.9514 70.0922C89.8815 70.0363 89.8116 69.9944 89.7557 69.9525C89.6998 69.9106 89.6439 69.8687 89.602 69.8408C89.56 69.8128 89.5181 69.7989 89.4762 69.7989C89.4342 69.7989 89.4063 69.7989 89.3644 69.8268C89.3364 69.8408 89.3085 69.8687 89.2805 69.8966L89.0569 70.2598C89.2805 70.4833 89.5461 70.6649 89.8535 70.8046C90.161 70.9442 90.5104 71.0141 90.9018 71.0141C91.2092 71.0141 91.4888 70.9722 91.7403 70.8744C91.9919 70.7766 92.1876 70.6509 92.3553 70.4833C92.523 70.3157 92.6488 70.1341 92.7326 69.9106C92.8165 69.6871 92.8584 69.4496 92.8584 69.1982C92.8584 68.9608 92.8165 68.7652 92.7326 68.5976C92.6488 68.43 92.551 68.2903 92.4112 68.1925" fill="white"/>
<path d="M96.0872 70.9301H96.8838V68.4578H99.3017V67.8292H96.8838V65.8317H99.707V65.1892H96.0872V70.9301Z" fill="white"/>
<path d="M103.103 68.4019C103.327 68.3461 103.536 68.2762 103.718 68.1784C103.9 68.0807 104.054 67.955 104.179 67.8153C104.305 67.6756 104.403 67.5219 104.459 67.3404C104.529 67.1588 104.557 66.9772 104.557 66.7677C104.557 66.5302 104.515 66.3067 104.431 66.1112C104.347 65.9156 104.221 65.748 104.04 65.6083C103.858 65.4686 103.634 65.3569 103.369 65.287C103.103 65.2172 102.782 65.1753 102.404 65.1753H100.741V70.9162H101.538V68.5276H102.139C102.251 68.5276 102.335 68.5276 102.39 68.5695C102.446 68.5975 102.488 68.6394 102.544 68.7092L104.068 70.7625C104.137 70.8743 104.249 70.9302 104.389 70.9302H105.102L103.383 68.6534C103.313 68.5416 103.215 68.4718 103.117 68.4159M102.362 67.9689H101.524V65.8039H102.39C102.852 65.8039 103.201 65.8877 103.425 66.0693C103.648 66.2369 103.774 66.5023 103.774 66.8375C103.774 67.0051 103.746 67.1588 103.69 67.2984C103.634 67.4381 103.536 67.5499 103.425 67.6616C103.313 67.7594 103.159 67.8432 102.977 67.8991C102.796 67.955 102.6 67.9829 102.362 67.9829" fill="white"/>
<path d="M107.506 65.1892L105.158 70.9301H105.773C105.773 70.9301 105.898 70.9161 105.94 70.8742C105.982 70.8323 106.024 70.7904 106.038 70.7485L106.583 69.3657H109.225L109.77 70.7485C109.77 70.7485 109.826 70.8463 109.868 70.8742C109.91 70.9161 109.966 70.9301 110.035 70.9301H110.65L108.302 65.1892H107.492H107.506ZM106.807 68.793L107.729 66.4603C107.785 66.3206 107.855 66.139 107.911 65.9156C107.939 66.0133 107.967 66.1111 107.995 66.2089C108.023 66.3067 108.051 66.3765 108.079 66.4463L109.001 68.779H106.807V68.793Z" fill="white"/>
<path d="M115.5 69.254C115.5 69.254 115.5 69.3797 115.5 69.4356C115.5 69.5054 115.5 69.5613 115.514 69.6311L112.104 65.315C112.104 65.315 112.062 65.2731 112.048 65.2451C112.034 65.2312 112.006 65.2172 111.992 65.2032C111.978 65.2032 111.95 65.1893 111.922 65.1893C111.894 65.1893 111.866 65.1893 111.838 65.1893H111.433V70.9302H112.132V66.8375C112.132 66.8375 112.132 66.7258 112.132 66.6559C112.132 66.5861 112.132 66.5302 112.132 66.4604L115.528 70.7765C115.528 70.7765 115.612 70.8603 115.654 70.8883C115.696 70.9022 115.752 70.9162 115.808 70.9162H116.199V65.1753H115.5V69.24V69.254Z" fill="white"/>
<path d="M121.831 69.7428C121.831 69.7428 121.734 69.7568 121.692 69.7987C121.594 69.8825 121.482 69.9663 121.384 70.0361C121.286 70.106 121.175 70.1618 121.049 70.2037C120.923 70.2456 120.797 70.2736 120.657 70.3015C120.518 70.3155 120.364 70.3294 120.182 70.3294C119.889 70.3294 119.623 70.2736 119.386 70.1758C119.134 70.078 118.924 69.9244 118.743 69.7288C118.561 69.5333 118.421 69.2958 118.309 69.0164C118.198 68.7371 118.156 68.4158 118.156 68.0666C118.156 67.7174 118.212 67.3961 118.309 67.1168C118.407 66.8374 118.547 66.6 118.729 66.4044C118.91 66.2088 119.12 66.0552 119.386 65.9574C119.637 65.8596 119.917 65.8038 120.224 65.8038C120.476 65.8038 120.685 65.8317 120.867 65.8876C121.035 65.9434 121.189 65.9993 121.3 66.0552C121.412 66.125 121.51 66.1809 121.58 66.2228C121.65 66.2787 121.706 66.3066 121.762 66.3066C121.804 66.3066 121.845 66.3066 121.873 66.2787C121.901 66.2647 121.915 66.2368 121.943 66.2088L122.209 65.8596C121.971 65.6362 121.678 65.4546 121.356 65.3289C121.035 65.2031 120.671 65.1333 120.252 65.1333C119.833 65.1333 119.442 65.2031 119.078 65.3428C118.729 65.4825 118.421 65.692 118.17 65.9434C117.918 66.2088 117.722 66.5161 117.583 66.8653C117.443 67.2285 117.373 67.6196 117.373 68.0526C117.373 68.4857 117.443 68.8768 117.569 69.2399C117.708 69.6031 117.89 69.9104 118.128 70.1618C118.365 70.4133 118.673 70.6228 119.008 70.7625C119.358 70.9021 119.735 70.972 120.154 70.972C120.643 70.972 121.063 70.9021 121.398 70.7485C121.748 70.5948 122.041 70.3853 122.279 70.106L121.957 69.7707C121.957 69.7707 121.887 69.7148 121.845 69.7148" fill="white"/>
<path d="M124.808 65.1892L122.46 70.9301H123.075C123.145 70.9301 123.201 70.9161 123.243 70.8742C123.285 70.8323 123.327 70.7904 123.341 70.7485L123.886 69.3657H126.528L127.073 70.7485C127.073 70.7485 127.129 70.8463 127.17 70.8742C127.212 70.9161 127.268 70.9301 127.338 70.9301H127.953L125.605 65.1892H124.794H124.808ZM124.124 68.793L125.046 66.4603C125.102 66.3206 125.172 66.139 125.228 65.9156C125.256 66.0133 125.284 66.1111 125.312 66.2089C125.34 66.3067 125.368 66.3765 125.395 66.4463L126.318 68.779H124.124V68.793Z" fill="white"/>
<path d="M131.643 68.1785C131.517 68.0668 131.363 67.969 131.195 67.8992C131.028 67.8293 130.846 67.7595 130.678 67.7036C130.497 67.6478 130.329 67.5919 130.161 67.536C129.993 67.4801 129.84 67.4103 129.714 67.3405C129.588 67.2706 129.476 67.1728 129.393 67.0751C129.309 66.9633 129.267 66.8376 129.267 66.67C129.267 66.5443 129.295 66.4325 129.337 66.3208C129.379 66.209 129.448 66.1252 129.546 66.0414C129.644 65.9576 129.756 65.9017 129.882 65.8459C130.021 65.804 130.175 65.776 130.357 65.776C130.553 65.776 130.706 65.804 130.846 65.8459C130.986 65.8878 131.098 65.9436 131.181 65.9995C131.279 66.0554 131.349 66.0973 131.419 66.1532C131.475 66.1951 131.531 66.223 131.587 66.223C131.629 66.223 131.657 66.223 131.685 66.1951C131.713 66.1811 131.741 66.1392 131.768 66.1113L131.964 65.7481C131.755 65.5525 131.517 65.4129 131.251 65.3011C130.986 65.2033 130.678 65.1475 130.357 65.1475C130.063 65.1475 129.798 65.1894 129.574 65.2871C129.351 65.371 129.155 65.4967 129.001 65.6363C128.847 65.79 128.722 65.9436 128.652 66.1392C128.568 66.3348 128.526 66.5303 128.526 66.7259C128.526 66.9773 128.568 67.1868 128.652 67.3684C128.736 67.536 128.833 67.6897 128.973 67.8014C129.099 67.9132 129.253 68.0109 129.42 68.0808C129.588 68.1506 129.77 68.2205 129.938 68.2763C130.119 68.3322 130.287 68.3881 130.455 68.43C130.622 68.4858 130.776 68.5417 130.902 68.6255C131.028 68.6954 131.14 68.7931 131.223 68.9049C131.307 69.0166 131.349 69.1563 131.349 69.3379C131.349 69.4915 131.321 69.6312 131.265 69.7709C131.209 69.8966 131.14 70.0084 131.028 70.1061C130.93 70.2039 130.804 70.2738 130.65 70.3157C130.497 70.3715 130.329 70.3855 130.147 70.3855C129.994 70.3855 129.868 70.3855 129.742 70.3436C129.616 70.3157 129.518 70.2738 129.42 70.2319C129.323 70.19 129.239 70.1481 129.169 70.0922C129.099 70.0363 129.029 69.9944 128.973 69.9525C128.917 69.9106 128.861 69.8687 128.819 69.8408C128.778 69.8128 128.736 69.7989 128.694 69.7989C128.652 69.7989 128.624 69.7989 128.582 69.8268C128.554 69.8408 128.526 69.8687 128.498 69.8966L128.274 70.2598C128.498 70.4833 128.764 70.6649 129.071 70.8046C129.379 70.9442 129.728 71.0141 130.119 71.0141C130.427 71.0141 130.706 70.9722 130.958 70.8744C131.209 70.7766 131.405 70.6509 131.573 70.4833C131.741 70.3157 131.866 70.1341 131.95 69.9106C132.034 69.6871 132.076 69.4496 132.076 69.1982C132.076 68.9608 132.034 68.7652 131.95 68.5976C131.866 68.43 131.768 68.2903 131.629 68.1925" fill="white"/>
<path d="M139.609 65.9854C139.358 65.734 139.05 65.5384 138.687 65.3987C138.324 65.2591 137.932 65.1892 137.499 65.1892H135.305V70.9301H137.499C137.932 70.9301 138.324 70.8603 138.687 70.7206C139.036 70.5809 139.344 70.3854 139.609 70.1339C139.861 69.8825 140.057 69.5752 140.196 69.226C140.336 68.8768 140.406 68.4857 140.406 68.0527C140.406 67.6197 140.336 67.2286 140.196 66.8794C140.057 66.5302 139.861 66.2229 139.609 65.9714M139.442 69.0025C139.344 69.2819 139.204 69.5193 139.022 69.7009C138.841 69.8965 138.617 70.0362 138.366 70.1339C138.114 70.2317 137.82 70.2876 137.499 70.2876H136.101V65.8038H137.499C137.82 65.8038 138.1 65.8597 138.366 65.9575C138.617 66.0552 138.841 66.2089 139.022 66.4044C139.204 66.6 139.344 66.8375 139.442 67.1028C139.54 67.3822 139.595 67.6895 139.595 68.0527C139.595 68.4159 139.54 68.7232 139.442 69.0025Z" fill="white"/>
<path d="M142.349 68.332H144.641V67.7314H142.349V65.8317H145.172V65.1892H141.552V70.9301H145.172V70.3015H142.349V68.332Z" fill="white"/>
<path d="M149.183 65.1892H148.386V70.9301H151.727V70.2736H149.183V65.1892Z" fill="white"/>
<path d="M154.228 65.1892L151.88 70.9301H152.495C152.495 70.9301 152.621 70.9161 152.663 70.8742C152.705 70.8323 152.747 70.7904 152.761 70.7485L153.306 69.3657H155.947L156.493 70.7485C156.493 70.7485 156.548 70.8463 156.59 70.8742C156.632 70.9161 156.688 70.9301 156.758 70.9301H157.373L155.025 65.1892H154.214H154.228ZM153.544 68.793L154.466 66.4603C154.522 66.3206 154.592 66.139 154.648 65.9156C154.676 66.0133 154.704 66.1111 154.732 66.2089C154.759 66.3067 154.787 66.3765 154.815 66.4463L155.738 68.779H153.544V68.793Z" fill="white"/>
<path d="M161.063 68.1785C160.937 68.0668 160.783 67.969 160.616 67.8992C160.448 67.8293 160.266 67.7595 160.099 67.7036C159.917 67.6478 159.749 67.5919 159.581 67.536C159.414 67.4801 159.26 67.4103 159.134 67.3405C159.008 67.2706 158.897 67.1728 158.813 67.0751C158.729 66.9633 158.687 66.8376 158.687 66.67C158.687 66.5443 158.715 66.4325 158.757 66.3208C158.799 66.209 158.869 66.1252 158.966 66.0414C159.064 65.9576 159.176 65.9017 159.302 65.8459C159.442 65.804 159.595 65.776 159.777 65.776C159.959 65.776 160.127 65.804 160.252 65.8459C160.378 65.8878 160.504 65.9436 160.588 65.9995C160.686 66.0554 160.755 66.0973 160.825 66.1532C160.895 66.1951 160.937 66.223 160.993 66.223C161.035 66.223 161.063 66.223 161.091 66.1951C161.119 66.1811 161.147 66.1392 161.175 66.1113L161.37 65.7481C161.161 65.5525 160.923 65.4129 160.658 65.3011C160.392 65.2033 160.085 65.1475 159.763 65.1475C159.47 65.1475 159.204 65.1894 158.98 65.2871C158.757 65.371 158.561 65.4967 158.407 65.6363C158.254 65.776 158.128 65.9436 158.058 66.1392C157.974 66.3348 157.932 66.5303 157.932 66.7259C157.932 66.9773 157.974 67.1868 158.058 67.3684C158.142 67.536 158.24 67.6897 158.379 67.8014C158.505 67.9132 158.659 68.0109 158.827 68.0808C158.994 68.1506 159.176 68.2205 159.344 68.2763C159.526 68.3322 159.693 68.3881 159.861 68.43C160.029 68.4858 160.182 68.5417 160.308 68.6255C160.434 68.6954 160.546 68.7931 160.63 68.9049C160.714 69.0166 160.755 69.1563 160.755 69.3379C160.755 69.4915 160.727 69.6312 160.672 69.7709C160.616 69.8966 160.546 70.0084 160.434 70.1061C160.336 70.2039 160.21 70.2738 160.057 70.3157C159.903 70.3715 159.735 70.3855 159.553 70.3855C159.4 70.3855 159.274 70.3855 159.148 70.3436C159.022 70.3157 158.925 70.2738 158.827 70.2319C158.729 70.19 158.645 70.1481 158.575 70.0922C158.505 70.0363 158.435 69.9944 158.379 69.9525C158.324 69.9106 158.268 69.8687 158.226 69.8408C158.184 69.8128 158.142 69.7989 158.1 69.7989C158.058 69.7989 158.03 69.7989 157.988 69.8268C157.96 69.8408 157.932 69.8687 157.904 69.8966L157.681 70.2598C157.904 70.4833 158.17 70.6649 158.477 70.8046C158.785 70.9442 159.134 71.0141 159.526 71.0141C159.833 71.0141 160.113 70.9722 160.364 70.8744C160.616 70.7766 160.811 70.6509 160.979 70.4833C161.147 70.3157 161.273 70.1341 161.356 69.9106C161.44 69.6871 161.482 69.4496 161.482 69.1982C161.482 68.9608 161.44 68.7652 161.356 68.5976C161.273 68.43 161.175 68.2903 161.035 68.1925" fill="white"/>
<path d="M166.08 65.1892L163.732 70.9301H164.347C164.347 70.9301 164.473 70.9161 164.515 70.8742C164.557 70.8323 164.599 70.7904 164.613 70.7485L165.158 69.3657H167.8L168.345 70.7485C168.345 70.7485 168.4 70.8463 168.442 70.8742C168.484 70.9161 168.54 70.9301 168.61 70.9301H169.225L166.877 65.1892H166.066H166.08ZM165.382 68.793L166.304 66.4603C166.36 66.3206 166.43 66.139 166.486 65.9156C166.514 66.0133 166.542 66.1111 166.57 66.2089C166.598 66.3067 166.626 66.3765 166.653 66.4463L167.576 68.779H165.382V68.793Z" fill="white"/>
<path d="M175.375 65.2171C175.375 65.2171 175.305 65.273 175.263 65.3289L173.264 68.8489C173.264 68.8489 173.194 68.9746 173.166 69.0444C173.139 69.1143 173.111 69.1841 173.083 69.2539C173.055 69.1841 173.027 69.1143 172.999 69.0444C172.971 68.9746 172.943 68.9047 172.901 68.8489L170.874 65.3149C170.874 65.3149 170.804 65.2171 170.763 65.2032C170.721 65.2032 170.665 65.1892 170.595 65.1892H170.008V70.9301H170.707V66.7117C170.707 66.586 170.707 66.4603 170.679 66.3206L172.733 69.9244C172.803 70.0501 172.887 70.106 173.027 70.106H173.139C173.264 70.106 173.362 70.0501 173.432 69.9244L175.459 66.3346C175.459 66.3346 175.459 66.4603 175.445 66.5302C175.445 66.6 175.445 66.6559 175.445 66.7117V70.9301H176.143V65.1892H175.556C175.487 65.1892 175.431 65.1892 175.389 65.2032" fill="white"/>
<path d="M179.875 63.6389L178.925 64.7284H179.456C179.456 64.7284 179.553 64.7284 179.595 64.7284C179.637 64.7284 179.679 64.7005 179.721 64.6586L181.063 63.5132H180.238C180.154 63.5132 180.085 63.5132 180.029 63.5271C179.987 63.5271 179.931 63.5691 179.889 63.6389" fill="white"/>
<path d="M178.435 68.332H180.713V67.7314H178.435V65.8317H181.259V65.1892H177.639V70.9301H181.259V70.3015H178.435V68.332Z" fill="white"/>
<path d="M184.739 68.4019C184.962 68.3461 185.172 68.2762 185.354 68.1784C185.535 68.0807 185.689 67.955 185.815 67.8153C185.941 67.6756 186.038 67.5219 186.094 67.3404C186.164 67.1588 186.192 66.9772 186.192 66.7677C186.192 66.5302 186.15 66.3067 186.066 66.1112C185.983 65.9156 185.857 65.748 185.675 65.6083C185.493 65.4686 185.27 65.3569 185.004 65.287C184.739 65.2172 184.417 65.1753 184.04 65.1753H182.377V70.9162H183.173V68.5276H183.774C183.886 68.5276 183.97 68.5276 184.026 68.5695C184.082 68.5975 184.124 68.6394 184.18 68.7092L185.703 70.7625C185.773 70.8743 185.871 70.9302 186.025 70.9302H186.737L185.018 68.6534C184.948 68.5416 184.851 68.4718 184.753 68.4159M183.998 67.9689H183.159V65.8039H184.026C184.487 65.8039 184.837 65.8877 185.06 66.0693C185.284 66.2369 185.41 66.5023 185.41 66.8375C185.41 67.0051 185.382 67.1588 185.326 67.2984C185.27 67.4381 185.172 67.5499 185.06 67.6616C184.948 67.7594 184.795 67.8432 184.613 67.8991C184.431 67.955 184.236 67.9829 183.998 67.9829" fill="white"/>
<path d="M188.317 65.1892H187.52V70.9301H188.317V65.1892Z" fill="white"/>
<path d="M193.949 69.7428C193.949 69.7428 193.851 69.7568 193.809 69.7987C193.712 69.8825 193.614 69.9663 193.502 70.0361C193.404 70.106 193.292 70.1618 193.166 70.2037C193.041 70.2456 192.915 70.2736 192.775 70.3015C192.635 70.3155 192.482 70.3294 192.3 70.3294C192.02 70.3294 191.741 70.2736 191.503 70.1758C191.252 70.078 191.042 69.9244 190.86 69.7288C190.679 69.5333 190.539 69.2958 190.427 69.0164C190.315 68.7371 190.273 68.4158 190.273 68.0666C190.273 67.7174 190.329 67.3961 190.427 67.1168C190.525 66.8374 190.665 66.6 190.846 66.4044C191.028 66.2088 191.252 66.0552 191.503 65.9574C191.755 65.8596 192.034 65.8038 192.342 65.8038C192.593 65.8038 192.803 65.8317 192.985 65.8876C193.153 65.9434 193.306 65.9993 193.418 66.0552C193.53 66.125 193.628 66.1809 193.698 66.2228C193.767 66.2787 193.823 66.3066 193.879 66.3066C193.921 66.3066 193.963 66.3066 193.991 66.2787C194.019 66.2647 194.033 66.2368 194.061 66.2088L194.327 65.8596C194.089 65.6362 193.795 65.4546 193.474 65.3289C193.153 65.2031 192.789 65.1333 192.37 65.1333C191.951 65.1333 191.559 65.2031 191.196 65.3428C190.846 65.4825 190.539 65.692 190.287 65.9434C190.036 66.2088 189.84 66.5161 189.7 66.8653C189.561 67.2285 189.491 67.6196 189.491 68.0526C189.491 68.4857 189.561 68.8768 189.686 69.2399C189.826 69.6031 190.008 69.9104 190.245 70.1618C190.483 70.4133 190.777 70.6228 191.126 70.7625C191.475 70.9021 191.853 70.972 192.272 70.972C192.761 70.972 193.18 70.9021 193.516 70.7485C193.865 70.5948 194.159 70.3853 194.396 70.106L194.075 69.7707C194.075 69.7707 194.005 69.7148 193.963 69.7148" fill="white"/>
<path d="M196.926 65.1892L194.578 70.9301H195.193C195.193 70.9301 195.319 70.9161 195.361 70.8742C195.403 70.8323 195.445 70.7904 195.459 70.7485L196.004 69.3657H198.645L199.19 70.7485C199.19 70.7485 199.246 70.8463 199.288 70.8742C199.33 70.9161 199.386 70.9301 199.456 70.9301H200.071L197.723 65.1892H196.912H196.926ZM196.227 68.793L197.15 66.4603C197.206 66.3206 197.276 66.139 197.331 65.9156C197.359 66.0133 197.387 66.1111 197.415 66.2089C197.443 66.3067 197.471 66.3765 197.499 66.4463L198.422 68.779H196.227V68.793Z" fill="white"/>
<path d="M204.082 68.5836C203.998 68.416 203.9 68.2763 203.761 68.1785C203.635 68.0668 203.481 67.969 203.313 67.8992C203.146 67.8293 202.978 67.7595 202.796 67.7036C202.615 67.6478 202.447 67.5919 202.279 67.536C202.111 67.4801 201.958 67.4103 201.832 67.3405C201.706 67.2706 201.594 67.1728 201.51 67.0751C201.427 66.9633 201.385 66.8376 201.385 66.67C201.385 66.5443 201.413 66.4325 201.454 66.3208C201.496 66.209 201.566 66.1252 201.664 66.0414C201.762 65.9576 201.874 65.9017 202 65.8459C202.139 65.804 202.293 65.776 202.475 65.776C202.656 65.776 202.824 65.804 202.95 65.8459C203.076 65.8878 203.202 65.9436 203.285 65.9995C203.383 66.0554 203.453 66.0973 203.523 66.1532C203.579 66.1951 203.635 66.223 203.691 66.223C203.733 66.223 203.761 66.223 203.803 66.1951C203.83 66.1811 203.858 66.1392 203.886 66.1113L204.082 65.7481C203.872 65.5525 203.635 65.4129 203.369 65.3011C203.104 65.2033 202.796 65.1475 202.475 65.1475C202.181 65.1475 201.916 65.1894 201.692 65.2732C201.468 65.357 201.273 65.4827 201.119 65.6224C200.965 65.776 200.853 65.9436 200.77 66.1252C200.686 66.3208 200.644 66.5163 200.644 66.7119C200.644 66.9633 200.686 67.1728 200.77 67.3544C200.853 67.522 200.951 67.6757 201.091 67.7874C201.217 67.8992 201.371 67.997 201.538 68.0668C201.706 68.1366 201.888 68.2065 202.055 68.2624C202.237 68.3182 202.405 68.3741 202.573 68.416C202.74 68.4719 202.894 68.5277 203.02 68.6116C203.146 68.6814 203.257 68.7792 203.341 68.8909C203.425 69.0027 203.467 69.1423 203.467 69.3239C203.467 69.4776 203.439 69.6173 203.383 69.7569C203.327 69.8827 203.257 69.9944 203.146 70.0922C203.048 70.19 202.922 70.2598 202.768 70.3017C202.615 70.3576 202.447 70.3715 202.265 70.3715C202.111 70.3715 201.972 70.3576 201.86 70.3296C201.734 70.3017 201.636 70.2598 201.538 70.2179C201.44 70.176 201.357 70.1341 201.287 70.0782C201.217 70.0223 201.147 69.9804 201.091 69.9385C201.035 69.8966 200.979 69.8547 200.937 69.8268C200.895 69.7989 200.853 69.7849 200.812 69.7849C200.77 69.7849 200.742 69.7849 200.714 69.8128C200.686 69.8268 200.658 69.8547 200.63 69.8827L200.406 70.2458C200.63 70.4693 200.895 70.6649 201.203 70.7906C201.51 70.9303 201.86 71.0001 202.251 71.0001C202.559 71.0001 202.838 70.9582 203.09 70.8604C203.327 70.7626 203.537 70.6369 203.705 70.4693C203.872 70.3017 203.998 70.1201 204.082 69.8966C204.166 69.6731 204.208 69.4357 204.208 69.1842C204.208 68.9468 204.166 68.7512 204.082 68.5836Z" fill="white"/>
</g>
<defs>
<clipPath id="clip0_377_22830">
<rect width="204.194" height="71" fill="white"/>
</clipPath>
</defs>
</svg>
