<svg width="27" height="35" viewBox="0 0 27 35" fill="none" xmlns="http://www.w3.org/2000/svg">
<path d="M11.6885 32.3116C11.7068 33.0556 11.6264 33.7055 11.5042 34.1942C11.5042 33.5355 11.5685 32.909 11.6885 32.3116C11.6318 30.0108 10.6313 26.8101 7.00423 24.6942C1.00423 21.1942 -4.49577 3.19424 11.5042 1.19424C27.5042 -0.805757 27.5039 13.1942 25.5039 17.6942C23.6503 21.8649 13.2073 24.7478 11.6885 32.3116Z" fill="#94D133"/>
<path d="M11.5042 34.1942C12.0042 32.1942 11.8042 27.4942 7.00423 24.6942C1.00423 21.1942 -4.49577 3.19424 11.5042 1.19424C27.5042 -0.805757 27.5039 13.1942 25.5039 17.6942C23.5039 22.1942 11.5042 25.1951 11.5042 34.1942Z" stroke="white"/>
<circle cx="14.0039" cy="11.1934" r="4.5" fill="#D9D9D9"/>
</svg>
