<svg width="51" height="51" viewBox="0 0 51 51" fill="none" xmlns="http://www.w3.org/2000/svg">
<path d="M29.75 6.375V27.625L36.55 24.0338L37.0175 23.97C37.6338 23.97 38.1862 24.225 38.59 24.65L40.1625 26.2862L29.75 35.2113C29.1975 35.785 28.4538 36.125 27.625 36.125H13.8125C12.1762 36.125 10.625 34.6375 10.625 32.9375V23.6725C10.625 22.3763 11.3687 21.25 12.4312 20.825L22.9288 16.15L25.5 15.8737V6.375C25.5 5.81141 25.7239 5.27091 26.1224 4.8724C26.5209 4.47388 27.0614 4.25 27.625 4.25C28.1886 4.25 28.7291 4.47388 29.1276 4.8724C29.5261 5.27091 29.75 5.81141 29.75 6.375ZM10.625 40.375H27.625V46.75H10.625V40.375Z" fill="#10356B"/>
</svg>
