<svg width="50" height="50" viewBox="0 0 50 50" fill="none" xmlns="http://www.w3.org/2000/svg">
<circle cx="25" cy="25" r="25" fill="#10356B"/>
<path d="M35.7137 30.2613V34.471C35.7137 35.096 35.2305 35.6146 34.6072 35.6586C34.0865 35.6954 33.6617 35.7137 33.3328 35.7137C22.813 35.7137 14.2852 27.1859 14.2852 16.6661C14.2852 16.3372 14.3035 15.9124 14.3403 15.3917C14.3844 14.7683 14.9029 14.2852 15.5278 14.2852H19.7377C20.0432 14.2852 20.2992 14.5166 20.3298 14.8206C20.3574 15.0936 20.383 15.3127 20.4067 15.478C20.6475 17.1598 21.1394 18.7606 21.8431 20.2411C21.9561 20.4788 21.8824 20.7632 21.6683 20.9162L19.0989 22.7516C20.6632 26.4055 23.5934 29.3358 27.2473 30.9L29.0793 28.335C29.2342 28.1184 29.5221 28.0438 29.7625 28.158C31.243 28.8612 32.8436 29.3525 34.5252 29.5928C34.6894 29.6163 34.9072 29.6417 35.1783 29.6691C35.4823 29.6998 35.7137 29.9558 35.7137 30.2613Z" fill="white"/>
</svg>
