<svg width="20" height="21" viewBox="0 0 20 21" fill="none" xmlns="http://www.w3.org/2000/svg">
<path d="M15.8337 8.98161C15.8337 11.472 12.8982 15.5964 11.192 17.7833C10.5677 18.5834 9.43291 18.5834 8.80866 17.7833C7.1025 15.5964 4.16699 11.472 4.16699 8.98161C4.16699 5.47096 6.77867 2.625 10.0003 2.625C13.222 2.625 15.8337 5.47096 15.8337 8.98161Z" stroke="black" stroke-width="1.25" stroke-linecap="round"/>
<path d="M12.1673 8.74965C12.1673 10.0061 11.1972 11.0247 10.0007 11.0247C8.80408 11.0247 7.83398 10.0061 7.83398 8.74965C7.83398 7.49316 8.80408 6.47461 10.0007 6.47461C11.1972 6.47461 12.1673 7.49316 12.1673 8.74965Z" stroke="black" stroke-width="1.25" stroke-linecap="round"/>
</svg>
