<svg width="78" height="74" viewBox="0 0 78 74" fill="none" xmlns="http://www.w3.org/2000/svg">
<path d="M7 70H71" stroke="#37CAE2" stroke-width="1.3"/>
<path d="M53.7791 49.7492L69 65.2107M61.4987 30.7797C61.4987 15.9897 49.7465 4 35.2493 4C20.7522 4 9 15.9897 9 30.7797C9 45.5697 20.7522 57.5593 35.2493 57.5593C49.7465 57.5593 61.4987 45.5697 61.4987 30.7797Z" stroke="black" stroke-width="1.3" stroke-miterlimit="10"/>
<path d="M39.875 40.5H28.625C27.3824 40.5 26.375 39.4927 26.375 38.25V24.75C26.375 23.5074 27.3824 22.5 28.625 22.5H32.5878C33.4969 22.5 34.3166 23.0471 34.6655 23.8865L34.7988 24.2072C35.1476 25.0467 35.9674 25.5938 36.8765 25.5938H42.4062C43.4936 25.5938 44.375 26.4752 44.375 27.5625M29.2937 40.5H42.6405C43.6627 40.5 44.5564 39.8111 44.8165 38.8226L46.8161 31.2238C47.0038 30.5105 46.4658 29.8125 45.7282 29.8125H30.922C29.8999 29.8125 29.0062 30.5015 28.7461 31.4899L27.1178 37.6774C26.7423 39.1041 27.8184 40.5 29.2937 40.5Z" stroke="black" stroke-width="1.25" stroke-linecap="round"/>
</svg>
