<svg width="18" height="18" viewBox="0 0 18 18" fill="none" xmlns="http://www.w3.org/2000/svg">
<path d="M15.3841 8.41657C15.9716 7.98937 15.6694 7.05996 14.943 7.05996H12.0895C11.4349 7.05996 10.8559 6.63546 10.659 6.01116L9.71508 3.01854C9.49458 2.31934 8.5051 2.31934 8.28453 3.01854L7.34068 6.01116C7.14377 6.63546 6.56476 7.05996 5.91014 7.05996H3.05662C2.33022 7.05996 2.02804 7.98937 2.61555 8.41657L5.15697 10.2645C5.7062 10.6638 5.91862 11.3824 5.67485 12.0161L4.57234 14.8825C4.30411 15.58 5.10922 16.1978 5.71348 15.7583L8.11758 14.0099C8.64355 13.6273 9.35613 13.6273 9.8821 14.0099L12.2862 15.7583C12.8904 16.1978 13.6956 15.58 13.4273 14.8825L12.3248 12.0161C12.081 11.3824 12.2934 10.6638 12.8427 10.2645L15.3841 8.41657Z" stroke="white" stroke-width="1.25" stroke-linecap="round"/>
</svg>
