<svg width="205" height="71" viewBox="0 0 205 71" fill="none" xmlns="http://www.w3.org/2000/svg">
<g clip-path="url(#clip0_634_23165)">
<path d="M16.7576 25.7014C20.3774 26.5394 24.0113 27.6988 27.5892 29.2632C31.1671 27.6848 34.815 26.5394 38.4208 25.7014L29.504 7.19359H45.2692C40.5313 2.72379 34.1441 0 27.114 0C20.0839 0 13.6968 2.72378 8.94482 7.17962H25.6605L16.7436 25.6874L16.7576 25.7014Z" fill="#3764A5"/>
<path d="M22.8652 31.6239C20.4893 30.7439 17.8617 29.9756 14.9966 29.375L7.64505 44.6561C12.1454 38.9432 17.3586 34.7248 22.8792 31.6239" fill="#64C4E0"/>
<path d="M44.7941 28.5784L50.133 39.8646C52.1875 36.3167 53.4454 32.252 53.655 27.9219C50.4824 27.9777 47.5334 28.2152 44.7801 28.5923" fill="#64C4E0"/>
<path d="M10.3844 28.579C7.36551 28.1739 4.09506 27.9225 0.573029 27.8945C0.796649 32.6018 2.26416 36.9878 4.62616 40.7312L10.3844 28.565V28.579Z" fill="#64C4E0"/>
<path d="M27.5892 33.6348C17.68 38.5236 13.0259 45.1724 11.4047 47.994C15.8072 51.2206 21.23 53.1343 27.114 53.1343C33.2916 53.1343 38.9659 51.0251 43.4803 47.5051C41.6214 44.4601 36.9673 38.2582 27.5892 33.6348Z" fill="#A3C42F"/>
<path d="M18.4627 11.4961L5.15726 11.5799C2.73936 15.1278 1.13209 19.3043 0.670868 23.802C4.30471 23.8579 8.19012 24.1512 12.1594 24.7938L18.4627 11.4961Z" fill="#64C4E0"/>
<path d="M40.1819 29.3613C37.3027 29.962 34.6892 30.7302 32.3132 31.6102C37.6522 34.5994 42.6976 38.6501 47.1001 44.0837C47.2539 44.2653 47.4076 44.4609 47.5474 44.6425L47.2119 43.958L40.1819 29.3613Z" fill="#64C4E0"/>
<path d="M43.0051 24.7938C46.6389 24.2071 50.1889 23.9138 53.5572 23.816C53.096 19.3043 51.4887 15.1138 49.0568 11.5659L36.7018 11.4961L43.0051 24.7938Z" fill="#64C4E0"/>
<path d="M121.035 53.2328C121.482 52.1852 126.975 40.1168 143.397 32.4622L143.439 53.2328H148.876V30.2273C154.019 28.4254 160.015 27.0845 167.017 26.4978L154.438 53.2328H160.686L172.845 26.2045C176.94 26.1207 181.343 26.3023 186.053 26.7772L198.366 53.1909H203.97L191.867 27.5035C195.584 28.0483 199.498 28.7746 203.593 29.6965L201.552 24.249C201.552 24.249 196.744 22.8522 189.211 21.8884L179.19 -0.0136719L169.505 21.1899C162.936 21.595 155.892 22.6985 148.862 24.9893V5.62945L164.263 5.51771L169.029 0.084105H143.327L143.383 27.0426C133.921 31.0235 124.78 37.4069 117.303 47.3662L139.064 0.0422006H111.279V5.61548L130.385 5.48977L108.778 53.2468H121.049L121.035 53.2328ZM179.204 12.0827L183.509 21.3157C180.909 21.1201 178.114 21.0084 175.179 21.0223L179.204 12.0827Z" fill="#3764A5"/>
<path d="M75.1785 29.6674H91.4749L102.321 53.2317H107.925L83.187 0.0410156L71.6984 24.7506L71.4609 25.2675L58.4629 53.2317H64.7103L75.1925 29.6674H75.1785ZM83.187 11.6625L89.2108 24.7506H77.3588L83.173 11.6625H83.187Z" fill="#3764A5"/>
<path d="M203.844 59.9785H57.6243V60.3417H203.844V59.9785Z" fill="#3764A5"/>
<path d="M2.34802 65.1895L0 70.9304H0.614957C0.614957 70.9304 0.740744 70.9164 0.782673 70.8745C0.824602 70.8326 0.866531 70.7907 0.880507 70.7488L1.42558 69.3659H4.0671L4.61218 70.7488C4.61218 70.7488 4.66809 70.8466 4.71001 70.8745C4.75194 70.9164 4.80785 70.9304 4.87773 70.9304H5.49269L3.14467 65.1895H2.33404H2.34802ZM1.6492 68.7932L2.57164 66.4606C2.62755 66.3209 2.69743 66.1393 2.75333 65.9158C2.78128 66.0136 2.80924 66.1114 2.83719 66.2091C2.86514 66.3069 2.89309 66.3767 2.92105 66.4466L3.84348 68.7793H1.6492V68.7932Z" fill="#3764A5"/>
<path d="M9.18244 68.1776C9.05665 68.0658 8.90291 67.968 8.7352 67.8982C8.56748 67.8284 8.39976 67.7585 8.21807 67.7027C8.03638 67.6468 7.86866 67.5909 7.70095 67.535C7.53323 67.4792 7.37949 67.4093 7.25371 67.3395C7.12792 67.2696 7.01611 67.1719 6.93225 67.0741C6.84839 66.9623 6.80647 66.8366 6.80647 66.669C6.80647 66.5433 6.83442 66.4316 6.87635 66.3198C6.91828 66.2081 6.98816 66.1243 7.08599 66.0404C7.18383 65.9566 7.29564 65.9008 7.42142 65.8449C7.56119 65.803 7.71493 65.7751 7.89662 65.7751C8.07831 65.7751 8.24602 65.803 8.37181 65.8449C8.4976 65.8868 8.62338 65.9427 8.70724 65.9985C8.80508 66.0544 8.87496 66.0963 8.94484 66.1522C9.01472 66.2081 9.05665 66.222 9.11256 66.222C9.15448 66.222 9.18244 66.222 9.22437 66.1941C9.25232 66.1801 9.28027 66.1382 9.30822 66.1103L9.50389 65.7471C9.29425 65.5516 9.05665 65.4119 8.7911 65.3001C8.52555 65.1884 8.21807 65.1465 7.89662 65.1465C7.60311 65.1465 7.33757 65.1884 7.11394 65.2862C6.89032 65.37 6.69465 65.4957 6.54092 65.6354C6.38718 65.789 6.27537 65.9427 6.19151 66.1382C6.10765 66.3338 6.06572 66.5293 6.06572 66.7249C6.06572 66.9763 6.10765 67.1858 6.19151 67.3674C6.27537 67.535 6.3732 67.6887 6.51296 67.8004C6.63875 67.9122 6.79249 68.01 6.9602 68.0798C7.12792 68.1496 7.30961 68.2195 7.47733 68.2753C7.65902 68.3312 7.82674 68.3871 7.99445 68.429C8.16217 68.4849 8.31591 68.5407 8.44169 68.6246C8.56748 68.6944 8.67929 68.7922 8.76315 68.9039C8.84701 69.0157 8.88893 69.1553 8.88893 69.3369C8.88893 69.4906 8.86098 69.6303 8.80508 69.7699C8.74917 69.8957 8.67929 70.0074 8.56748 70.1052C8.46965 70.2029 8.34386 70.2728 8.19012 70.3147C8.03638 70.3706 7.86866 70.3845 7.68697 70.3845C7.53323 70.3845 7.40745 70.3845 7.28166 70.3426C7.15587 70.3147 7.05804 70.2728 6.9602 70.2309C6.86237 70.189 6.77851 70.1471 6.70863 70.0912C6.63875 70.0353 6.56887 69.9934 6.51296 69.9515C6.45706 69.9096 6.40115 69.8677 6.35922 69.8398C6.3173 69.8118 6.27537 69.7979 6.23344 69.7979C6.19151 69.7979 6.16356 69.7979 6.12163 69.8258C6.09367 69.8398 6.06572 69.8677 6.03777 69.8957L5.81415 70.2588C6.03777 70.4823 6.30332 70.6639 6.6108 70.8036C6.91828 70.9433 7.26768 71.0131 7.65902 71.0131C7.9665 71.0131 8.24602 70.9712 8.4976 70.8734C8.74917 70.7756 8.94484 70.6499 9.11256 70.4823C9.28027 70.3147 9.40606 70.1331 9.48992 69.9096C9.57377 69.6861 9.6157 69.4487 9.6157 69.1972C9.6157 68.9598 9.57377 68.7642 9.48992 68.5966C9.40606 68.429 9.30822 68.2893 9.16846 68.1915" fill="#3764A5"/>
<path d="M15.3739 65.9566C15.1224 65.6912 14.8149 65.4957 14.4515 65.356C14.0881 65.2163 13.6968 65.1465 13.2635 65.1465C12.8303 65.1465 12.4389 65.2163 12.0755 65.356C11.7261 65.4957 11.4186 65.7052 11.1671 65.9566C10.9155 66.222 10.7198 66.5293 10.5801 66.8925C10.4403 67.2557 10.3704 67.6468 10.3704 68.0798C10.3704 68.5128 10.4403 68.9039 10.5801 69.2671C10.7198 69.6303 10.9155 69.9376 11.1671 70.189C11.4186 70.4404 11.7261 70.6499 12.0755 70.7896C12.4249 70.9293 12.8303 70.9991 13.2635 70.9991C13.6968 70.9991 14.0881 70.9293 14.4515 70.7896C14.8149 70.6499 15.1084 70.4404 15.3739 70.189C15.6255 69.9236 15.8212 69.6163 15.9609 69.2671C16.1007 68.9039 16.1706 68.5128 16.1706 68.0798C16.1706 67.6468 16.1007 67.2557 15.9609 66.8925C15.8212 66.5293 15.6255 66.222 15.3739 65.9566ZM15.2062 69.0157C15.1084 69.295 14.9686 69.5325 14.7869 69.728C14.6052 69.9236 14.3816 70.0772 14.13 70.175C13.8785 70.2728 13.585 70.3287 13.2635 70.3287C12.9421 70.3287 12.6625 70.2728 12.411 70.175C12.1594 70.0772 11.9358 69.9236 11.7541 69.728C11.5724 69.5325 11.4326 69.295 11.3348 69.0157C11.237 68.7363 11.181 68.415 11.181 68.0658C11.181 67.7166 11.237 67.3954 11.3348 67.116C11.4326 66.8366 11.5724 66.5992 11.7541 66.4036C11.9358 66.2081 12.1594 66.0544 12.411 65.9566C12.6625 65.8589 12.956 65.803 13.2635 65.803C13.571 65.803 13.8645 65.8589 14.13 65.9566C14.3816 66.0544 14.6052 66.2081 14.7869 66.4036C14.9686 66.5992 15.1084 66.8366 15.2062 67.116C15.3041 67.3954 15.36 67.7166 15.36 68.0658C15.36 68.415 15.3041 68.7363 15.2062 69.0157Z" fill="#3764A5"/>
<path d="M21.4396 69.7423C21.4396 69.7423 21.3418 69.7563 21.2999 69.7982C21.202 69.882 21.0902 69.9658 20.9924 70.0356C20.8946 70.1055 20.7828 70.1613 20.657 70.2032C20.5312 70.2451 20.4054 70.2731 20.2656 70.301C20.1259 70.315 19.9721 70.329 19.7904 70.329C19.4969 70.329 19.2314 70.2731 18.9938 70.1753C18.7422 70.0775 18.5326 69.9239 18.3509 69.7283C18.1692 69.5328 18.0294 69.2953 17.9176 69.0159C17.8058 68.7366 17.7639 68.4153 17.7639 68.0661C17.7639 67.7169 17.8198 67.3956 17.9176 67.1163C18.0154 66.8369 18.1552 66.5995 18.3369 66.4039C18.5186 66.2084 18.7282 66.0547 18.9938 65.9569C19.2593 65.8592 19.5249 65.8033 19.8324 65.8033C20.0839 65.8033 20.2936 65.8312 20.4753 65.8871C20.643 65.943 20.7967 65.9988 20.9085 66.0547C21.0204 66.1245 21.1182 66.1804 21.1881 66.2223C21.2579 66.2782 21.3139 66.3061 21.3698 66.3061C21.4117 66.3061 21.4536 66.3061 21.4816 66.2782C21.5095 66.2642 21.5235 66.2363 21.5515 66.2084L21.817 65.8592C21.5794 65.6357 21.2859 65.4541 20.9644 65.3284C20.643 65.2027 20.2796 65.1328 19.8603 65.1328C19.441 65.1328 19.0497 65.2026 18.6863 65.3423C18.3369 65.482 18.0294 65.6915 17.7779 65.943C17.5263 66.2084 17.3306 66.5157 17.1908 66.8649C17.0511 67.228 16.9812 67.6191 16.9812 68.0522C16.9812 68.4852 17.0511 68.8763 17.1769 69.2394C17.3166 69.6026 17.4983 69.9099 17.7359 70.1613C17.9735 70.4128 18.281 70.6223 18.6164 70.762C18.9658 70.9016 19.3432 70.9715 19.7625 70.9715C20.2517 70.9715 20.6709 70.9016 21.0064 70.748C21.3558 70.5944 21.6493 70.3848 21.8869 70.1055L21.5654 69.7702C21.5654 69.7702 21.4955 69.7144 21.4536 69.7144" fill="#3764A5"/>
<path d="M23.592 65.1895H22.7953V70.9304H23.592V65.1895Z" fill="#3764A5"/>
<path d="M26.7227 65.1895L24.3747 70.9304H24.9896C24.9896 70.9304 25.1154 70.9164 25.1573 70.8745C25.1993 70.8326 25.2412 70.7907 25.2552 70.7488L25.8002 69.3659H28.4418L28.9868 70.7488C28.9868 70.7488 29.0427 70.8466 29.0847 70.8745C29.1266 70.9164 29.1825 70.9304 29.2524 70.9304H29.8674L27.5193 65.1895H26.7087H26.7227ZM26.0239 68.7932L26.9463 66.4606C27.0022 66.3209 27.0581 66.1393 27.128 65.9158C27.1559 66.0136 27.1839 66.1114 27.2119 66.2091C27.2398 66.3069 27.2678 66.3767 27.2957 66.4466L28.2181 68.7793H26.0239V68.7932Z" fill="#3764A5"/>
<path d="M34.6333 69.7423C34.6333 69.7423 34.5354 69.7563 34.4935 69.7982C34.3957 69.882 34.2839 69.9658 34.186 70.0356C34.0882 70.1055 33.9764 70.1613 33.8506 70.2032C33.7248 70.2451 33.599 70.2731 33.4593 70.301C33.3195 70.315 33.1658 70.329 32.9841 70.329C32.6906 70.329 32.425 70.2731 32.1874 70.1753C31.9358 70.0775 31.7262 69.9239 31.5445 69.7283C31.3628 69.5328 31.2231 69.2953 31.1112 69.0159C30.9994 68.7366 30.9575 68.4153 30.9575 68.0661C30.9575 67.7169 31.0134 67.3956 31.1112 67.1163C31.2091 66.8369 31.3488 66.5995 31.5305 66.4039C31.7122 66.2084 31.9219 66.0547 32.1874 65.9569C32.453 65.8592 32.7185 65.8033 33.026 65.8033C33.2776 65.8033 33.4872 65.8312 33.6689 65.8871C33.8366 65.943 33.9904 65.9988 34.1022 66.0547C34.214 66.1245 34.3118 66.1804 34.3817 66.2223C34.4516 66.2782 34.5075 66.3061 34.5634 66.3061C34.6053 66.3061 34.6473 66.3061 34.6752 66.2782C34.7032 66.2642 34.7171 66.2363 34.7451 66.2084L35.0106 65.8592C34.773 65.6357 34.4795 65.4541 34.1581 65.3284C33.8366 65.2027 33.4732 65.1328 33.054 65.1328C32.6347 65.1328 32.2433 65.2026 31.8799 65.3423C31.5305 65.482 31.2231 65.6915 30.9715 65.943C30.7199 66.2084 30.5242 66.5157 30.3845 66.8649C30.2447 67.228 30.1748 67.6191 30.1748 68.0522C30.1748 68.4852 30.2447 68.8763 30.3705 69.2394C30.5103 69.6026 30.692 69.9099 30.9296 70.1613C31.1672 70.4128 31.4746 70.6223 31.8101 70.762C32.1595 70.9016 32.5368 70.9715 32.9561 70.9715C33.4453 70.9715 33.8646 70.9016 34.2 70.748C34.5494 70.5944 34.8429 70.3848 35.0805 70.1055L34.7591 69.7702C34.7591 69.7702 34.6892 69.7144 34.6473 69.7144" fill="#3764A5"/>
<path d="M36.7856 65.1895H35.989V70.9304H36.7856V65.1895Z" fill="#3764A5"/>
<path d="M42.9212 65.9566C42.6696 65.6912 42.3622 65.4957 41.9988 65.356C41.6354 65.2163 41.2441 65.1465 40.8108 65.1465C40.3775 65.1465 39.9862 65.2163 39.6228 65.356C39.2734 65.4957 38.9659 65.7052 38.7143 65.9566C38.4628 66.222 38.2671 66.5293 38.1273 66.8925C37.9876 67.2557 37.9177 67.6468 37.9177 68.0798C37.9177 68.5128 37.9876 68.9039 38.1273 69.2671C38.2671 69.6303 38.4628 69.9376 38.7143 70.189C38.9659 70.4404 39.2734 70.6499 39.6228 70.7896C39.9722 70.9293 40.3775 70.9991 40.8108 70.9991C41.2441 70.9991 41.6354 70.9293 41.9988 70.7896C42.3622 70.6499 42.6557 70.4404 42.9212 70.189C43.1728 69.9236 43.3685 69.6163 43.5082 69.2671C43.648 68.9039 43.7179 68.5128 43.7179 68.0798C43.7179 67.6468 43.648 67.2557 43.5082 66.8925C43.3685 66.5293 43.1728 66.222 42.9212 65.9566ZM42.7535 69.0157C42.6557 69.295 42.5159 69.5325 42.3342 69.728C42.1525 69.9236 41.9289 70.0772 41.6773 70.175C41.4257 70.2728 41.1322 70.3287 40.8108 70.3287C40.4893 70.3287 40.2098 70.2728 39.9582 70.175C39.7067 70.0772 39.483 69.9236 39.3014 69.728C39.1197 69.5325 38.9799 69.295 38.8821 69.0157C38.7842 68.7363 38.7283 68.415 38.7283 68.0658C38.7283 67.7166 38.7842 67.3954 38.8821 67.116C38.9799 66.8366 39.1197 66.5992 39.3014 66.4036C39.483 66.2081 39.7067 66.0544 39.9582 65.9566C40.2098 65.8589 40.5033 65.803 40.8108 65.803C41.1183 65.803 41.4118 65.8589 41.6773 65.9566C41.9289 66.0544 42.1525 66.2081 42.3342 66.4036C42.5159 66.5992 42.6557 66.8366 42.7535 67.116C42.8513 67.3954 42.9072 67.7166 42.9072 68.0658C42.9072 68.415 42.8513 68.7363 42.7535 69.0157Z" fill="#3764A5"/>
<path d="M41.2021 63.6394L40.2517 64.7289H40.7828C40.7828 64.7289 40.8807 64.7289 40.9226 64.7289C40.9645 64.7289 41.0065 64.701 41.0484 64.6591L42.3901 63.5137H41.5655C41.4817 63.5137 41.4118 63.5137 41.3559 63.5276C41.3139 63.5276 41.258 63.5695 41.2161 63.6394" fill="#3764A5"/>
<path d="M48.931 69.2545C48.931 69.2545 48.931 69.3802 48.931 69.4361C48.931 69.5059 48.931 69.5618 48.945 69.6316L45.5348 65.3155C45.5348 65.3155 45.4929 65.2736 45.4789 65.2456C45.4649 65.2317 45.437 65.2177 45.423 65.2037C45.409 65.2037 45.381 65.1897 45.3531 65.1897C45.3251 65.1897 45.2972 65.1897 45.2692 65.1897H44.8639V70.9306H45.5627V66.838C45.5627 66.838 45.5627 66.7262 45.5627 66.6564C45.5627 66.5866 45.5627 66.5307 45.5627 66.4609L48.959 70.777C48.959 70.777 49.0428 70.8608 49.0848 70.8887C49.1267 70.9027 49.1826 70.9167 49.2385 70.9167H49.6298V65.1758H48.931V69.2405V69.2545Z" fill="#3764A5"/>
<path d="M57.5265 65.9856C57.2749 65.7342 56.9674 65.5387 56.604 65.399C56.2406 65.2593 55.8493 65.1895 55.4161 65.1895H53.2218V70.9304H55.4161C55.8493 70.9304 56.2406 70.8605 56.604 70.7208C56.9674 70.5812 57.2609 70.3856 57.5265 70.1342C57.778 69.8827 57.9737 69.5754 58.1135 69.2262C58.2532 68.877 58.3231 68.4859 58.3231 68.0529C58.3231 67.6199 58.2532 67.2288 58.1135 66.8796C57.9737 66.5304 57.778 66.2231 57.5265 65.9717M57.3727 69.0028C57.2749 69.2821 57.1351 69.5196 56.9534 69.7012C56.7717 69.8967 56.5481 70.0364 56.2966 70.1342C56.045 70.2319 55.7515 70.2878 55.43 70.2878H54.0324V65.8041H55.43C55.7515 65.8041 56.031 65.8599 56.2966 65.9577C56.5481 66.0555 56.7717 66.2091 56.9534 66.4047C57.1351 66.6002 57.2749 66.8377 57.3727 67.1031C57.4706 67.3825 57.5265 67.6898 57.5265 68.0529C57.5265 68.4161 57.4706 68.7234 57.3727 69.0028Z" fill="#3764A5"/>
<path d="M60.2798 68.3323H62.5719V67.7317H60.2798V65.832H63.103V65.1895H59.4832V70.9304H63.103V70.3018H60.2798V68.3323Z" fill="#3764A5"/>
<path d="M65.9402 65.8314H69.1967L65.8563 70.399C65.8563 70.399 65.8144 70.4688 65.8004 70.5107C65.7864 70.5526 65.7725 70.5945 65.7725 70.6364V70.9437H70.189V70.3152H66.8207L70.147 65.7616C70.2029 65.6777 70.2309 65.5939 70.2309 65.5101V65.2168H65.9262V65.8454L65.9402 65.8314Z" fill="#3764A5"/>
<path d="M75.7655 65.9566C75.514 65.6912 75.2065 65.4957 74.8431 65.356C74.4797 65.2163 74.0884 65.1465 73.6551 65.1465C73.2219 65.1465 72.8305 65.2163 72.4671 65.356C72.1177 65.4957 71.8102 65.7052 71.5587 65.9566C71.3071 66.222 71.1114 66.5293 70.9717 66.8925C70.8319 67.2557 70.762 67.6468 70.762 68.0798C70.762 68.5128 70.8319 68.9039 70.9717 69.2671C71.1114 69.6303 71.3071 69.9376 71.5587 70.189C71.8102 70.4404 72.1177 70.6499 72.4671 70.7896C72.8165 70.9293 73.2219 70.9991 73.6551 70.9991C74.0884 70.9991 74.4797 70.9293 74.8431 70.7896C75.2065 70.6499 75.5 70.4404 75.7655 70.189C76.0171 69.9236 76.2128 69.6163 76.3525 69.2671C76.4923 68.9039 76.5622 68.5128 76.5622 68.0798C76.5622 67.6468 76.4923 67.2557 76.3525 66.8925C76.2128 66.5293 76.0171 66.222 75.7655 65.9566ZM75.5978 69.0157C75.5 69.295 75.3602 69.5325 75.1785 69.728C74.9968 69.9236 74.7732 70.0772 74.5216 70.175C74.2701 70.2728 73.9766 70.3287 73.6551 70.3287C73.3337 70.3287 73.0541 70.2728 72.8026 70.175C72.551 70.0772 72.3274 69.9236 72.1457 69.728C71.964 69.5325 71.8242 69.295 71.7264 69.0157C71.6286 68.7363 71.5726 68.415 71.5726 68.0658C71.5726 67.7166 71.6286 67.3954 71.7264 67.116C71.8242 66.8366 71.964 66.5992 72.1457 66.4036C72.3274 66.2081 72.551 66.0544 72.8026 65.9566C73.0541 65.8589 73.3476 65.803 73.6551 65.803C73.9626 65.803 74.2561 65.8589 74.5216 65.9566C74.7732 66.0544 74.9968 66.2081 75.1785 66.4036C75.3602 66.5992 75.5 66.8366 75.5978 67.116C75.6957 67.3954 75.7516 67.7166 75.7516 68.0658C75.7516 68.415 75.6957 68.7363 75.5978 69.0157Z" fill="#3764A5"/>
<path d="M81.7754 69.2545C81.7754 69.2545 81.7754 69.3802 81.7754 69.4361C81.7754 69.5059 81.7754 69.5618 81.7893 69.6316L78.3791 65.3155C78.3791 65.3155 78.3372 65.2736 78.3232 65.2456C78.3092 65.2317 78.2813 65.2177 78.2673 65.2037C78.2533 65.2037 78.2254 65.1897 78.1974 65.1897C78.1695 65.1897 78.1415 65.1897 78.1136 65.1897H77.7083V70.9306H78.4071V66.838C78.4071 66.838 78.4071 66.7262 78.4071 66.6564C78.4071 66.5866 78.4071 66.5307 78.4071 66.4609L81.8033 70.777C81.8033 70.777 81.8872 70.8608 81.9291 70.8887C81.971 70.9027 82.0269 70.9167 82.0828 70.9167H82.4742V65.1758H81.7754V69.2405V69.2545Z" fill="#3764A5"/>
<path d="M85.5909 65.1895L83.2429 70.9304H83.8578C83.8578 70.9304 83.9836 70.9164 84.0255 70.8745C84.0675 70.8326 84.1094 70.7907 84.1234 70.7488L84.6684 69.3659H87.31L87.855 70.7488C87.855 70.7488 87.9109 70.8466 87.9529 70.8745C87.9948 70.9164 88.0507 70.9304 88.1206 70.9304H88.7355L86.3875 65.1895H85.5769H85.5909ZM84.906 68.7932L85.8285 66.4606C85.8844 66.3209 85.9543 66.1393 86.0102 65.9158C86.0381 66.0136 86.0661 66.1114 86.094 66.2091C86.122 66.3069 86.1499 66.3767 86.1779 66.4466L87.1003 68.7793H84.906V68.7932Z" fill="#3764A5"/>
<path d="M92.4253 68.1776C92.2995 68.0658 92.1458 67.968 91.978 67.8982C91.8103 67.8284 91.6426 67.7585 91.4609 67.7027C91.2792 67.6468 91.1115 67.5909 90.9438 67.535C90.7761 67.4792 90.6224 67.4093 90.4966 67.3395C90.3708 67.2696 90.259 67.1719 90.1751 67.0741C90.0912 66.9623 90.0493 66.8366 90.0493 66.669C90.0493 66.5433 90.0773 66.4316 90.1192 66.3198C90.1611 66.2081 90.231 66.1243 90.3288 66.0404C90.4267 65.9566 90.5385 65.9008 90.6643 65.8449C90.804 65.803 90.9578 65.7751 91.1395 65.7751C91.3212 65.7751 91.4889 65.803 91.6147 65.8449C91.7405 65.8868 91.8662 65.9427 91.9501 65.9985C92.0479 66.0544 92.1178 66.0963 92.1877 66.1522C92.2576 66.2081 92.2995 66.222 92.3554 66.222C92.3973 66.222 92.4253 66.222 92.4672 66.1941C92.4952 66.1801 92.5231 66.1382 92.5511 66.1103L92.7467 65.7471C92.5371 65.5516 92.2995 65.4119 92.034 65.3001C91.7684 65.2024 91.4609 65.1465 91.1395 65.1465C90.846 65.1465 90.5804 65.1884 90.3568 65.2862C90.1332 65.37 89.9375 65.4957 89.7838 65.6354C89.63 65.789 89.5042 65.9427 89.4344 66.1382C89.3505 66.3338 89.3086 66.5293 89.3086 66.7249C89.3086 66.9763 89.3505 67.1858 89.4344 67.3674C89.5182 67.535 89.6161 67.6887 89.7558 67.8004C89.8816 67.9122 90.0353 68.01 90.2031 68.0798C90.3708 68.1496 90.5525 68.2195 90.7202 68.2753C90.9019 68.3312 91.0696 68.3871 91.2373 68.429C91.405 68.4849 91.5588 68.5407 91.6845 68.6246C91.8103 68.6944 91.9221 68.7922 92.006 68.9039C92.0899 69.0157 92.1318 69.1553 92.1318 69.3369C92.1318 69.4906 92.1038 69.6303 92.0479 69.7699C91.992 69.8957 91.9222 70.0074 91.8103 70.1052C91.7125 70.2029 91.5867 70.2728 91.433 70.3147C91.2792 70.3706 91.1115 70.3845 90.9298 70.3845C90.7761 70.3845 90.6503 70.3845 90.5245 70.3426C90.3987 70.3147 90.3009 70.2728 90.2031 70.2309C90.1052 70.189 90.0214 70.1471 89.9515 70.0912C89.8816 70.0353 89.8117 69.9934 89.7558 69.9515C89.6999 69.9096 89.644 69.8677 89.6021 69.8398C89.5602 69.8118 89.5182 69.7979 89.4763 69.7979C89.4344 69.7979 89.4064 69.7979 89.3645 69.8258C89.3365 69.8398 89.3086 69.8677 89.2806 69.8957L89.057 70.2588C89.2806 70.4823 89.5462 70.6639 89.8537 70.8036C90.1611 70.9433 90.5105 71.0131 90.9019 71.0131C91.2094 71.0131 91.4889 70.9712 91.7405 70.8734C91.992 70.7756 92.1877 70.6499 92.3554 70.4823C92.5231 70.3147 92.6489 70.1331 92.7328 69.9096C92.8166 69.6861 92.8586 69.4487 92.8586 69.1972C92.8586 68.9598 92.8166 68.7642 92.7328 68.5966C92.6489 68.429 92.5511 68.2893 92.4113 68.1915" fill="#3764A5"/>
<path d="M96.0871 70.9304H96.8837V68.458H99.3017V67.8294H96.8837V65.832H99.707V65.1895H96.0871V70.9304Z" fill="#3764A5"/>
<path d="M103.103 68.4024C103.327 68.3465 103.536 68.2767 103.718 68.1789C103.9 68.0812 104.054 67.9554 104.179 67.8158C104.305 67.6761 104.403 67.5224 104.459 67.3408C104.529 67.1593 104.557 66.9777 104.557 66.7681C104.557 66.5307 104.515 66.3072 104.431 66.1116C104.347 65.9161 104.221 65.7485 104.04 65.6088C103.858 65.4691 103.634 65.3574 103.369 65.2875C103.103 65.2177 102.782 65.1758 102.404 65.1758H100.741V70.9167H101.538V68.5281H102.139C102.251 68.5281 102.334 68.5281 102.39 68.57C102.446 68.598 102.488 68.6399 102.544 68.7097L104.068 70.763C104.137 70.8748 104.249 70.9306 104.389 70.9306H105.102L103.383 68.6538C103.313 68.5421 103.215 68.4723 103.117 68.4164M102.362 67.9694H101.524V65.8043H102.39C102.852 65.8043 103.201 65.8882 103.425 66.0697C103.648 66.2374 103.774 66.5028 103.774 66.838C103.774 67.0056 103.746 67.1593 103.69 67.2989C103.634 67.4386 103.536 67.5504 103.425 67.6621C103.313 67.7599 103.159 67.8437 102.977 67.8996C102.796 67.9554 102.6 67.9834 102.362 67.9834" fill="#3764A5"/>
<path d="M107.506 65.1895L105.158 70.9304H105.773C105.773 70.9304 105.898 70.9164 105.94 70.8745C105.982 70.8326 106.024 70.7907 106.038 70.7488L106.583 69.3659H109.225L109.77 70.7488C109.77 70.7488 109.826 70.8466 109.868 70.8745C109.91 70.9164 109.966 70.9304 110.035 70.9304H110.65L108.302 65.1895H107.492H107.506ZM106.807 68.7932L107.729 66.4606C107.785 66.3209 107.855 66.1393 107.911 65.9158C107.939 66.0136 107.967 66.1114 107.995 66.2091C108.023 66.3069 108.051 66.3767 108.079 66.4466L109.001 68.7793H106.807V68.7932Z" fill="#3764A5"/>
<path d="M115.5 69.2545C115.5 69.2545 115.5 69.3802 115.5 69.4361C115.5 69.5059 115.5 69.5618 115.514 69.6316L112.104 65.3155C112.104 65.3155 112.062 65.2736 112.048 65.2456C112.034 65.2317 112.006 65.2177 111.992 65.2037C111.978 65.2037 111.95 65.1897 111.922 65.1897C111.894 65.1897 111.866 65.1897 111.838 65.1897H111.433V70.9306H112.132V66.838C112.132 66.838 112.132 66.7262 112.132 66.6564C112.132 66.5866 112.132 66.5307 112.132 66.4609L115.528 70.777C115.528 70.777 115.612 70.8608 115.654 70.8887C115.696 70.9027 115.752 70.9167 115.808 70.9167H116.199V65.1758H115.5V69.2405V69.2545Z" fill="#3764A5"/>
<path d="M121.831 69.7423C121.831 69.7423 121.734 69.7563 121.692 69.7982C121.594 69.882 121.482 69.9658 121.384 70.0356C121.286 70.1055 121.175 70.1613 121.049 70.2032C120.923 70.2451 120.797 70.2731 120.657 70.301C120.518 70.315 120.364 70.329 120.182 70.329C119.889 70.329 119.623 70.2731 119.386 70.1753C119.134 70.0775 118.924 69.9239 118.743 69.7283C118.561 69.5328 118.421 69.2953 118.309 69.0159C118.198 68.7366 118.156 68.4153 118.156 68.0661C118.156 67.7169 118.212 67.3956 118.309 67.1163C118.407 66.8369 118.547 66.5995 118.729 66.4039C118.91 66.2084 119.12 66.0547 119.386 65.9569C119.637 65.8592 119.917 65.8033 120.224 65.8033C120.476 65.8033 120.685 65.8312 120.867 65.8871C121.035 65.943 121.189 65.9988 121.3 66.0547C121.412 66.1245 121.51 66.1804 121.58 66.2223C121.65 66.2782 121.706 66.3061 121.762 66.3061C121.803 66.3061 121.845 66.3061 121.873 66.2782C121.901 66.2642 121.915 66.2363 121.943 66.2084L122.209 65.8592C121.971 65.6357 121.678 65.4541 121.356 65.3284C121.035 65.2027 120.671 65.1328 120.252 65.1328C119.833 65.1328 119.441 65.2026 119.078 65.3423C118.729 65.482 118.421 65.6915 118.17 65.943C117.918 66.2084 117.722 66.5157 117.583 66.8649C117.443 67.228 117.373 67.6191 117.373 68.0522C117.373 68.4852 117.443 68.8763 117.569 69.2394C117.708 69.6026 117.89 69.9099 118.128 70.1613C118.365 70.4128 118.673 70.6223 119.008 70.762C119.358 70.9016 119.735 70.9715 120.154 70.9715C120.643 70.9715 121.063 70.9016 121.398 70.748C121.748 70.5944 122.041 70.3848 122.279 70.1055L121.957 69.7702C121.957 69.7702 121.887 69.7144 121.845 69.7144" fill="#3764A5"/>
<path d="M124.808 65.1895L122.46 70.9304H123.075C123.145 70.9304 123.201 70.9164 123.243 70.8745C123.285 70.8326 123.327 70.7907 123.341 70.7488L123.886 69.3659H126.527L127.073 70.7488C127.073 70.7488 127.128 70.8466 127.17 70.8745C127.212 70.9164 127.268 70.9304 127.338 70.9304H127.953L125.605 65.1895H124.794H124.808ZM124.124 68.7932L125.046 66.4606C125.102 66.3209 125.172 66.1393 125.228 65.9158C125.256 66.0136 125.284 66.1114 125.312 66.2091C125.339 66.3069 125.367 66.3767 125.395 66.4466L126.318 68.7793H124.124V68.7932Z" fill="#3764A5"/>
<path d="M131.643 68.1776C131.517 68.0658 131.363 67.968 131.196 67.8982C131.028 67.8284 130.846 67.7585 130.678 67.7027C130.497 67.6468 130.329 67.5909 130.161 67.535C129.994 67.4792 129.84 67.4093 129.714 67.3395C129.588 67.2696 129.476 67.1719 129.393 67.0741C129.309 66.9623 129.267 66.8366 129.267 66.669C129.267 66.5433 129.295 66.4316 129.337 66.3198C129.379 66.2081 129.449 66.1243 129.546 66.0404C129.644 65.9566 129.756 65.9008 129.882 65.8449C130.022 65.803 130.175 65.7751 130.357 65.7751C130.553 65.7751 130.706 65.803 130.846 65.8449C130.986 65.8868 131.098 65.9427 131.182 65.9985C131.279 66.0544 131.349 66.0963 131.419 66.1522C131.475 66.1941 131.531 66.222 131.587 66.222C131.629 66.222 131.657 66.222 131.685 66.1941C131.713 66.1801 131.741 66.1382 131.769 66.1103L131.964 65.7471C131.755 65.5516 131.517 65.4119 131.251 65.3001C130.986 65.2024 130.678 65.1465 130.357 65.1465C130.063 65.1465 129.798 65.1884 129.574 65.2862C129.351 65.37 129.155 65.4957 129.001 65.6354C128.848 65.789 128.722 65.9427 128.652 66.1382C128.568 66.3338 128.526 66.5293 128.526 66.7249C128.526 66.9763 128.568 67.1858 128.652 67.3674C128.736 67.535 128.834 67.6887 128.973 67.8004C129.099 67.9122 129.253 68.01 129.421 68.0798C129.588 68.1496 129.77 68.2195 129.938 68.2753C130.119 68.3312 130.287 68.3871 130.455 68.429C130.623 68.4849 130.776 68.5407 130.902 68.6246C131.028 68.6944 131.14 68.7922 131.223 68.9039C131.307 69.0157 131.349 69.1553 131.349 69.3369C131.349 69.4906 131.321 69.6303 131.265 69.7699C131.21 69.8957 131.14 70.0074 131.028 70.1052C130.93 70.2029 130.804 70.2728 130.65 70.3147C130.497 70.3706 130.329 70.3845 130.147 70.3845C129.994 70.3845 129.868 70.3845 129.742 70.3426C129.616 70.3147 129.518 70.2728 129.421 70.2309C129.323 70.189 129.239 70.1471 129.169 70.0912C129.099 70.0353 129.029 69.9934 128.973 69.9515C128.917 69.9096 128.861 69.8677 128.82 69.8398C128.778 69.8118 128.736 69.7979 128.694 69.7979C128.652 69.7979 128.624 69.7979 128.582 69.8258C128.554 69.8398 128.526 69.8677 128.498 69.8957L128.274 70.2588C128.498 70.4823 128.764 70.6639 129.071 70.8036C129.379 70.9433 129.728 71.0131 130.119 71.0131C130.427 71.0131 130.706 70.9712 130.958 70.8734C131.21 70.7756 131.405 70.6499 131.573 70.4823C131.741 70.3147 131.866 70.1331 131.95 69.9096C132.034 69.6861 132.076 69.4487 132.076 69.1972C132.076 68.9598 132.034 68.7642 131.95 68.5966C131.866 68.429 131.769 68.2893 131.629 68.1915" fill="#3764A5"/>
<path d="M139.609 65.9856C139.358 65.7342 139.05 65.5387 138.687 65.399C138.323 65.2593 137.932 65.1895 137.499 65.1895H135.305V70.9304H137.499C137.932 70.9304 138.323 70.8605 138.687 70.7208C139.036 70.5812 139.344 70.3856 139.609 70.1342C139.861 69.8827 140.057 69.5754 140.196 69.2262C140.336 68.877 140.406 68.4859 140.406 68.0529C140.406 67.6199 140.336 67.2288 140.196 66.8796C140.057 66.5304 139.861 66.2231 139.609 65.9717M139.442 69.0028C139.344 69.2821 139.204 69.5196 139.022 69.7012C138.841 69.8967 138.617 70.0364 138.365 70.1342C138.114 70.2319 137.82 70.2878 137.499 70.2878H136.101V65.8041H137.499C137.82 65.8041 138.1 65.8599 138.365 65.9577C138.617 66.0555 138.841 66.2091 139.022 66.4047C139.204 66.6002 139.344 66.8377 139.442 67.1031C139.539 67.3825 139.595 67.6898 139.595 68.0529C139.595 68.4161 139.539 68.7234 139.442 69.0028Z" fill="#3764A5"/>
<path d="M142.349 68.3323H144.641V67.7317H142.349V65.832H145.172V65.1895H141.552V70.9304H145.172V70.3018H142.349V68.3323Z" fill="#3764A5"/>
<path d="M149.183 65.1895H148.386V70.9304H151.727V70.2739H149.183V65.1895Z" fill="#3764A5"/>
<path d="M154.228 65.1895L151.88 70.9304H152.495C152.495 70.9304 152.621 70.9164 152.663 70.8745C152.705 70.8326 152.747 70.7907 152.761 70.7488L153.306 69.3659H155.948L156.493 70.7488C156.493 70.7488 156.549 70.8466 156.59 70.8745C156.632 70.9164 156.688 70.9304 156.758 70.9304H157.373L155.025 65.1895H154.215H154.228ZM153.544 68.7932L154.466 66.4606C154.522 66.3209 154.592 66.1393 154.648 65.9158C154.676 66.0136 154.704 66.1114 154.732 66.2091C154.76 66.3069 154.788 66.3767 154.815 66.4466L155.738 68.7793H153.544V68.7932Z" fill="#3764A5"/>
<path d="M161.063 68.1776C160.937 68.0658 160.783 67.968 160.616 67.8982C160.448 67.8284 160.266 67.7585 160.099 67.7027C159.917 67.6468 159.749 67.5909 159.581 67.535C159.414 67.4792 159.26 67.4093 159.134 67.3395C159.008 67.2696 158.897 67.1719 158.813 67.0741C158.729 66.9623 158.687 66.8366 158.687 66.669C158.687 66.5433 158.715 66.4316 158.757 66.3198C158.799 66.2081 158.869 66.1243 158.966 66.0404C159.064 65.9566 159.176 65.9008 159.302 65.8449C159.442 65.803 159.595 65.7751 159.777 65.7751C159.959 65.7751 160.126 65.803 160.252 65.8449C160.378 65.8868 160.504 65.9427 160.588 65.9985C160.686 66.0544 160.755 66.0963 160.825 66.1522C160.895 66.1941 160.937 66.222 160.993 66.222C161.035 66.222 161.063 66.222 161.091 66.1941C161.119 66.1801 161.147 66.1382 161.175 66.1103L161.37 65.7471C161.161 65.5516 160.923 65.4119 160.658 65.3001C160.392 65.2024 160.085 65.1465 159.763 65.1465C159.47 65.1465 159.204 65.1884 158.98 65.2862C158.757 65.37 158.561 65.4957 158.407 65.6354C158.254 65.7751 158.128 65.9427 158.058 66.1382C157.974 66.3338 157.932 66.5293 157.932 66.7249C157.932 66.9763 157.974 67.1858 158.058 67.3674C158.142 67.535 158.24 67.6887 158.379 67.8004C158.505 67.9122 158.659 68.01 158.827 68.0798C158.994 68.1496 159.176 68.2195 159.344 68.2753C159.526 68.3312 159.693 68.3871 159.861 68.429C160.029 68.4849 160.182 68.5407 160.308 68.6246C160.434 68.6944 160.546 68.7922 160.63 68.9039C160.713 69.0157 160.755 69.1553 160.755 69.3369C160.755 69.4906 160.727 69.6303 160.672 69.7699C160.616 69.8957 160.546 70.0074 160.434 70.1052C160.336 70.2029 160.21 70.2728 160.057 70.3147C159.903 70.3706 159.735 70.3845 159.553 70.3845C159.4 70.3845 159.274 70.3845 159.148 70.3426C159.022 70.3147 158.925 70.2728 158.827 70.2309C158.729 70.189 158.645 70.1471 158.575 70.0912C158.505 70.0353 158.435 69.9934 158.379 69.9515C158.324 69.9096 158.268 69.8677 158.226 69.8398C158.184 69.8118 158.142 69.7979 158.1 69.7979C158.058 69.7979 158.03 69.7979 157.988 69.8258C157.96 69.8398 157.932 69.8677 157.904 69.8957L157.681 70.2588C157.904 70.4823 158.17 70.6639 158.477 70.8036C158.785 70.9433 159.134 71.0131 159.526 71.0131C159.833 71.0131 160.113 70.9712 160.364 70.8734C160.616 70.7756 160.811 70.6499 160.979 70.4823C161.147 70.3147 161.273 70.1331 161.356 69.9096C161.44 69.6861 161.482 69.4487 161.482 69.1972C161.482 68.9598 161.44 68.7642 161.356 68.5966C161.273 68.429 161.175 68.2893 161.035 68.1915" fill="#3764A5"/>
<path d="M166.08 65.1895L163.732 70.9304H164.347C164.347 70.9304 164.473 70.9164 164.515 70.8745C164.557 70.8326 164.599 70.7907 164.613 70.7488L165.158 69.3659H167.8L168.345 70.7488C168.345 70.7488 168.4 70.8466 168.442 70.8745C168.484 70.9164 168.54 70.9304 168.61 70.9304H169.225L166.877 65.1895H166.066H166.08ZM165.382 68.7932L166.304 66.4606C166.36 66.3209 166.43 66.1393 166.486 65.9158C166.514 66.0136 166.542 66.1114 166.57 66.2091C166.598 66.3069 166.625 66.3767 166.653 66.4466L167.576 68.7793H165.382V68.7932Z" fill="#3764A5"/>
<path d="M175.375 65.2174C175.375 65.2174 175.305 65.2733 175.263 65.3291L173.264 68.8491C173.264 68.8491 173.194 68.9748 173.166 69.0447C173.138 69.1145 173.11 69.1843 173.083 69.2542C173.055 69.1843 173.027 69.1145 172.999 69.0447C172.971 68.9748 172.943 68.905 172.901 68.8491L170.874 65.3152C170.874 65.3152 170.804 65.2174 170.762 65.2034C170.721 65.2034 170.665 65.1895 170.595 65.1895H170.008V70.9304H170.707V66.712C170.707 66.5863 170.707 66.4606 170.679 66.3209L172.733 69.9247C172.803 70.0504 172.887 70.1062 173.027 70.1062H173.138C173.264 70.1062 173.362 70.0504 173.432 69.9247L175.458 66.3348C175.458 66.3348 175.458 66.4606 175.445 66.5304C175.445 66.6002 175.445 66.6561 175.445 66.712V70.9304H176.143V65.1895H175.556C175.486 65.1895 175.431 65.1895 175.389 65.2034" fill="#3764A5"/>
<path d="M179.875 63.6394L178.925 64.7289H179.456C179.456 64.7289 179.554 64.7289 179.595 64.7289C179.637 64.7289 179.679 64.701 179.721 64.6591L181.063 63.5137H180.238C180.155 63.5137 180.085 63.5137 180.029 63.5276C179.987 63.5276 179.931 63.5695 179.889 63.6394" fill="#3764A5"/>
<path d="M178.435 68.3323H180.714V67.7317H178.435V65.832H181.259V65.1895H177.639V70.9304H181.259V70.3018H178.435V68.3323Z" fill="#3764A5"/>
<path d="M184.739 68.4024C184.962 68.3465 185.172 68.2767 185.354 68.1789C185.535 68.0812 185.689 67.9554 185.815 67.8158C185.941 67.6761 186.039 67.5224 186.094 67.3408C186.164 67.1593 186.192 66.9777 186.192 66.7681C186.192 66.5307 186.15 66.3072 186.067 66.1116C185.983 65.9161 185.857 65.7485 185.675 65.6088C185.493 65.4691 185.27 65.3574 185.004 65.2875C184.739 65.2177 184.417 65.1758 184.04 65.1758H182.377V70.9167H183.173V68.5281H183.774C183.886 68.5281 183.97 68.5281 184.026 68.57C184.082 68.598 184.124 68.6399 184.18 68.7097L185.703 70.763C185.773 70.8748 185.871 70.9306 186.025 70.9306H186.737L185.018 68.6538C184.948 68.5421 184.851 68.4723 184.753 68.4164M183.998 67.9694H183.159V65.8043H184.026C184.487 65.8043 184.837 65.8882 185.06 66.0697C185.284 66.2374 185.41 66.5028 185.41 66.838C185.41 67.0056 185.382 67.1593 185.326 67.2989C185.27 67.4386 185.172 67.5504 185.06 67.6621C184.948 67.7599 184.795 67.8437 184.613 67.8996C184.431 67.9554 184.236 67.9834 183.998 67.9834" fill="#3764A5"/>
<path d="M188.317 65.1895H187.52V70.9304H188.317V65.1895Z" fill="#3764A5"/>
<path d="M193.949 69.7423C193.949 69.7423 193.851 69.7563 193.809 69.7982C193.712 69.882 193.614 69.9658 193.502 70.0356C193.404 70.1055 193.292 70.1613 193.166 70.2032C193.041 70.2451 192.915 70.2731 192.775 70.301C192.635 70.315 192.482 70.329 192.3 70.329C192.02 70.329 191.741 70.2731 191.503 70.1753C191.252 70.0775 191.042 69.9239 190.86 69.7283C190.679 69.5328 190.539 69.2953 190.427 69.0159C190.315 68.7366 190.273 68.4153 190.273 68.0661C190.273 67.7169 190.329 67.3956 190.427 67.1163C190.525 66.8369 190.665 66.5995 190.846 66.4039C191.028 66.2084 191.252 66.0547 191.503 65.9569C191.755 65.8592 192.034 65.8033 192.342 65.8033C192.593 65.8033 192.803 65.8312 192.985 65.8871C193.152 65.943 193.306 65.9988 193.418 66.0547C193.53 66.1245 193.628 66.1804 193.698 66.2223C193.767 66.2782 193.823 66.3061 193.879 66.3061C193.921 66.3061 193.963 66.3061 193.991 66.2782C194.019 66.2642 194.033 66.2363 194.061 66.2084L194.326 65.8592C194.089 65.6357 193.795 65.4541 193.474 65.3284C193.152 65.2027 192.789 65.1328 192.37 65.1328C191.951 65.1328 191.559 65.2026 191.196 65.3423C190.846 65.482 190.539 65.6915 190.287 65.943C190.036 66.2084 189.84 66.5157 189.7 66.8649C189.561 67.228 189.491 67.6191 189.491 68.0522C189.491 68.4852 189.561 68.8763 189.686 69.2394C189.826 69.6026 190.008 69.9099 190.245 70.1613C190.483 70.4128 190.777 70.6223 191.126 70.762C191.475 70.9016 191.853 70.9715 192.272 70.9715C192.761 70.9715 193.18 70.9016 193.516 70.748C193.865 70.5944 194.159 70.3848 194.396 70.1055L194.075 69.7702C194.075 69.7702 194.005 69.7144 193.963 69.7144" fill="#3764A5"/>
<path d="M196.926 65.1895L194.578 70.9304H195.193C195.193 70.9304 195.319 70.9164 195.361 70.8745C195.403 70.8326 195.445 70.7907 195.459 70.7488L196.004 69.3659H198.645L199.19 70.7488C199.19 70.7488 199.246 70.8466 199.288 70.8745C199.33 70.9164 199.386 70.9304 199.456 70.9304H200.071L197.723 65.1895H196.912H196.926ZM196.227 68.7932L197.15 66.4606C197.206 66.3209 197.275 66.1393 197.331 65.9158C197.359 66.0136 197.387 66.1114 197.415 66.2091C197.443 66.3069 197.471 66.3767 197.499 66.4466L198.422 68.7793H196.227V68.7932Z" fill="#3764A5"/>
<path d="M204.082 68.5826C203.998 68.415 203.9 68.2753 203.76 68.1776C203.635 68.0658 203.481 67.968 203.313 67.8982C203.146 67.8284 202.978 67.7585 202.796 67.7027C202.614 67.6468 202.447 67.5909 202.279 67.535C202.111 67.4792 201.958 67.4093 201.832 67.3395C201.706 67.2696 201.594 67.1719 201.51 67.0741C201.426 66.9623 201.385 66.8366 201.385 66.669C201.385 66.5433 201.412 66.4316 201.454 66.3198C201.496 66.2081 201.566 66.1243 201.664 66.0404C201.762 65.9566 201.874 65.9008 201.999 65.8449C202.139 65.803 202.293 65.7751 202.475 65.7751C202.656 65.7751 202.824 65.803 202.95 65.8449C203.076 65.8868 203.201 65.9427 203.285 65.9985C203.383 66.0544 203.453 66.0963 203.523 66.1522C203.579 66.1941 203.635 66.222 203.691 66.222C203.733 66.222 203.761 66.222 203.802 66.1941C203.83 66.1801 203.858 66.1382 203.886 66.1103L204.082 65.7471C203.872 65.5516 203.635 65.4119 203.369 65.3001C203.104 65.2024 202.796 65.1465 202.475 65.1465C202.181 65.1465 201.916 65.1884 201.692 65.2722C201.468 65.356 201.273 65.4817 201.119 65.6214C200.965 65.7751 200.853 65.9427 200.77 66.1243C200.686 66.3198 200.644 66.5154 200.644 66.7109C200.644 66.9623 200.686 67.1719 200.77 67.3535C200.853 67.5211 200.951 67.6747 201.091 67.7865C201.217 67.8982 201.371 67.996 201.538 68.0658C201.706 68.1357 201.888 68.2055 202.055 68.2614C202.237 68.3172 202.405 68.3731 202.573 68.415C202.74 68.4709 202.894 68.5268 203.02 68.6106C203.146 68.6804 203.257 68.7782 203.341 68.8899C203.425 69.0017 203.467 69.1414 203.467 69.323C203.467 69.4766 203.439 69.6163 203.383 69.756C203.327 69.8817 203.257 69.9934 203.146 70.0912C203.048 70.189 202.922 70.2588 202.768 70.3007C202.614 70.3566 202.447 70.3706 202.265 70.3706C202.111 70.3706 201.972 70.3566 201.86 70.3287C201.734 70.3007 201.636 70.2588 201.538 70.2169C201.44 70.175 201.357 70.1331 201.287 70.0772C201.217 70.0214 201.147 69.9795 201.091 69.9376C201.035 69.8956 200.979 69.8537 200.937 69.8258C200.895 69.7979 200.853 69.7839 200.811 69.7839C200.77 69.7839 200.742 69.7839 200.714 69.8118C200.686 69.8258 200.658 69.8537 200.63 69.8817L200.406 70.2449C200.63 70.4683 200.895 70.6639 201.203 70.7896C201.51 70.9293 201.86 70.9991 202.251 70.9991C202.559 70.9991 202.838 70.9572 203.09 70.8594C203.327 70.7617 203.537 70.636 203.705 70.4683C203.872 70.3007 203.998 70.1191 204.082 69.8957C204.166 69.6722 204.208 69.4347 204.208 69.1833C204.208 68.9458 204.166 68.7503 204.082 68.5826Z" fill="#3764A5"/>
</g>
<defs>
<clipPath id="clip0_634_23165">
<rect width="204.194" height="71" fill="white"/>
</clipPath>
</defs>
</svg>
